<svg xmlns="http://www.w3.org/2000/svg" width="560.142" height="399.276" viewBox="0 0 560.142 399.276"><g transform="translate(656.711 -7913.626)"><path d="M-622.572,8452.99l41.049-25.086,38.008,25.086,41.809-28.887,79.817,44.85,43.329-25.845,34.207,21.284,49.41-25.085-115.544-69.175,42.569-25.086-78.3-47.13,38.768-19.764,156.593,86.658,43.329-24.325,76.016,47.89,28.126-18.243" transform="translate(6 -270)" fill="none" stroke="#2a1939" stroke-width="3"/><path d="M-656,8109.4l39.51,21.284,87.419-51.691,35.728,22.805,40.289-22.805L-529.07,8034.9l41.809-27.366-35.728-22.044" fill="none" stroke="#2a1939" stroke-width="3"/><path d="M-385.4,7914.79l24.325,19.765-41.049,23.565,158.113,91.979,47.89-27.366-36.488-22.8,41.809-22.8" fill="none" stroke="#2a1939" stroke-width="3"/><path d="M-302.544,8311.6l-74.5-42.569,82.858-48.65,37.248,22.045,42.569-22.045,36.488,22.045,22.8-22.045" fill="none" stroke="#2a1939" stroke-width="3"/></g></svg>