<svg xmlns="http://www.w3.org/2000/svg" xmlns:xlink="http://www.w3.org/1999/xlink" width="663.368" height="447.324" viewBox="0 0 663.368 447.324"><defs><filter id="a" x="0" y="309.1" width="663.368" height="138.224" filterUnits="userSpaceOnUse"><feOffset dy="10" input="SourceAlpha"/><feGaussianBlur stdDeviation="10" result="b"/><feFlood flood-opacity="0.612"/><feComposite operator="in" in2="b"/><feComposite in="SourceGraphic"/></filter><filter id="c" x="204.745" y="358.272" width="272.811" height="48.629" filterUnits="userSpaceOnUse"><feOffset dy="5" input="SourceAlpha"/><feGaussianBlur stdDeviation="5" result="d"/><feFlood flood-color="#333246"/><feComposite operator="in" in2="d"/><feComposite in="SourceGraphic"/></filter></defs><g transform="translate(77 70.888)"><g transform="translate(48.116 -70.888)"><path d="M997.367,196.477V397.944a5.07,5.07,0,0,1-5.072,5.072h-342a4.268,4.268,0,0,1-.727-.056,5.068,5.068,0,0,1-4.345-5.016V196.477a5.07,5.07,0,0,1,5.072-5.072h342A5.071,5.071,0,0,1,997.367,196.477Z" transform="translate(-617.247 -178.113)" fill="#fff"/><path d="M871.29,405.265h-218.3a4.456,4.456,0,0,1-.816-.065L755.421,226.365a7.229,7.229,0,0,1,12.584,0L837.3,346.377l3.32,5.743Z" transform="translate(-617.567 -179.554)" fill="#3f3d56"/><path d="M1000.173,407.81H811.359l36.588-53.145,2.633-3.828,47.677-69.258c3.126-4.539,10.645-4.822,14.32-.856a8.619,8.619,0,0,1,.687.856Z" transform="translate(-624.899 -182.099)" fill="#3f3d56"/><circle cx="6.058" cy="6.058" r="6.058" transform="translate(0 0)" fill="#6c63ff"/><circle cx="6.058" cy="6.058" r="6.058" transform="translate(378.8 0)" fill="#6c63ff"/><circle cx="6.058" cy="6.058" r="6.058" transform="translate(0 271.379)" fill="#6c63ff"/><circle cx="6.058" cy="6.058" r="6.058" transform="translate(378.8 271.379)" fill="#6c63ff"/></g><g transform="matrix(1, 0, 0, 1, -77, -70.89)" filter="url(#a)"><path d="M-46,331.437H557.368l-52.3-78.224H5.637Z" transform="translate(76 75.89)" fill="#585671"/></g><circle cx="18.667" cy="18.667" r="18.667" transform="translate(299.868 80.924)" fill="#2f2e41"/><path d="M679.728,292.953a18.67,18.67,0,0,1,16.433,27.527,18.663,18.663,0,1,0-31.007-20.507,18.621,18.621,0,0,1,14.574-7.02Z" transform="translate(-355.992 -211.515)" fill="#2f2e41"/><circle cx="54.835" cy="54.835" r="54.835" transform="translate(228.818 -10.118)" fill="#2f2e41"/><path d="M515.714,137.847a54.825,54.825,0,0,1,75.994-5.75c-.448-.426-.892-.856-1.358-1.27a54.835,54.835,0,1,0-72.865,81.965c.466.414.945.8,1.421,1.2a54.825,54.825,0,0,1-3.192-76.145Z" transform="translate(-275.098 -127.153)" fill="#2f2e41"/><circle cx="35.318" cy="35.318" r="35.318" transform="translate(247.871 28.452)" fill="#ffb8b8"/><path d="M562.225,282.9s4.647,42.753-2.788,47.4,42.753,11.153,42.753,11.153-7.435-46.47,11.153-58.553Z" transform="translate(-304.131 -207.975)" fill="#ffb8b8"/><path d="M539.584,348.242s13.839-6.463-6.092-4.161-37.128-6.527-37.128-6.527-6.039-6.041-6.968.465,2.788,18.588-17.659,20.447-39.035-3.718-46.47,10.223-3.718,74.353-3.718,74.353,13.941,50.188,25.094,57.623,108.741-2.788,108.741-2.788l27.882-50.188V389.136s-3.718-20.447-29.741-14.871c0,0-16.729-3.718-15.8-12.082S539.584,348.242,539.584,348.242Z" transform="translate(-236.879 -233.355)" fill="#d0cde1"/><path d="M475.048,663.5c.574-2.5.959-3.919.959-3.919l-.3-2.036-3.062-20.793-1.287-8.771c11.15-4.647,13.941-26.024,13.941-26.024l.421-.251,1.9-1.139v-.005l6.832-4.1.139-.082,2.759,1.836,5.606,3.739a65.921,65.921,0,0,0,51.91,11.894,57.146,57.146,0,0,0,12.217-3.529l13.52-4.508.421-.138.415.062,7.929,1.2.144.026.657.1-1.836,12.694-2.662,18.449c7.032,3.724,13.284,10.72,18.752,19.341q1.816,2.862,3.518,5.955c1.477,2.667,2.888,5.442,4.231,8.283.164.339.323.682.482,1.026.518,1.113,1.031,2.236,1.528,3.365h-141.6c.185-1.134.369-2.216.549-3.257a.793.793,0,0,0,.02-.108c.067-.349.128-.687.185-1.026C473.965,668.4,474.571,665.575,475.048,663.5Z" transform="translate(-261.594 -360.676)" fill="#2f2e41"/><path d="M467.734,376.584a71.31,71.31,0,0,1,6.506,41.823c-3.718,23.235,11.153,80.858,11.153,80.858l11.153-2.788s-7.435-48.329-5.576-59.482,1.859-54.835-7.435-60.412S467.734,376.584,467.734,376.584Z" transform="translate(-259.828 -252.402)" fill="#2f2e41"/><path d="M678.467,411.495l3.907,102.9,7.435,4.647S700.5,406.119,694.92,406.119H683.573a5.114,5.114,0,0,0-5.107,5.375Z" transform="translate(-362.473 -267.997)" fill="#2f2e41"/><circle cx="4.647" cy="4.647" r="4.647" transform="translate(226.029 235.246)" fill="#6c63ff"/><circle cx="4.647" cy="4.647" r="4.647" transform="translate(318.97 239.893)" fill="#6c63ff"/><path d="M506.12,58.1V93.422H514.3l10.409-11.153-1.394,11.153h36.154l-2.231-11.153L561.7,93.422h5.762V58.1Z" transform="translate(-253.138 -38.481)" fill="#2f2e41"/><ellipse cx="2.788" cy="5.112" rx="2.788" ry="5.112" transform="translate(244.618 51.223)" fill="#ffb8b8"/><ellipse cx="2.788" cy="5.112" rx="2.788" ry="5.112" transform="translate(316.182 51.223)" fill="#ffb8b8"/><path d="M678.508,610.578s-42.288-7.9-45.076,6.041,46.935,7.9,46.935,7.9Z" transform="translate(-340.485 -366.503)" fill="#ffb8b8"/><path d="M713.435,426.052S814.74,506.91,796.152,526.428s-89.223,13.941-89.223,13.941l4.647-23.235,40.894-4.647L732.023,492.04,713.435,493.9Z" transform="translate(-376.341 -277.706)" fill="#d0cde1"/><path d="M427.869,676.445l13.012,10.223s9.294,28.812,23.235,20.447S451.1,669.01,451.1,669.01l-15.8-5.576Z" transform="translate(-240.41 -393.335)" fill="#ffb8b8"/><path d="M351.319,397.058l-12.977,3.905s-90.188,66.73-93.905,85.318S262.1,515.093,262.1,515.093L342.955,553.2l8.365-22.306-38.106-19.518s2.788-5.576-8.365-6.506-13.012-13.012-13.012-13.012,22.306-34.388,34.388-26.953,15.8,13.012,15.8,13.012Z" transform="translate(-150.848 -263.583)" fill="#d0cde1"/><g transform="matrix(1, 0, 0, 1, -77, -70.89)" filter="url(#c)"><path d="M583.5,725.262v3.113a6.842,6.842,0,0,1-.467,2.5,7.028,7.028,0,0,1-.5,1.026,6.892,6.892,0,0,1-5.924,3.365H347.578a6.892,6.892,0,0,1-5.924-3.365,7.015,7.015,0,0,1-.5-1.026,6.844,6.844,0,0,1-.467-2.5v-3.113a6.886,6.886,0,0,1,6.888-6.888h13.2v-1.452a.287.287,0,0,1,.287-.287h6.888a.287.287,0,0,1,.287.287v1.452h4.3v-1.452a.287.287,0,0,1,.287-.287h6.888a.287.287,0,0,1,.287.287v1.452h4.308v-1.452a.287.287,0,0,1,.287-.287h6.888a.287.287,0,0,1,.287.287v1.452h4.3v-1.452a.287.287,0,0,1,.287-.287h6.888a.287.287,0,0,1,.287.287v1.452h4.3v-1.452a.287.287,0,0,1,.287-.287h6.888a.287.287,0,0,1,.287.287v1.452h4.308v-1.452a.287.287,0,0,1,.287-.287H426.8a.287.287,0,0,1,.287.287v1.452h4.3v-1.452a.287.287,0,0,1,.287-.287h53.957a.287.287,0,0,1,.287.287v1.452h4.308v-1.452a.287.287,0,0,1,.287-.287H497.4a.29.29,0,0,1,.287.287v1.452h4.3v-1.452a.287.287,0,0,1,.287-.287h6.888a.287.287,0,0,1,.287.287v1.452h4.3v-1.452a.287.287,0,0,1,.287-.287h6.888a.287.287,0,0,1,.287.287v1.452h4.308v-1.452a.287.287,0,0,1,.287-.287H532.7a.286.286,0,0,1,.282.287v1.452h4.308v-1.452a.287.287,0,0,1,.287-.287h6.888a.287.287,0,0,1,.287.287v1.452h4.3v-1.452a.287.287,0,0,1,.287-.287h6.888a.287.287,0,0,1,.287.287v1.452h20.09a6.886,6.886,0,0,1,6.888,6.888Z" transform="translate(-120.94 -348.36)" fill="#3f3d56"/></g><rect width="375.953" height="1.026" transform="translate(76.201 311.621)" fill="#3f3d56"/><path d="M573.412,476.15H488.044V474.39H449.335v1.759h-85.72a5.775,5.775,0,0,0-5.775,5.775V598.819a5.775,5.775,0,0,0,5.775,5.775h209.8a5.774,5.774,0,0,0,5.774-5.775V481.925a5.775,5.775,0,0,0-5.775-5.775Z" transform="translate(-206.299 -301.252)" fill="#3f3d56"/><circle cx="12.822" cy="12.822" r="12.822" transform="translate(249.56 202.887)" fill="none" stroke="#d0cde1" stroke-miterlimit="10" stroke-width="2"/><circle cx="12.822" cy="12.822" r="12.822" transform="translate(245.457 207.503)" fill="#d0cde1"/><rect width="96.937" height="1.16" transform="translate(6.741 330.155)" fill="#3f3d56"/><rect width="96.937" height="1.16" transform="translate(429.88 330.155)" fill="#3f3d56"/><path d="M178.723,685.882c-10.212,16.672-6.7,37.411-6.7,37.411s20.071-6.293,30.283-22.965,6.7-37.411,6.7-37.411S188.935,669.209,178.723,685.882Z" transform="translate(-115.502 -393.083)" fill="#3f3d56"/><path d="M127.68,728.17l-.581-.092c-.21-.033-21.11-3.5-33.627-18.472s-12.216-36.159-12.212-36.371l.012-.588.581.092c.21.033,21.11,3.5,33.627,18.472h0C128,706.188,127.7,727.37,127.693,727.583Z" transform="translate(-71.576 -397.823)" fill="#6c63ff"/><path d="M136.843,723.326l-.561-.176c-.2-.064-20.373-6.542-30.567-23.186s-6.8-37.556-6.767-37.765l.1-.58.561.176c.2.064,20.373,6.542,30.567,23.187h0c10.195,16.644,6.8,37.555,6.767,37.764Zm-36.97-60.357c-.464,3.51-2.315,21.714,6.716,36.459s26.09,21.366,29.426,22.548c.464-3.51,2.315-21.714-6.716-36.458h0c-9.032-14.745-26.09-21.367-29.426-22.548Z" transform="translate(-79.914 -392.451)" fill="#3f3d56"/><circle cx="11.284" cy="11.284" r="11.284" transform="translate(45.875 253.618)" fill="#3f3d56"/><path d="M309.291,195.319l-64.731-65.242H214v-1.026h30.988l.151.152L310.02,194.6Z" transform="translate(-110.845 -73.04)" fill="#3f3d56"/><path d="M695.518,191.319l64.731-65.242h30.56v-1.026H759.821l-.15.152L694.789,190.6Z" transform="translate(-345.039 -71.091)" fill="#3f3d56"/><rect width="74.883" height="14.811" transform="translate(-6.605 24.873)" fill="#d0cde1"/><rect width="74.883" height="14.811" transform="translate(-6.605 47.6)" fill="#d0cde1"/><rect width="74.883" height="14.811" transform="translate(-6.605 70.327)" fill="#d0cde1"/><rect width="30.978" height="14.811" transform="translate(-6.605 24.873)" opacity="0.15"/><rect width="10.029" height="14.811" transform="translate(-6.605 47.6)" opacity="0.15"/><rect width="49.922" height="14.811" transform="translate(-6.605 70.327)" opacity="0.15"/><rect width="74.998" height="6.683" transform="translate(483.097 28.2)" fill="#d0cde1"/><rect width="14.851" height="14.851" transform="translate(455.002 27.335)" fill="#6c63ff"/><rect width="14.851" height="14.851" transform="translate(455.002 49.611)" fill="#6c63ff"/><rect width="14.851" height="14.851" transform="translate(455.002 71.888)" fill="#6c63ff"/><path d="M971.377,197.992H955.5V182.115h15.877Zm-14.851-1.026h13.825V183.141H956.526Z" transform="translate(-497.421 -158.883)" fill="#3f3d56"/><rect width="74.998" height="6.683" transform="translate(483.097 50.477)" fill="#d0cde1"/><path d="M971.377,241.425H955.5V225.548h15.877ZM956.526,240.4h13.825V226.574H956.526Z" transform="translate(-497.421 -180.04)" fill="#3f3d56"/><rect width="74.998" height="6.683" transform="translate(483.097 72.753)" fill="#d0cde1"/><path d="M971.377,284.858H955.5V268.981h15.877Zm-14.851-1.026h13.825V270.007H956.526Z" transform="translate(-497.421 -201.196)" fill="#3f3d56"/><circle cx="8.206" cy="8.206" r="8.206" transform="translate(82.126 24.212)" fill="#6c63ff"/><circle cx="8.206" cy="8.206" r="8.206" transform="translate(82.126 48.831)" fill="#6c63ff"/><circle cx="8.206" cy="8.206" r="8.206" transform="translate(82.126 70.885)" fill="#6c63ff"/><path d="M222.219,196.463a8.719,8.719,0,1,1,8.719-8.719A8.719,8.719,0,0,1,222.219,196.463Zm0-16.413a7.693,7.693,0,1,0,7.693,7.693A7.693,7.693,0,0,0,222.219,180.051Z" transform="translate(-135.99 -157.378)" fill="#3f3d56"/><path d="M222.219,244.463a8.719,8.719,0,1,1,8.719-8.719A8.719,8.719,0,0,1,222.219,244.463Zm0-16.413a7.693,7.693,0,1,0,7.693,7.693A7.693,7.693,0,0,0,222.219,228.051Z" transform="translate(-135.99 -180.759)" fill="#3f3d56"/><path d="M222.219,287.463a8.719,8.719,0,1,1,8.719-8.719A8.719,8.719,0,0,1,222.219,287.463Zm0-16.413a7.693,7.693,0,1,0,7.693,7.693,7.693,7.693,0,0,0-7.693-7.693Z" transform="translate(-135.99 -201.705)" fill="#3f3d56"/><path d="M1000.993,690.618h-1.026v-7.693a1.54,1.54,0,0,1,1.539-1.539h2.565a.513.513,0,0,0,.513-.513v-5.129a.513.513,0,0,0-.513-.513h-2.565a1.54,1.54,0,0,1-1.539-1.539v-2.564a.513.513,0,0,0-.513-.513h-4.616a1.54,1.54,0,0,1-1.539-1.539v-.513a.513.513,0,0,0-.513-.513H974.322a.513.513,0,0,0-.513.513v.513a1.54,1.54,0,0,1-1.539,1.539h-4.616a.513.513,0,0,0-.513.513v2.564a1.54,1.54,0,0,1-1.539,1.539h-2.565a.513.513,0,0,0-.513.513v5.129a.513.513,0,0,0,.513.513h3.077a1.54,1.54,0,0,1,1.539,1.539v7.693h-1.026v-7.693a.513.513,0,0,0-.513-.513h-3.077a1.54,1.54,0,0,1-1.539-1.539v-5.129a1.541,1.541,0,0,1,1.539-1.539H965.6a.513.513,0,0,0,.513-.513v-2.564a1.541,1.541,0,0,1,1.539-1.539h4.616a.513.513,0,0,0,.513-.513v-.513a1.54,1.54,0,0,1,1.539-1.539h18.464a1.54,1.54,0,0,1,1.539,1.539v.513a.513.513,0,0,0,.513.513h4.616a1.54,1.54,0,0,1,1.539,1.539v2.564a.513.513,0,0,0,.513.513h2.565a1.54,1.54,0,0,1,1.539,1.539v5.129a1.54,1.54,0,0,1-1.539,1.539h-2.565a.513.513,0,0,0-.513.513Z" transform="translate(-500.343 -395.085)" fill="#3f3d56"/><path d="M1004.325,760.618H973.039a1.54,1.54,0,0,1-1.539-1.539V737.025h1.026V759.08a.513.513,0,0,0,.513.513h31.287a.513.513,0,0,0,.513-.513V737.025h1.026V759.08a1.54,1.54,0,0,1-1.539,1.539Z" transform="translate(-505.214 -429.182)" fill="#3f3d56"/><rect width="40.519" height="12.31" rx="2" transform="translate(466.286 299.124)" fill="#6c63ff"/><path d="M1004.006,725.36H965.539A1.54,1.54,0,0,1,964,723.822V713.564a1.54,1.54,0,0,1,1.539-1.539h38.467a1.54,1.54,0,0,1,1.539,1.539v10.258a1.54,1.54,0,0,1-1.539,1.539Zm-38.467-12.309a.513.513,0,0,0-.513.513v10.258a.513.513,0,0,0,.513.513h38.467a.513.513,0,0,0,.513-.513V713.564a.513.513,0,0,0-.513-.513Z" transform="translate(-501.561 -417.004)" fill="#3f3d56"/><path d="M998.745,619.108h0a128.024,128.024,0,0,1-1.074-27.753l1.074-15.33h0c-5.92,11.779-4.582,27.282,0,43.083Z" transform="translate(-516.559 -350.758)" fill="#d0cde1"/><path d="M1009.693,640.67h0a94.119,94.119,0,0,1-.517-16.52l.517-9.125h0C1006.845,622.036,1007.489,631.264,1009.693,640.67Z" transform="translate(-522.892 -369.755)" fill="#d0cde1"/><g transform="translate(478.151 13.428)"><rect width="104.878" height="90.776" transform="translate(0)" fill="#3f3d56"/><rect width="75.794" height="4.08" transform="translate(14.101 51.117)" fill="#6c63ff"/><rect width="75.794" height="4.08" transform="translate(13.22 60.094)" fill="#6c63ff"/><rect width="75.794" height="4.08" transform="translate(14.101 69.07)" fill="#6c63ff"/><rect width="75.794" height="4.08" transform="translate(14.101 21.152)" fill="#6c63ff"/><rect width="75.794" height="4.08" transform="translate(13.22 30.129)" fill="#6c63ff"/><rect width="75.794" height="4.08" transform="translate(14.101 39.105)" fill="#6c63ff"/></g><g transform="translate(-36.297 13.428)"><rect width="104.878" height="90.776" transform="translate(0)" fill="#3f3d56"/><rect width="75.794" height="4.08" transform="translate(14.101 51.117)" fill="#6c63ff"/><rect width="75.794" height="4.08" transform="translate(13.22 60.094)" fill="#6c63ff"/><rect width="75.794" height="4.08" transform="translate(14.101 69.07)" fill="#6c63ff"/><rect width="75.794" height="4.08" transform="translate(14.101 21.152)" fill="#6c63ff"/><rect width="75.794" height="4.08" transform="translate(13.22 30.129)" fill="#6c63ff"/><rect width="75.794" height="4.08" transform="translate(14.101 39.105)" fill="#6c63ff"/></g><g transform="translate(-46 60.962)"><rect width="104.878" height="90.776" transform="translate(0)" fill="#3f3d56"/><rect width="75.794" height="4.08" transform="translate(14.101 51.117)" fill="#6c63ff"/><rect width="75.794" height="4.08" transform="translate(13.22 60.094)" fill="#6c63ff"/><rect width="75.794" height="4.08" transform="translate(14.101 69.07)" fill="#6c63ff"/><rect width="75.794" height="4.08" transform="translate(14.101 21.152)" fill="#6c63ff"/><rect width="75.794" height="4.08" transform="translate(13.22 30.129)" fill="#6c63ff"/><rect width="75.794" height="4.08" transform="translate(14.101 39.105)" fill="#6c63ff"/></g><path d="M1031.643,170.565l.041-.007L1025.7,135.55,992.584,146.07l4.954,31.311a8.508,8.508,0,1,0,3.419,4.2l.031,0-5.317-33.6,27.846-8.847,4.734,27.673a8.491,8.491,0,1,0,3.392,3.762Z" transform="translate(-809.115 68.967)" fill="#6c63ff"/><path d="M1001.329,148.058l.015,0-2.139-12.5-11.828,3.758,1.77,11.185a3.039,3.039,0,1,0,1.221,1.5l.011,0-1.9-12,9.947-3.16,1.691,9.885a3.033,3.033,0,1,0,1.212,1.344Z" transform="translate(-670.384 85.744)" fill="#6c63ff"/><path d="M.693.054l23.143,12.5a.482.482,0,0,1-.034.846l-3.949,1.484a.96.96,0,0,0-.52.486l-3.066,6.317c-.059.279-.575.351-.579.068l.469-5.218a1.877,1.877,0,0,0-.423-1.057l-12-11.755a.3.3,0,0,0-.262-.076.275.275,0,0,0-.148.423L13.666,16.786a2.3,2.3,0,0,1,.423,1.04l.6,4.508c-.051.393-.359.541-.6.19l-2.228-2.617a.465.465,0,0,0-.655-.11L5.454,23.983a.465.465,0,0,1-.732-.283L.012.574A.469.469,0,0,1,.688.054Z" transform="matrix(0.766, -0.643, 0.643, 0.766, 109.043, 48.743)" fill="#6c63ff"/><path d="M895.1,169.93,871.953,182.45a.482.482,0,0,0,.038.846l3.945,1.488a.917.917,0,0,1,.52.486l3.07,6.313c.059.279.571.355.579.072l-.469-5.222a1.852,1.852,0,0,1,.423-1.053l12-11.755a.287.287,0,0,1,.262-.076.275.275,0,0,1,.152.423l-10.347,12.652a2.313,2.313,0,0,0-.423,1.044l-.622,4.508c.051.393.359.545.609.19l2.228-2.613a.465.465,0,0,1,.655-.11l5.742,4.182a.461.461,0,0,0,.727-.283l4.711-23.126a.469.469,0,0,0-.677-.52Z" transform="translate(-772.876 -203.848)" fill="#6c63ff"/><path d="M567.454,61.644l-15.8,8.546a.33.33,0,0,0,.021.592l2.7,1.015a.647.647,0,0,1,.355.33l2.114,4.313c.042.19.393.241.4.051l-.321-3.569a1.293,1.293,0,0,1,.287-.719l8.195-8.034a.2.2,0,0,1,.178-.051.186.186,0,0,1,.1.3l-7.062,8.639a1.582,1.582,0,0,0-.275.71l-.423,3.078c.034.271.241.372.423.131l1.522-1.784a.317.317,0,0,1,.423-.076l3.92,2.858a.317.317,0,0,0,.5-.195l3.218-15.789a.317.317,0,0,0-.461-.355Z" transform="translate(-146.14 -18.907)" fill="#6c63ff"/><path d="M780.13,42.626l-15.8,8.55a.33.33,0,0,0,.021.588l2.7,1.015a.638.638,0,0,1,.355.334l2.093,4.309c.042.19.393.241.4.051l-.3-3.565a1.3,1.3,0,0,1,.288-.723l8.195-8.034a.194.194,0,0,1,.178-.051.186.186,0,0,1,.1.3l-7.07,8.647a1.582,1.582,0,0,0-.275.71l-.423,3.083c.034.266.245.368.423.127l1.522-1.784a.317.317,0,0,1,.444-.076l3.924,2.858a.313.313,0,0,0,.495-.195l3.193-15.789a.317.317,0,0,0-.461-.355Z" transform="translate(-505.258 -92.721)" fill="#6c63ff"/><path d="M879.1,297.136l-46.649-3.852a.846.846,0,0,0-.786,1.319l4.436,6.055a1.653,1.653,0,0,1,.3,1.231l-1.573,12.39c-.182.469.512,1.082.795.668l4.381-8.254a3.3,3.3,0,0,1,1.653-1.159l29.3-5.844a.52.52,0,0,1,.461.14.491.491,0,0,1-.2.8l-27.709,8.808a4.135,4.135,0,0,0-1.62,1.159l-5.307,6.114c-.3.638,0,1.159.719.875l5.865-1.729a.846.846,0,0,1,1.083.474l4.482,11.815a.846.846,0,0,0,1.366.288l29.5-29.866a.846.846,0,0,0-.5-1.433Z" transform="translate(-344.591 -311.915)" fill="#6c63ff"/></g></svg>