<svg xmlns="http://www.w3.org/2000/svg" width="137" height="43" viewBox="0 0 137 43"><g transform="translate(-189 -30)"><text transform="translate(274 59)" fill="#e9e9e9" font-size="30" font-family="Teko-SemiBold, Teko" font-weight="600" letter-spacing="-0.02em"><tspan x="-51.18" y="0">SG STUDIO</tspan></text><g transform="translate(-1399.34 -5.111)"><g transform="translate(1610.34 40.111)" fill="#ff0f50" stroke="#ff0f50" stroke-width="1"><rect width="2" height="28" stroke="none"/><rect x="0.5" y="0.5" width="1" height="27" fill="none"/></g><g transform="translate(1606.34 47.111)" fill="#ff0f50" stroke="#ff0f50" stroke-width="1"><rect width="2" height="15" stroke="none"/><rect x="0.5" y="0.5" width="1" height="14" fill="none"/></g><g transform="translate(1603.34 49.111)" fill="#ff0f50" stroke="#ff0f50" stroke-width="1"><rect width="2" height="10" stroke="none"/><rect x="0.5" y="0.5" width="1" height="9" fill="none"/></g><g transform="translate(1614.34 49.111)" fill="#ff0f50" stroke="#ff0f50" stroke-width="1"><rect width="2" height="10" stroke="none"/><rect x="0.5" y="0.5" width="1" height="9" fill="none"/></g><g transform="translate(1600.34 47.111)" fill="#ff0f50" stroke="#ff0f50" stroke-width="1"><rect width="2" height="14" stroke="none"/><rect x="0.5" y="0.5" width="1" height="13" fill="none"/></g><g transform="translate(1596.34 40.111)" fill="#ff0f50" stroke="#ff0f50" stroke-width="1"><rect width="2" height="28" stroke="none"/><rect x="0.5" y="0.5" width="1" height="27" fill="none"/></g><g transform="translate(1592.34 47.111)" fill="#ff0f50" stroke="#ff0f50" stroke-width="1"><rect width="2" height="14" stroke="none"/><rect x="0.5" y="0.5" width="1" height="13" fill="none"/></g><g transform="translate(1588.34 49.111)" fill="#ff0f50" stroke="#ff0f50" stroke-width="1"><rect width="2" height="10" stroke="none"/><rect x="0.5" y="0.5" width="1" height="9" fill="none"/></g></g></g></svg>