<svg xmlns="http://www.w3.org/2000/svg" width="705.377" height="398.89" viewBox="0 0 705.377 398.89">
  <g id="main" transform="translate(46 0)">
    <circle id="Ellipse_10" data-name="Ellipse 10" cx="21.797" cy="21.797" r="21.797" transform="translate(357.856 106.377)" fill="#2f2e41"/>
    <path id="Path_27" data-name="Path 27" d="M682.171,293.42a21.8,21.8,0,0,1,19.188,32.142,21.792,21.792,0,1,0-36.206-23.945,21.743,21.743,0,0,1,17.017-8.2Z" transform="translate(-296.446 -186.443)" fill="#2f2e41"/>
    <circle id="Ellipse_11" data-name="Ellipse 11" cx="64.028" cy="64.028" r="64.028" transform="translate(274.894 0.071)" fill="#2f2e41"/>
    <path id="Path_28" data-name="Path 28" d="M518.5,141.347a64.017,64.017,0,0,1,88.736-6.714c-.524-.5-1.042-1-1.586-1.483a64.029,64.029,0,1,0-85.082,95.707c.544.483,1.1.939,1.659,1.4a64.017,64.017,0,0,1-3.727-88.911Z" transform="translate(-229.832 -116.975)" fill="#2f2e41"/>
    <circle id="Ellipse_12" data-name="Ellipse 12" cx="41.239" cy="41.239" r="41.239" transform="translate(297.141 45.108)" fill="#ffb8b8"/>
    <path id="Path_29" data-name="Path 29" d="M562.819,282.9s5.426,49.921-3.256,55.347,49.921,13.023,49.921,13.023-8.682-54.262,13.023-68.37Z" transform="translate(-253.74 -183.528)" fill="#ffb8b8"/>
    <path id="Path_30" data-name="Path 30" d="M559.53,350.462s16.16-7.546-7.114-4.858-43.352-7.622-43.352-7.622-7.052-7.054-8.137.543,3.256,21.7-20.619,23.875-45.58-4.341-54.262,11.938-4.341,86.819-4.341,86.819,16.278,58.6,29.3,67.285,126.972-3.256,126.972-3.256l32.557-58.6v-68.37s-4.341-23.875-34.727-17.364c0,0-19.534-4.341-18.449-14.108S559.53,350.462,559.53,350.462Z" transform="translate(-198.36 -204.428)" fill="#d0cde1"/>
    <path id="Path_31" data-name="Path 31" d="M475.666,674.756c.671-2.923,1.12-4.576,1.12-4.576l-.347-2.378-3.575-24.279-1.5-10.241c13.02-5.426,16.278-30.388,16.278-30.388l.491-.293,2.222-1.33v-.006l7.977-4.785.162-.1,3.222,2.144,6.546,4.366a76.973,76.973,0,0,0,60.614,13.888,66.727,66.727,0,0,0,14.266-4.12l15.787-5.264.491-.162.485.072,9.259,1.4.168.03.767.114-2.144,14.823-3.108,21.542c8.211,4.348,15.511,12.517,21.9,22.584q2.12,3.342,4.108,6.953c1.725,3.114,3.372,6.354,4.941,9.672.192.4.377.8.563,1.2.6,1.3,1.2,2.611,1.785,3.929H472.791c.216-1.324.431-2.587.641-3.8a.928.928,0,0,0,.024-.126c.078-.407.15-.8.216-1.2C474.4,680.475,475.109,677.175,475.666,674.756Z" transform="translate(-218.713 -309.272)" fill="#2f2e41"/>
    <path id="Path_32" data-name="Path 32" d="M467.734,377s11.938,21.7,7.6,48.835,13.023,94.415,13.023,94.415l13.023-3.256s-8.682-56.432-6.511-69.455,2.17-64.028-8.682-70.54S467.734,377,467.734,377Z" transform="translate(-217.258 -220.113)" fill="#2f2e41"/>
    <path id="Path_33" data-name="Path 33" d="M678.468,412.4l4.562,120.153,8.682,5.426s12.48-131.856,5.969-131.856H684.431a5.971,5.971,0,0,0-5.963,6.277Z" transform="translate(-301.783 -232.954)" fill="#2f2e41"/>
    <circle id="Ellipse_13" data-name="Ellipse 13" cx="5.426" cy="5.426" r="5.426" transform="translate(271.638 286.572)" fill="#6c63ff"/>
    <circle id="Ellipse_14" data-name="Ellipse 14" cx="5.426" cy="5.426" r="5.426" transform="translate(380.161 291.998)" fill="#6c63ff"/>
    <path id="Path_34" data-name="Path 34" d="M506.12,58.1V99.343h9.55L527.825,86.32,526.2,99.343h42.215l-2.6-13.023,5.209,13.023h6.729V58.1Z" transform="translate(-203.01 -23.306)" fill="#2f2e41"/>
    <ellipse id="Ellipse_15" data-name="Ellipse 15" cx="3.256" cy="5.969" rx="3.256" ry="5.969" transform="translate(293.343 71.696)" fill="#ffb8b8"/>
    <ellipse id="Ellipse_16" data-name="Ellipse 16" cx="3.256" cy="5.969" rx="3.256" ry="5.969" transform="translate(376.906 71.696)" fill="#ffb8b8"/>
    <path id="Path_35" data-name="Path 35" d="M686.085,610.951s-49.378-9.224-52.634,7.054,54.8,9.224,54.8,9.224Z" transform="translate(-283.676 -314.07)" fill="#ffb8b8"/>
    <path id="Path_36" data-name="Path 36" d="M714.525,426.052s118.29,94.415,96.586,117.2-104.182,16.278-104.182,16.278l5.426-27.131,47.75-5.426L736.23,503.1l-21.7,2.17Z" transform="translate(-313.202 -240.949)" fill="#d0cde1"/>
    <path id="Path_37" data-name="Path 37" d="M427.869,678.627l15.193,11.938s10.852,33.642,27.131,23.875S455,669.945,455,669.945l-18.449-6.511Z" transform="translate(-201.268 -336.166)" fill="#ffb8b8"/>
    <path id="Path_38" data-name="Path 38" d="M369.311,397.058l-15.152,4.56S248.851,479.536,244.51,501.241s20.619,33.642,20.619,33.642l94.415,44.495,9.767-26.046-44.495-22.79s3.256-6.511-9.767-7.6-15.194-15.193-15.194-15.193S325.9,467.6,340.01,476.28s18.449,15.193,18.449,15.193Z" transform="translate(-127.517 -229.319)" fill="#d0cde1"/>
    <path id="Path_39" data-name="Path 39" d="M624.21,726.708v3.635a7.988,7.988,0,0,1-.545,2.917,8.2,8.2,0,0,1-.581,1.2,8.047,8.047,0,0,1-6.917,3.929H348.733a8.047,8.047,0,0,1-6.917-3.929,8.192,8.192,0,0,1-.581-1.2,7.99,7.99,0,0,1-.545-2.917v-3.635a8.041,8.041,0,0,1,8.043-8.043h15.415V716.97a.335.335,0,0,1,.335-.335h8.043a.335.335,0,0,1,.335.335v1.695h5.025V716.97a.335.335,0,0,1,.335-.335h8.043a.335.335,0,0,1,.335.335v1.695h5.031V716.97a.335.335,0,0,1,.335-.335h8.043a.335.335,0,0,1,.335.335v1.695h5.025V716.97a.335.335,0,0,1,.335-.335h8.043a.335.335,0,0,1,.335.335v1.695h5.025V716.97a.335.335,0,0,1,.335-.335h8.043a.335.335,0,0,1,.335.335v1.695h5.031V716.97a.335.335,0,0,1,.335-.335h8.043a.335.335,0,0,1,.335.335v1.695h5.025V716.97a.335.335,0,0,1,.335-.335h63a.335.335,0,0,1,.335.335v1.695H515.3V716.97a.335.335,0,0,1,.335-.335h8.043a.339.339,0,0,1,.335.335v1.695h5.025V716.97a.335.335,0,0,1,.335-.335h8.043a.335.335,0,0,1,.335.335v1.695h5.025V716.97a.335.335,0,0,1,.335-.335h8.043a.335.335,0,0,1,.335.335v1.695h5.031V716.97a.335.335,0,0,1,.335-.335H564.9a.334.334,0,0,1,.329.335v1.695h5.031V716.97a.335.335,0,0,1,.335-.335h8.043a.335.335,0,0,1,.335.335v1.695h5.025V716.97a.335.335,0,0,1,.335-.335h8.043a.335.335,0,0,1,.335.335v1.695h23.458a8.041,8.041,0,0,1,8.043,8.043Z" transform="translate(-166.3 -357.505)" fill="#3f3d56"/>
    <rect id="Rectangle_27" data-name="Rectangle 27" width="438.985" height="1.198" transform="translate(96.689 375.752)" fill="#3f3d56"/>
    <path id="Path_40" data-name="Path 40" d="M609.554,476.445h-99.68V474.39h-45.2v2.055H364.583a6.743,6.743,0,0,0-6.743,6.743V619.681a6.743,6.743,0,0,0,6.743,6.743H609.554a6.743,6.743,0,0,0,6.743-6.743V483.188a6.743,6.743,0,0,0-6.743-6.743Z" transform="translate(-173.179 -260.338)" fill="#3f3d56"/>
    <circle id="Ellipse_17" data-name="Ellipse 17" cx="14.972" cy="14.972" r="14.972" transform="translate(299.114 248.788)" fill="none" stroke="#d0cde1" stroke-miterlimit="10" stroke-width="2"/>
    <circle id="Ellipse_18" data-name="Ellipse 18" cx="14.972" cy="14.972" r="14.972" transform="translate(294.323 254.178)" fill="#d0cde1"/>
    <rect id="Rectangle_28" data-name="Rectangle 28" width="113.19" height="1.354" transform="translate(15.583 397.393)" fill="#3f3d56"/>
    <rect id="Rectangle_29" data-name="Rectangle 29" width="113.19" height="1.354" transform="translate(509.666 397.393)" fill="#3f3d56"/>
    <path id="Path_41" data-name="Path 41" d="M179.944,689.732c-11.924,19.468-7.822,43.683-7.822,43.683s23.436-7.348,35.361-26.815,7.822-43.684,7.822-43.684S191.868,670.264,179.944,689.732Z" transform="translate(-98.412 -335.958)" fill="#3f3d56"/>
    <path id="Path_42" data-name="Path 42" d="M135.463,737.479l-.678-.107c-.245-.039-24.649-4.082-39.264-21.569s-14.264-42.221-14.259-42.469l.015-.686.678.107c.245.039,24.649,4.082,39.265,21.57h0c14.615,17.487,14.264,42.221,14.259,42.469Z" transform="translate(-62.239 -339.861)" fill="#6c63ff"/>
    <path id="Path_43" data-name="Path 43" d="M143.292,733.671l-.655-.205c-.237-.074-23.788-7.639-35.692-27.073S99,662.54,99.043,662.3l.115-.677.655.205c.237.074,23.788,7.639,35.692,27.074h0c11.9,19.434,7.943,43.852,7.9,44.1ZM100.124,663.2c-.542,4.1-2.7,25.354,7.842,42.571s30.464,24.949,34.36,26.328c.542-4.1,2.7-25.354-7.842-42.571h0c-10.546-17.217-30.464-24.949-34.36-26.329Z" transform="translate(-69.106 -335.438)" fill="#3f3d56"/>
    <circle id="Ellipse_19" data-name="Ellipse 19" cx="13.176" cy="13.176" r="13.176" transform="translate(61.279 308.025)" fill="#3f3d56"/>
    <path id="Path_44" data-name="Path 44" d="M325.267,206.429l-75.584-76.18H214v-1.2h36.183l.176.178,75.759,76.358Z" transform="translate(-85.838 -51.764)" fill="#3f3d56"/>
    <path id="Path_45" data-name="Path 45" d="M695.641,202.429l75.583-76.18h35.684v-1.2H770.724l-.175.178-75.759,76.358Z" transform="translate(-278.688 -50.16)" fill="#3f3d56"/>
    <rect id="Rectangle_30" data-name="Rectangle 30" width="87.438" height="17.294" transform="translate(0 40.928)" fill="#d0cde1"/>
    <rect id="Rectangle_31" data-name="Rectangle 31" width="87.438" height="17.294" transform="translate(0 67.465)" fill="#d0cde1"/>
    <rect id="Rectangle_32" data-name="Rectangle 32" width="87.438" height="17.294" transform="translate(0 94.003)" fill="#d0cde1"/>
    <rect id="Rectangle_33" data-name="Rectangle 33" width="36.172" height="17.294" transform="translate(0 40.928)" opacity="0.15"/>
    <rect id="Rectangle_34" data-name="Rectangle 34" width="11.71" height="17.294" transform="translate(0 67.465)" opacity="0.15"/>
    <rect id="Rectangle_35" data-name="Rectangle 35" width="58.292" height="17.294" transform="translate(0 94.003)" opacity="0.15"/>
    <rect id="Rectangle_36" data-name="Rectangle 36" width="87.572" height="7.803" transform="translate(571.805 44.813)" fill="#d0cde1"/>
    <rect id="Rectangle_37" data-name="Rectangle 37" width="17.341" height="17.341" transform="translate(539 43.803)" fill="#6c63ff"/>
    <rect id="Rectangle_38" data-name="Rectangle 38" width="17.341" height="17.341" transform="translate(539 69.814)" fill="#6c63ff"/>
    <rect id="Rectangle_39" data-name="Rectangle 39" width="17.341" height="17.341" transform="translate(539 95.826)" fill="#6c63ff"/>
    <path id="Path_46" data-name="Path 46" d="M974.039,200.654H955.5V182.115h18.539Zm-17.341-1.2h16.143V183.313H956.7Z" transform="translate(-412.907 -143.103)" fill="#3f3d56"/>
    <rect id="Rectangle_40" data-name="Rectangle 40" width="87.572" height="7.803" transform="translate(571.805 70.824)" fill="#d0cde1"/>
    <path id="Path_47" data-name="Path 47" d="M974.039,244.087H955.5V225.548h18.539Zm-17.341-1.2h16.143V226.746H956.7Z" transform="translate(-412.907 -160.525)" fill="#3f3d56"/>
    <rect id="Rectangle_41" data-name="Rectangle 41" width="87.572" height="7.803" transform="translate(571.805 96.836)" fill="#d0cde1"/>
    <path id="Path_48" data-name="Path 48" d="M974.039,287.52H955.5V268.981h18.539Zm-17.341-1.2h16.143V270.179H956.7Z" transform="translate(-412.907 -177.946)" fill="#3f3d56"/>
    <circle id="Ellipse_20" data-name="Ellipse 20" cx="9.582" cy="9.582" r="9.582" transform="translate(103.608 40.156)" fill="#6c63ff"/>
    <circle id="Ellipse_21" data-name="Ellipse 21" cx="9.582" cy="9.582" r="9.582" transform="translate(103.608 68.903)" fill="#6c63ff"/>
    <circle id="Ellipse_22" data-name="Ellipse 22" cx="9.582" cy="9.582" r="9.582" transform="translate(103.608 94.655)" fill="#6c63ff"/>
    <path id="Path_49" data-name="Path 49" d="M223.681,199.387a10.181,10.181,0,1,1,10.181-10.181,10.181,10.181,0,0,1-10.181,10.181Zm0-19.164a8.983,8.983,0,1,0,8.983,8.983A8.983,8.983,0,0,0,223.681,180.223Z" transform="translate(-115.282 -141.864)" fill="#3f3d56"/>
    <path id="Path_50" data-name="Path 50" d="M223.681,247.387a10.181,10.181,0,1,1,10.181-10.181A10.181,10.181,0,0,1,223.681,247.387Zm0-19.164a8.983,8.983,0,1,0,8.983,8.983A8.983,8.983,0,0,0,223.681,228.223Z" transform="translate(-115.282 -161.117)" fill="#3f3d56"/>
    <path id="Path_51" data-name="Path 51" d="M223.681,290.387a10.181,10.181,0,1,1,10.181-10.181A10.181,10.181,0,0,1,223.681,290.387Zm0-19.164a8.983,8.983,0,1,0,8.983,8.983,8.983,8.983,0,0,0-8.983-8.983Z" transform="translate(-115.282 -178.365)" fill="#3f3d56"/>
    <path id="Path_52" data-name="Path 52" d="M1007.614,694.574h-1.2v-8.983a1.8,1.8,0,0,1,1.8-1.8h2.994a.6.6,0,0,0,.6-.6v-5.989a.6.6,0,0,0-.6-.6h-2.995a1.8,1.8,0,0,1-1.8-1.8v-2.994a.6.6,0,0,0-.6-.6h-5.39a1.8,1.8,0,0,1-1.8-1.8v-.6a.6.6,0,0,0-.6-.6h-21.56a.6.6,0,0,0-.6.6v.6a1.8,1.8,0,0,1-1.8,1.8h-5.39a.6.6,0,0,0-.6.6v2.994a1.8,1.8,0,0,1-1.8,1.8H963.3a.6.6,0,0,0-.6.6V683.2a.6.6,0,0,0,.6.6h3.593a1.8,1.8,0,0,1,1.8,1.8v8.983h-1.2v-8.983a.6.6,0,0,0-.6-.6H963.3a1.8,1.8,0,0,1-1.8-1.8v-5.989a1.8,1.8,0,0,1,1.8-1.8h2.994a.6.6,0,0,0,.6-.6v-2.994a1.8,1.8,0,0,1,1.8-1.8h5.39a.6.6,0,0,0,.6-.6v-.6a1.8,1.8,0,0,1,1.8-1.8h21.56a1.8,1.8,0,0,1,1.8,1.8v.6a.6.6,0,0,0,.6.6h5.39a1.8,1.8,0,0,1,1.8,1.8v2.994a.6.6,0,0,0,.6.6h2.994a1.8,1.8,0,0,1,1.8,1.8V683.2a1.8,1.8,0,0,1-1.8,1.8h-2.994a.6.6,0,0,0-.6.6Z" transform="translate(-415.313 -337.606)" fill="#3f3d56"/>
    <path id="Path_53" data-name="Path 53" d="M1009.829,764.574H973.3a1.8,1.8,0,0,1-1.8-1.8V737.025h1.2v25.752a.6.6,0,0,0,.6.6h36.532a.6.6,0,0,0,.6-.6V737.025h1.2v25.752a1.8,1.8,0,0,1-1.8,1.8Z" transform="translate(-419.325 -365.684)" fill="#3f3d56"/>
    <rect id="Rectangle_42" data-name="Rectangle 42" width="47.312" height="14.373" rx="2" transform="translate(552.175 361.16)" fill="#6c63ff"/>
    <path id="Path_54" data-name="Path 54" d="M1010.713,727.6H965.8a1.8,1.8,0,0,1-1.8-1.8V713.822a1.8,1.8,0,0,1,1.8-1.8h44.917a1.8,1.8,0,0,1,1.8,1.8V725.8a1.8,1.8,0,0,1-1.8,1.8ZM965.8,713.223a.6.6,0,0,0-.6.6V725.8a.6.6,0,0,0,.6.6h44.917a.6.6,0,0,0,.6-.6V713.822a.6.6,0,0,0-.6-.6Z" transform="translate(-416.316 -355.656)" fill="#3f3d56"/>
    <path id="Path_55" data-name="Path 55" d="M999.408,626.332h0a149.486,149.486,0,0,1-1.255-32.407l1.255-17.9h0c-6.912,13.754-5.35,31.856,0,50.307Z" transform="translate(-428.667 -301.105)" fill="#d0cde1"/>
    <path id="Path_56" data-name="Path 56" d="M1010.012,644.969h0a109.9,109.9,0,0,1-.6-19.29l.6-10.655h0C1006.687,623.212,1007.438,633.987,1010.012,644.969Z" transform="translate(-433.881 -316.748)" fill="#d0cde1"/>
    <g id="massge" transform="translate(483 -137.161)">
      <rect id="Rectangle_71" data-name="Rectangle 71" width="122.462" height="105.996" transform="translate(48 168.229)" fill="#3f3d56"/>
      <rect id="Rectangle_72" data-name="Rectangle 72" width="88.502" height="4.764" transform="translate(64.465 227.916)" fill="#6c63ff"/>
      <rect id="Rectangle_73" data-name="Rectangle 73" width="88.502" height="4.764" transform="translate(63.436 238.398)" fill="#6c63ff"/>
      <rect id="Rectangle_74" data-name="Rectangle 74" width="88.502" height="4.764" transform="translate(64.465 248.879)" fill="#6c63ff"/>
      <rect id="Rectangle_75" data-name="Rectangle 75" width="88.502" height="4.764" transform="translate(64.465 192.927)" fill="#6c63ff"/>
      <rect id="Rectangle_76" data-name="Rectangle 76" width="88.502" height="4.764" transform="translate(63.436 203.409)" fill="#6c63ff"/>
      <rect id="Rectangle_77" data-name="Rectangle 77" width="88.502" height="4.764" transform="translate(64.465 213.89)" fill="#6c63ff"/>
    </g>
    <g id="massge-2" data-name="massge" transform="translate(-78 -137.161)">
      <rect id="Rectangle_71-2" data-name="Rectangle 71" width="122.462" height="105.996" transform="translate(48 168.229)" fill="#3f3d56"/>
      <rect id="Rectangle_72-2" data-name="Rectangle 72" width="88.502" height="4.764" transform="translate(64.465 227.916)" fill="#6c63ff"/>
      <rect id="Rectangle_73-2" data-name="Rectangle 73" width="88.502" height="4.764" transform="translate(63.436 238.398)" fill="#6c63ff"/>
      <rect id="Rectangle_74-2" data-name="Rectangle 74" width="88.502" height="4.764" transform="translate(64.465 248.879)" fill="#6c63ff"/>
      <rect id="Rectangle_75-2" data-name="Rectangle 75" width="88.502" height="4.764" transform="translate(64.465 192.927)" fill="#6c63ff"/>
      <rect id="Rectangle_76-2" data-name="Rectangle 76" width="88.502" height="4.764" transform="translate(63.436 203.409)" fill="#6c63ff"/>
      <rect id="Rectangle_77-2" data-name="Rectangle 77" width="88.502" height="4.764" transform="translate(64.465 213.89)" fill="#6c63ff"/>
    </g>
    <g id="massge-3" data-name="massge" transform="translate(-94 -85.161)">
      <rect id="Rectangle_71-3" data-name="Rectangle 71" width="122.462" height="105.996" transform="translate(48 168.229)" fill="#3f3d56"/>
      <rect id="Rectangle_72-3" data-name="Rectangle 72" width="88.502" height="4.764" transform="translate(64.465 227.916)" fill="#6c63ff"/>
      <rect id="Rectangle_73-3" data-name="Rectangle 73" width="88.502" height="4.764" transform="translate(63.436 238.398)" fill="#6c63ff"/>
      <rect id="Rectangle_74-3" data-name="Rectangle 74" width="88.502" height="4.764" transform="translate(64.465 248.879)" fill="#6c63ff"/>
      <rect id="Rectangle_75-3" data-name="Rectangle 75" width="88.502" height="4.764" transform="translate(64.465 192.927)" fill="#6c63ff"/>
      <rect id="Rectangle_76-3" data-name="Rectangle 76" width="88.502" height="4.764" transform="translate(63.436 203.409)" fill="#6c63ff"/>
      <rect id="Rectangle_77-3" data-name="Rectangle 77" width="88.502" height="4.764" transform="translate(64.465 213.89)" fill="#6c63ff"/>
    </g>
    <path id="Path_598" data-name="Path 598" d="M1039.55,176.435l.048-.008-6.992-40.876-38.663,12.283,5.785,36.561a9.935,9.935,0,1,0,3.992,4.906l.036-.006-6.208-39.236,32.515-10.33,5.527,32.313a9.914,9.914,0,1,0,3.961,4.393Z" transform="translate(-772 115.142)" fill="#6c63ff"/>
    <path id="Path_599" data-name="Path 599" d="M1004.154,150.155l.017,0-2.5-14.6-13.811,4.387L989.929,153a3.549,3.549,0,1,0,1.426,1.753l.013,0-2.218-14.015,11.615-3.69,1.974,11.542a3.541,3.541,0,1,0,1.415,1.569Z" transform="translate(-610.01 134.732)" fill="#6c63ff"/>
  </g>
</svg>
