<svg xmlns="http://www.w3.org/2000/svg" width="704.991" height="667.991" viewBox="0 0 704.991 667.991"><g transform="translate(551.897 -2308.988)"><g transform="translate(-174.071 2976.497) rotate(-135)" fill="none"><path d="M-.682.731,482,0V462H109A109.053,109.053,0,0,1,.279,360.861C.1,358.4,0,355.709,0,353Z" stroke="none"/><path d="M 481 1.00152587890625 L 0.3199462890625 1.7298583984375 L 1 353 C 1 355.6221923828125 1.095550537109375 358.3151245117188 1.2763671875 360.7877502441406 C 1.78076171875 367.6921997070313 2.947998046875 374.5614929199219 4.745758056640625 381.2050170898438 C 6.50323486328125 387.6998291015625 8.88568115234375 394.063232421875 11.82699584960938 400.1185607910156 C 14.72329711914063 406.0811767578125 18.19400024414063 411.81298828125 22.142822265625 417.1546325683594 C 26.0631103515625 422.4578857421875 30.49493408203125 427.4313659667969 35.315185546875 431.9369506835938 C 55.36529541015625 450.6785583496094 81.53375244140625 461 109 461 L 481 461 L 481 1.00152587890625 M 482 0 L 482 462 L 109 462 C 51.51043701171875 462 4.415985107421875 417.4931335449219 0.279052734375 360.8606262207031 C 0.09881591796875 358.3958740234375 0 355.7094421386719 0 353 L -0.6820068359375 0.73138427734375 L 482 0 Z" stroke="none" fill="#4c2c68"/></g><path d="M-.682.731,482,0V462H109A109.053,109.053,0,0,1,.279,360.861C.1,358.4,0,355.709,0,353Z" transform="translate(-211.071 2976.497) rotate(-135)" fill="#261634"/></g></svg>