<svg xmlns="http://www.w3.org/2000/svg" width="409.62" height="371.894" viewBox="0 0 409.62 371.894"><ellipse cx="75.683" cy="10.987" rx="75.683" ry="10.987" transform="translate(0 349.92)" fill="#e6e6e6"/><path d="M426.929,472.464c-9.046-.766-20.833-7.446-20.057-18.927.385-5.694,4.255-9.87,8.457-12.8,5.812-4.053,12.762-6.225,19.577-7.458,7.86-1.423,15.878-1.6,23.854-1.727,7.874-.122,15.734-.34,23.586-.887a365.616,365.616,0,0,0,46.061-6.178,362.806,362.806,0,0,0,44.047-11.679q10.736-3.587,21.243-7.882a173.524,173.524,0,0,0,19.285-8.92c8.168-4.582,21.3-13.124,18.494-25.271-1.49-6.441-6.857-11.019-12.051-14.012-6.28-3.619-13.251-5.616-20.075-7.547-31.741-8.985-63.52-17.807-95.279-26.71-7.412-2.078-14.86-4.068-22.136-6.694-6.812-2.458-13.667-5.457-19.51-10.1-5.1-4.051-9.946-9.762-10.75-16.77-.668-5.812,1.868-11.163,5.291-15.369,8.475-10.414,21.707-15.962,33.855-19.575,15.093-4.488,30.737-6.593,45.851-11,12.2-3.558,25.026-8.974,34.011-18.815,3.445-3.773,6.306-8.416,7.047-13.782a20.953,20.953,0,0,0-3.823-14.705c-3.475-5.029-8.436-8.739-13.516-11.639a73.625,73.625,0,0,0-19.109-7.382c-14.411-3.52-29.178-4.37-43.753-6.6-7.148-1.091-14.391-2.369-21.244-4.978-5.806-2.21-12.233-5.379-16.04-10.869-7.854-11.328,5.973-20.585,13.992-24.467a128.9,128.9,0,0,1,17-6.519c1.235-.4.416-2.4-.813-2.01a123.781,123.781,0,0,0-17.842,6.933c-4.826,2.417-9.738,5.4-13.183,9.855a14.72,14.72,0,0,0-2.779,13.512c1.843,5.7,7.028,9.575,11.767,12.252,6.267,3.54,13.128,5.477,20.009,6.881,7.247,1.479,14.568,2.406,21.882,3.3,14.615,1.78,29.809,3.072,43.615,9.2,9.657,4.287,23.161,12.947,21.924,26.115-.549,5.845-3.947,10.817-7.819,14.66a59.848,59.848,0,0,1-16.071,10.97c-26.971,13.185-58.955,10.7-84.743,27.136-8.768,5.59-19.064,15-17.479,27.4.823,6.441,4.753,11.918,9.254,16.059,5.392,4.959,11.954,8.278,18.528,10.9a210.431,210.431,0,0,0,21.288,6.832q11.949,3.357,23.9,6.7l48.359,13.556,24.028,6.735c7.333,2.056,14.828,3.965,21.722,7.507,5.645,2.9,12.537,7.977,13,15.378.37,5.877-3.755,10.713-7.663,14.1-5.061,4.388-10.981,7.585-16.923,10.379-6.854,3.223-13.878,6.079-20.941,8.747a352.766,352.766,0,0,1-44.589,13.521,366.713,366.713,0,0,1-46.116,7.69q-11.768,1.2-23.6,1.622c-8.133.29-16.291.145-24.41.689a77.517,77.517,0,0,0-21.63,4.154c-5.806,2.131-11.81,5.342-15.73,10.553a16.39,16.39,0,0,0-3.042,13,20.213,20.213,0,0,0,7.18,11.5,26.046,26.046,0,0,0,14.359,5.581c1.292.109,1.547-2.044.249-2.154Z" transform="translate(-307.248 -115.863)" fill="#e6e6e6"/><path d="M113.169,103.449l-.549,13.734,17.58,12.086,2.747-25.82Z" transform="translate(-50.75 -46.617)" fill="#ffb9b9"/><path d="M408.149,342.974l6.043,17.58,12.086,41.752s12.086,20.327,1.648,20.876-8.241-18.129-8.241-18.129l-17.03-29.666-3.846-31.314Z" transform="translate(-304.527 -215.824)" fill="#ffb9b9"/><path d="M393.7,714.636s4.01,10.942,8.1,16.229-2.2,8.668-2.2,8.668l-19.979-2.359s1.2-17.487-.357-20.39Z" transform="translate(-295.719 -383.306)" fill="#ffb9b9"/><path d="M397.293,745.287s3.206-7.96,5.026-4.573,9.073,7.6,9.073,7.6,19.271,3.363,4.942,9.194-23.33.689-23.33.689-13.507.4-15.067-2.5-2.006-14.062.806-12.369S394.239,750.047,397.293,745.287Z" transform="translate(-294.563 -394.68)" fill="#2f2e41"/><path d="M317.884,684.918s-1.648,11.537-.549,18.129-6.043,6.592-6.043,6.592L294.81,698.1s9.339-14.833,9.339-18.129Z" transform="translate(-257.662 -367.686)" fill="#ffb9b9"/><path d="M363.592,451.708S359.2,505,350.408,524.774s-22.524,58.233-22.524,58.233l-23.073-8.24s10.987-49.993,20.876-57.134l6.592-79.658Z" transform="translate(-262.168 -258.634)" fill="#2f2e41"/><path d="M361.266,452.009l-7.691,29.117L370.056,589.9l-20.876,4.944L322.81,472.336s-8.241-15.932-3.3-31.314S361.266,452.009,361.266,452.009Z" transform="translate(-268.082 -257.836)" fill="#2f2e41"/><path d="M309.785,714.945s6.592-5.494,6.592-1.648,4.395,10.987,4.395,10.987,15.382,12.086,0,10.438S299.9,724.284,299.9,724.284s-12.086-6.043-12.086-9.339,4.891-13.336,6.566-10.513S304.84,717.691,309.785,714.945Z" transform="translate(-254.507 -378.485)" fill="#2f2e41"/><circle cx="16.481" cy="16.481" r="16.481" transform="translate(55.277 31.011)" fill="#ffb9b9"/><path d="M319.785,227.974l17.58,13.734,3.3-7.691,3.846,6.592s19.228,10.438,19.228,14.833.549,101.633.549,101.633-17.03,16.481-33.511-6.592S308.8,362.02,308.8,362.02l-4.4-67.572L297.81,250.5A13.159,13.159,0,0,1,302.2,246.1c3.3-2.2,14.833-10.987,14.833-10.987Z" transform="translate(-259.014 -164.001)" fill="#6c63ff"/><path d="M177.719,160.449l7.142,2.747,6.592,37.357-14.833,3.3Z" transform="translate(-79.591 -72.303)" fill="#6c63ff"/><path d="M273.754,338.974l-4.944,25.271,33.512,34.061s8.241,16.481,14.833,9.339-11.537-16.481-11.537-16.481L284.742,357.1l4.944-12.086Z" transform="translate(-245.945 -214.021)" fill="#ffb9b9"/><path d="M322.237,165.428s-3.053-6.717,4.885-9.771c0,0,6.717-10.992,20.152-3.664,0,0,9.16,3.664,9.16,13.435s3.053,11.6,3.053,11.6-4.547-4.665-5.768-8.329-10.72-4.5-14.384-.831-12.824,3.053-12.824,3.053l.611,13.435s-3.053-7.939-4.275-7.939S320.4,165.428,322.237,165.428Z" transform="translate(-269.6 -128.627)" fill="#2f2e41"/><path d="M64.947,157.449H58.9L44.62,199.2,64.4,205.244l10.987-27.468Z" transform="translate(-20.107 -70.952)" fill="#6c63ff"/><path d="M123.054,523.291l-6.934-51.342,9.905,43.356Z" transform="translate(-52.327 -212.675)" opacity="0.3"/><path d="M446.318,471.417a1.925,1.925,0,0,0-1.923,1.923V579.674a1.925,1.925,0,0,0,1.923,1.923H732.767a1.925,1.925,0,0,0,1.923-1.923V473.34a1.925,1.925,0,0,0-1.923-1.923Z" transform="translate(-325.069 -273.704)" fill="#e6e6e6"/><path d="M463.352,486.3a1.375,1.375,0,0,0-1.373,1.373v91.082a1.375,1.375,0,0,0,1.373,1.373H731.58a1.375,1.375,0,0,0,1.374-1.373V487.672a1.375,1.375,0,0,0-1.374-1.373Z" transform="translate(-332.993 -280.41)" fill="#fff"/><path d="M550.752,252.276a3.348,3.348,0,0,0-3.3,3.391v76.859a3.348,3.348,0,0,0,3.3,3.391H721.606a3.348,3.348,0,0,0,3.3-3.391v-76.86a3.348,3.348,0,0,0-3.3-3.391Z" transform="translate(-371.512 -174.952)" fill="#e6e6e6"/><path d="M550.752,111.526a3.531,3.531,0,0,0-3.3,3.72v53.54a3.531,3.531,0,0,0,3.3,3.72H721.606a3.531,3.531,0,0,0,3.3-3.72v-53.54a3.531,3.531,0,0,0-3.3-3.72Z" transform="translate(-371.512 -111.526)" fill="#e6e6e6"/><rect width="135.145" height="7.691" transform="translate(197.095 13.872)" fill="#fff"/><rect width="135.145" height="3.571" transform="translate(197.369 30.078)" fill="#fff"/><rect width="135.145" height="3.571" transform="translate(197.369 42.713)" fill="#fff"/><path d="M658.358,351.529h62.195a2,2,0,0,0,1.416-3.418l-39.805-39.805a2,2,0,0,0-2.831,0l-9.9,9.9a4.2,4.2,0,0,1-5.939,0l-31-31a2,2,0,0,0-2.832,0l-60.636,60.635a2,2,0,0,0,1.416,3.418h88Z" transform="translate(-380.967 -190.426)" fill="#fff"/><circle cx="7.691" cy="7.691" r="7.691" transform="translate(195.721 87.762)" fill="#fff"/><path d="M540.634,582.974a.825.825,0,0,0-.824.824v5.494a.825.825,0,0,0,.824.824H728.518a.825.825,0,0,0,.824-.824V583.8a.825.825,0,0,0-.824-.824Z" transform="translate(-368.066 -323.975)" fill="#e6e6e6"/><path d="M550.752,437.276a3.348,3.348,0,0,0-3.3,3.391v76.859a3.348,3.348,0,0,0,3.3,3.391H721.606a3.348,3.348,0,0,0,3.3-3.391v-76.86a3.348,3.348,0,0,0-3.3-3.391Z" transform="translate(-371.512 -258.319)" fill="#3f3d56"/><path d="M658.358,536.529h62.195a2,2,0,0,0,1.416-3.418l-39.805-39.805a2.005,2.005,0,0,0-2.831,0l-9.9,9.9a4.2,4.2,0,0,1-5.939,0l-31-31a2.006,2.006,0,0,0-2.832,0l-60.636,60.636a2,2,0,0,0,1.416,3.418h88Z" transform="translate(-380.967 -273.793)" fill="#6c63ff"/><circle cx="7.691" cy="7.691" r="7.691" transform="translate(195.721 189.395)" fill="#6c63ff"/><path d="M27.192,30.788l15.594-27A33.69,33.69,0,0,0,35.691,3,32.639,32.639,0,0,0,15.03,10.356L27,31.115Zm39.687-4.9A32.773,32.773,0,0,0,47.264,5.158L35.3,25.884h31.58Zm.85,3.269H43.243l.948,1.635,15.561,26.97a32.4,32.4,0,0,0,8.631-22.067A33.1,33.1,0,0,0,67.729,29.153ZM24.38,35.691,11.631,13.625A32.553,32.553,0,0,0,3,35.691a33.1,33.1,0,0,0,.654,6.538H28.14l-3.76-6.538ZM4.5,45.5A32.773,32.773,0,0,0,24.119,66.225L36.084,45.5H4.5Zm36.843,0L28.6,67.6a33.69,33.69,0,0,0,7.094.785,32.639,32.639,0,0,0,20.661-7.356L44.387,40.268,41.347,45.5Z" transform="translate(232.95 186.395)" fill="#b6b2fc"/></svg>