<svg xmlns="http://www.w3.org/2000/svg" width="1208.968" height="692.356" viewBox="0 0 1208.968 692.356"><g transform="translate(64.268 44.176)"><path d="M831.8,112.878l23.847,13.768v30.737L831.8,143.614V112.878Zm24.344-14.63,23.847,13.769-23.35,13.48-.5.288-.5-.288-23.351-13.48Zm24.343,43.945v1.421l-23.846,13.769V126.646l23.846-13.768ZM831.8,144.764l23.847,13.765.137.079a.716.716,0,0,0,.719,0l.138-.079,23.846-13.765.636-.367a.714.714,0,0,0,.358-.62V112.142a.715.715,0,0,0-.358-.62l-.636-.366-23.908-13.8a.876.876,0,0,0-.872,0l-23.907,13.8-.636.366a.715.715,0,0,0-.358.62v31.635a.714.714,0,0,0,.358.62Z" fill="#ff327d"/><path d="M266.088,251.394l23.848,13.768V295.9L266.088,282.13V251.394Zm24.344-14.63,23.848,13.769-23.351,13.48-.5.288-.5-.288-23.351-13.48Zm24.344,43.945v1.421L290.929,295.9V265.162l23.847-13.768Zm-48.688,2.57,23.848,13.765.137.081a.721.721,0,0,0,.719,0l.137-.081,23.847-13.765.636-.366a.717.717,0,0,0,.358-.621V250.658a.717.717,0,0,0-.358-.62l-.636-.367-23.908-13.8a.871.871,0,0,0-.872,0l-23.908,13.8-.635.367a.715.715,0,0,0-.358.62v31.634a.715.715,0,0,0,.358.621Z" fill="#ff327d"/><path d="M459.088,511.993l-1.072-1.073,16.87-16.87,1.072,1.073Z"/><path d="M475.958,511.993l-1.072-1.073,16.87-16.87,1.073,1.073Z"/><path d="M492.829,511.993l-1.073-1.073,16.87-16.87,1.073,1.073Z"/><path d="M509.7,511.993l-1.073-1.073,16.87-16.87,1.073,1.073Z"/><path d="M526.569,511.993,525.5,510.92l16.87-16.87,1.073,1.073Z"/><path d="M-64.268,377.594V240.173H73.151Z" fill="#1b002a"/><path d="M543.439-35.412h86.707V51.295Z" fill="#411858"/><rect width="350.75" height="68.75" transform="translate(793.95 -44.176)" fill="#27023b"/><rect width="350.75" height="68.75" transform="translate(64.553 579.431)" fill="rgba(30,63,125,0.07)"/><path d="M829.128,538.845a1.514,1.514,0,1,0-1.515,1.513A1.515,1.515,0,0,0,829.128,538.845Z" fill="#1e3f7d" fill-rule="evenodd"/><path d="M829.128,528.654a1.514,1.514,0,1,0-1.515,1.515A1.514,1.514,0,0,0,829.128,528.654Z" fill="#1e3f7d" fill-rule="evenodd"/><path d="M829.128,518.466a1.514,1.514,0,1,0-1.515,1.513A1.515,1.515,0,0,0,829.128,518.466Z" fill="#1e3f7d" fill-rule="evenodd"/><path d="M829.128,508.274a1.514,1.514,0,1,0-1.515,1.515A1.514,1.514,0,0,0,829.128,508.274Z" fill="#1e3f7d" fill-rule="evenodd"/><path d="M829.128,498.085a1.514,1.514,0,1,0-1.515,1.514A1.515,1.515,0,0,0,829.128,498.085Z" fill="#1e3f7d" fill-rule="evenodd"/><path d="M829.128,487.895a1.514,1.514,0,1,0-1.515,1.514A1.514,1.514,0,0,0,829.128,487.895Z" fill="#1e3f7d" fill-rule="evenodd"/><path d="M819.114,538.845a1.514,1.514,0,1,0-1.514,1.513A1.514,1.514,0,0,0,819.114,538.845Z" fill="#1e3f7d" fill-rule="evenodd"/><path d="M819.114,528.654a1.514,1.514,0,1,0-1.514,1.515A1.513,1.513,0,0,0,819.114,528.654Z" fill="#1e3f7d" fill-rule="evenodd"/><path d="M819.114,518.466a1.514,1.514,0,1,0-1.514,1.513A1.514,1.514,0,0,0,819.114,518.466Z" fill="#1e3f7d" fill-rule="evenodd"/><path d="M819.114,508.274a1.514,1.514,0,1,0-1.514,1.515A1.513,1.513,0,0,0,819.114,508.274Z" fill="#1e3f7d" fill-rule="evenodd"/><path d="M819.114,498.085A1.514,1.514,0,1,0,817.6,499.6,1.514,1.514,0,0,0,819.114,498.085Z" fill="#1e3f7d" fill-rule="evenodd"/><path d="M819.114,487.895a1.514,1.514,0,1,0-1.514,1.514A1.514,1.514,0,0,0,819.114,487.895Z" fill="#1e3f7d" fill-rule="evenodd"/><path d="M809.1,538.845a1.514,1.514,0,1,0-1.514,1.513A1.514,1.514,0,0,0,809.1,538.845Z" fill="#1e3f7d" fill-rule="evenodd"/><path d="M809.1,528.654a1.514,1.514,0,1,0-1.514,1.515A1.513,1.513,0,0,0,809.1,528.654Z" fill="#1e3f7d" fill-rule="evenodd"/><path d="M809.1,518.466a1.514,1.514,0,1,0-1.514,1.513A1.515,1.515,0,0,0,809.1,518.466Z" fill="#1e3f7d" fill-rule="evenodd"/><path d="M809.1,508.274a1.514,1.514,0,1,0-1.514,1.515A1.513,1.513,0,0,0,809.1,508.274Z" fill="#1e3f7d" fill-rule="evenodd"/><path d="M809.1,498.085a1.514,1.514,0,1,0-1.514,1.514A1.515,1.515,0,0,0,809.1,498.085Z" fill="#1e3f7d" fill-rule="evenodd"/><path d="M809.1,487.895a1.514,1.514,0,1,0-1.514,1.514A1.514,1.514,0,0,0,809.1,487.895Z" fill="#1e3f7d" fill-rule="evenodd"/><path d="M799.086,538.845a1.514,1.514,0,1,0-1.515,1.513A1.515,1.515,0,0,0,799.086,538.845Z" fill="#1e3f7d" fill-rule="evenodd"/><path d="M799.086,528.654a1.514,1.514,0,1,0-1.515,1.515A1.514,1.514,0,0,0,799.086,528.654Z" fill="#1e3f7d" fill-rule="evenodd"/><path d="M799.086,518.466a1.514,1.514,0,1,0-1.515,1.513A1.515,1.515,0,0,0,799.086,518.466Z" fill="#1e3f7d" fill-rule="evenodd"/><path d="M799.086,508.274a1.514,1.514,0,1,0-1.515,1.515A1.514,1.514,0,0,0,799.086,508.274Z" fill="#1e3f7d" fill-rule="evenodd"/><path d="M799.086,498.085a1.514,1.514,0,1,0-1.515,1.514A1.515,1.515,0,0,0,799.086,498.085Z" fill="#1e3f7d" fill-rule="evenodd"/><path d="M799.086,487.895a1.514,1.514,0,1,0-1.515,1.514A1.514,1.514,0,0,0,799.086,487.895Z" fill="#1e3f7d" fill-rule="evenodd"/><path d="M789.072,538.845a1.514,1.514,0,1,0-1.514,1.513A1.514,1.514,0,0,0,789.072,538.845Z" fill="#1e3f7d" fill-rule="evenodd"/><path d="M789.072,528.654a1.514,1.514,0,1,0-1.514,1.515A1.513,1.513,0,0,0,789.072,528.654Z" fill="#1e3f7d" fill-rule="evenodd"/><path d="M789.072,518.466a1.514,1.514,0,1,0-1.514,1.513A1.514,1.514,0,0,0,789.072,518.466Z" fill="#1e3f7d" fill-rule="evenodd"/><path d="M789.072,508.274a1.514,1.514,0,1,0-1.514,1.515A1.513,1.513,0,0,0,789.072,508.274Z" fill="#1e3f7d" fill-rule="evenodd"/><path d="M789.072,498.085a1.514,1.514,0,1,0-1.514,1.514A1.514,1.514,0,0,0,789.072,498.085Z" fill="#1e3f7d" fill-rule="evenodd"/><path d="M789.072,487.895a1.514,1.514,0,1,0-1.514,1.514A1.514,1.514,0,0,0,789.072,487.895Z" fill="#1e3f7d" fill-rule="evenodd"/><path d="M779.058,538.845a1.514,1.514,0,1,0-1.514,1.513A1.514,1.514,0,0,0,779.058,538.845Z" fill="#1e3f7d" fill-rule="evenodd"/><path d="M779.058,528.654a1.514,1.514,0,1,0-1.514,1.515A1.513,1.513,0,0,0,779.058,528.654Z" fill="#1e3f7d" fill-rule="evenodd"/><path d="M779.058,518.466a1.514,1.514,0,1,0-1.514,1.513A1.515,1.515,0,0,0,779.058,518.466Z" fill="#1e3f7d" fill-rule="evenodd"/><path d="M779.058,508.274a1.514,1.514,0,1,0-1.514,1.515A1.513,1.513,0,0,0,779.058,508.274Z" fill="#1e3f7d" fill-rule="evenodd"/><path d="M779.058,498.085a1.514,1.514,0,1,0-1.514,1.514A1.515,1.515,0,0,0,779.058,498.085Z" fill="#1e3f7d" fill-rule="evenodd"/><path d="M779.058,487.895a1.514,1.514,0,1,0-1.514,1.514A1.514,1.514,0,0,0,779.058,487.895Z" fill="#1e3f7d" fill-rule="evenodd"/><path d="M769.044,538.845a1.514,1.514,0,1,0-1.515,1.513A1.515,1.515,0,0,0,769.044,538.845Z" fill="#1e3f7d" fill-rule="evenodd"/><path d="M769.044,528.654a1.514,1.514,0,1,0-1.515,1.515A1.514,1.514,0,0,0,769.044,528.654Z" fill="#1e3f7d" fill-rule="evenodd"/><path d="M769.044,518.466a1.514,1.514,0,1,0-1.515,1.513A1.515,1.515,0,0,0,769.044,518.466Z" fill="#1e3f7d" fill-rule="evenodd"/><path d="M769.044,508.274a1.514,1.514,0,1,0-1.515,1.515A1.514,1.514,0,0,0,769.044,508.274Z" fill="#1e3f7d" fill-rule="evenodd"/><path d="M769.044,498.085a1.514,1.514,0,1,0-1.515,1.514A1.516,1.516,0,0,0,769.044,498.085Z" fill="#1e3f7d" fill-rule="evenodd"/><path d="M769.044,487.895a1.514,1.514,0,1,0-1.515,1.514A1.515,1.515,0,0,0,769.044,487.895Z" fill="#1e3f7d" fill-rule="evenodd"/><path d="M759.03,538.845a1.515,1.515,0,1,0-1.514,1.513A1.514,1.514,0,0,0,759.03,538.845Z" fill="#1e3f7d" fill-rule="evenodd"/><path d="M759.03,528.654a1.515,1.515,0,1,0-1.514,1.515A1.513,1.513,0,0,0,759.03,528.654Z" fill="#1e3f7d" fill-rule="evenodd"/><path d="M759.03,518.466a1.515,1.515,0,1,0-1.514,1.513A1.515,1.515,0,0,0,759.03,518.466Z" fill="#1e3f7d" fill-rule="evenodd"/><path d="M759.03,508.274a1.515,1.515,0,1,0-1.514,1.515A1.513,1.513,0,0,0,759.03,508.274Z" fill="#1e3f7d" fill-rule="evenodd"/><path d="M759.03,498.085a1.515,1.515,0,1,0-1.514,1.514A1.515,1.515,0,0,0,759.03,498.085Z" fill="#1e3f7d" fill-rule="evenodd"/><path d="M759.03,487.895a1.515,1.515,0,1,0-1.514,1.514A1.514,1.514,0,0,0,759.03,487.895Z" fill="#1e3f7d" fill-rule="evenodd"/><path d="M749.016,538.845a1.514,1.514,0,1,0-1.515,1.513A1.515,1.515,0,0,0,749.016,538.845Z" fill="#1e3f7d" fill-rule="evenodd"/><path d="M749.016,528.654a1.514,1.514,0,1,0-1.515,1.515A1.514,1.514,0,0,0,749.016,528.654Z" fill="#1e3f7d" fill-rule="evenodd"/><path d="M749.016,518.466a1.514,1.514,0,1,0-1.515,1.513A1.515,1.515,0,0,0,749.016,518.466Z" fill="#1e3f7d" fill-rule="evenodd"/><path d="M749.016,508.274a1.514,1.514,0,1,0-1.515,1.515A1.514,1.514,0,0,0,749.016,508.274Z" fill="#1e3f7d" fill-rule="evenodd"/><path d="M749.016,498.085A1.514,1.514,0,1,0,747.5,499.6,1.515,1.515,0,0,0,749.016,498.085Z" fill="#1e3f7d" fill-rule="evenodd"/><path d="M749.016,487.895a1.514,1.514,0,1,0-1.515,1.514A1.514,1.514,0,0,0,749.016,487.895Z" fill="#1e3f7d" fill-rule="evenodd"/><path d="M739,538.845a1.514,1.514,0,1,0-1.515,1.513A1.515,1.515,0,0,0,739,538.845Z" fill="#1e3f7d" fill-rule="evenodd"/><path d="M739,528.654a1.514,1.514,0,1,0-1.515,1.515A1.514,1.514,0,0,0,739,528.654Z" fill="#1e3f7d" fill-rule="evenodd"/><path d="M739,518.466a1.514,1.514,0,1,0-1.515,1.513A1.515,1.515,0,0,0,739,518.466Z" fill="#1e3f7d" fill-rule="evenodd"/><path d="M739,508.274a1.514,1.514,0,1,0-1.515,1.515A1.514,1.514,0,0,0,739,508.274Z" fill="#1e3f7d" fill-rule="evenodd"/><path d="M739,498.085a1.514,1.514,0,1,0-1.515,1.514A1.516,1.516,0,0,0,739,498.085Z" fill="#1e3f7d" fill-rule="evenodd"/><path d="M739,487.895a1.514,1.514,0,1,0-1.515,1.514A1.515,1.515,0,0,0,739,487.895Z" fill="#1e3f7d" fill-rule="evenodd"/><path d="M728.987,538.845a1.514,1.514,0,1,0-1.513,1.513A1.514,1.514,0,0,0,728.987,538.845Z" fill="#1e3f7d" fill-rule="evenodd"/><path d="M728.987,528.654a1.514,1.514,0,1,0-1.513,1.515A1.512,1.512,0,0,0,728.987,528.654Z" fill="#1e3f7d" fill-rule="evenodd"/><path d="M728.987,518.466a1.514,1.514,0,1,0-1.513,1.513A1.514,1.514,0,0,0,728.987,518.466Z" fill="#1e3f7d" fill-rule="evenodd"/><path d="M728.987,508.274a1.514,1.514,0,1,0-1.513,1.515A1.512,1.512,0,0,0,728.987,508.274Z" fill="#1e3f7d" fill-rule="evenodd"/><path d="M728.987,498.085a1.514,1.514,0,1,0-1.513,1.514A1.514,1.514,0,0,0,728.987,498.085Z" fill="#1e3f7d" fill-rule="evenodd"/><path d="M728.987,487.895a1.514,1.514,0,1,0-1.513,1.514A1.513,1.513,0,0,0,728.987,487.895Z" fill="#1e3f7d" fill-rule="evenodd"/><path d="M718.974,538.845a1.514,1.514,0,1,0-1.515,1.513A1.515,1.515,0,0,0,718.974,538.845Z" fill="#1e3f7d" fill-rule="evenodd"/><path d="M718.974,528.654a1.514,1.514,0,1,0-1.515,1.515A1.514,1.514,0,0,0,718.974,528.654Z" fill="#1e3f7d" fill-rule="evenodd"/><path d="M718.974,518.466a1.514,1.514,0,1,0-1.515,1.513A1.515,1.515,0,0,0,718.974,518.466Z" fill="#1e3f7d" fill-rule="evenodd"/><path d="M718.974,508.274a1.514,1.514,0,1,0-1.515,1.515A1.514,1.514,0,0,0,718.974,508.274Z" fill="#1e3f7d" fill-rule="evenodd"/><path d="M718.974,498.085a1.514,1.514,0,1,0-1.515,1.514A1.515,1.515,0,0,0,718.974,498.085Z" fill="#1e3f7d" fill-rule="evenodd"/><path d="M718.974,487.895a1.514,1.514,0,1,0-1.515,1.514A1.514,1.514,0,0,0,718.974,487.895Z" fill="#1e3f7d" fill-rule="evenodd"/><path d="M708.959,538.845a1.514,1.514,0,1,0-1.514,1.513A1.514,1.514,0,0,0,708.959,538.845Z" fill="#1e3f7d" fill-rule="evenodd"/><path d="M708.959,528.654a1.514,1.514,0,1,0-1.514,1.515A1.513,1.513,0,0,0,708.959,528.654Z" fill="#1e3f7d" fill-rule="evenodd"/><path d="M708.959,518.466a1.514,1.514,0,1,0-1.514,1.513A1.515,1.515,0,0,0,708.959,518.466Z" fill="#1e3f7d" fill-rule="evenodd"/><path d="M708.959,508.274a1.514,1.514,0,1,0-1.514,1.515A1.513,1.513,0,0,0,708.959,508.274Z" fill="#1e3f7d" fill-rule="evenodd"/><path d="M708.959,498.085a1.514,1.514,0,1,0-1.514,1.514A1.515,1.515,0,0,0,708.959,498.085Z" fill="#1e3f7d" fill-rule="evenodd"/><path d="M708.959,487.895a1.514,1.514,0,1,0-1.514,1.514A1.514,1.514,0,0,0,708.959,487.895Z" fill="#1e3f7d" fill-rule="evenodd"/><path d="M698.945,538.845a1.514,1.514,0,1,0-1.513,1.513A1.514,1.514,0,0,0,698.945,538.845Z" fill="#1e3f7d" fill-rule="evenodd"/><path d="M698.945,528.654a1.514,1.514,0,1,0-1.513,1.515A1.512,1.512,0,0,0,698.945,528.654Z" fill="#1e3f7d" fill-rule="evenodd"/><path d="M698.945,518.466a1.514,1.514,0,1,0-1.513,1.513A1.514,1.514,0,0,0,698.945,518.466Z" fill="#1e3f7d" fill-rule="evenodd"/><path d="M698.945,508.274a1.514,1.514,0,1,0-1.513,1.515A1.512,1.512,0,0,0,698.945,508.274Z" fill="#1e3f7d" fill-rule="evenodd"/><path d="M698.945,498.085a1.514,1.514,0,1,0-1.513,1.514A1.514,1.514,0,0,0,698.945,498.085Z" fill="#1e3f7d" fill-rule="evenodd"/><path d="M698.945,487.895a1.514,1.514,0,1,0-1.513,1.514A1.513,1.513,0,0,0,698.945,487.895Z" fill="#1e3f7d" fill-rule="evenodd"/><path d="M688.932,538.845a1.515,1.515,0,1,0-1.515,1.513A1.515,1.515,0,0,0,688.932,538.845Z" fill="#1e3f7d" fill-rule="evenodd"/><path d="M688.932,528.654a1.515,1.515,0,1,0-1.515,1.515A1.514,1.514,0,0,0,688.932,528.654Z" fill="#1e3f7d" fill-rule="evenodd"/><path d="M688.932,518.466a1.515,1.515,0,1,0-1.515,1.513A1.515,1.515,0,0,0,688.932,518.466Z" fill="#1e3f7d" fill-rule="evenodd"/><path d="M688.932,508.274a1.515,1.515,0,1,0-1.515,1.515A1.514,1.514,0,0,0,688.932,508.274Z" fill="#1e3f7d" fill-rule="evenodd"/><path d="M688.932,498.085a1.515,1.515,0,1,0-1.515,1.514A1.515,1.515,0,0,0,688.932,498.085Z" fill="#1e3f7d" fill-rule="evenodd"/><path d="M688.932,487.895a1.515,1.515,0,1,0-1.515,1.514A1.514,1.514,0,0,0,688.932,487.895Z" fill="#1e3f7d" fill-rule="evenodd"/><path d="M678.917,538.845a1.514,1.514,0,1,0-1.514,1.513A1.514,1.514,0,0,0,678.917,538.845Z" fill="#1e3f7d" fill-rule="evenodd"/><path d="M678.917,528.654a1.514,1.514,0,1,0-1.514,1.515A1.513,1.513,0,0,0,678.917,528.654Z" fill="#1e3f7d" fill-rule="evenodd"/><path d="M678.917,518.466a1.514,1.514,0,1,0-1.514,1.513A1.515,1.515,0,0,0,678.917,518.466Z" fill="#1e3f7d" fill-rule="evenodd"/><path d="M678.917,508.274a1.514,1.514,0,1,0-1.514,1.515A1.513,1.513,0,0,0,678.917,508.274Z" fill="#1e3f7d" fill-rule="evenodd"/><path d="M678.917,498.085A1.514,1.514,0,1,0,677.4,499.6,1.515,1.515,0,0,0,678.917,498.085Z" fill="#1e3f7d" fill-rule="evenodd"/><path d="M678.917,487.895a1.514,1.514,0,1,0-1.514,1.514A1.514,1.514,0,0,0,678.917,487.895Z" fill="#1e3f7d" fill-rule="evenodd"/><path d="M668.9,538.845a1.514,1.514,0,1,0-1.514,1.513A1.514,1.514,0,0,0,668.9,538.845Z" fill="#1e3f7d" fill-rule="evenodd"/><path d="M668.9,528.654a1.514,1.514,0,1,0-1.514,1.515A1.513,1.513,0,0,0,668.9,528.654Z" fill="#1e3f7d" fill-rule="evenodd"/><path d="M668.9,518.466a1.514,1.514,0,1,0-1.514,1.513A1.514,1.514,0,0,0,668.9,518.466Z" fill="#1e3f7d" fill-rule="evenodd"/><path d="M668.9,508.274a1.514,1.514,0,1,0-1.514,1.515A1.513,1.513,0,0,0,668.9,508.274Z" fill="#1e3f7d" fill-rule="evenodd"/><path d="M668.9,498.085a1.514,1.514,0,1,0-1.514,1.514A1.514,1.514,0,0,0,668.9,498.085Z" fill="#1e3f7d" fill-rule="evenodd"/><path d="M668.9,487.895a1.514,1.514,0,1,0-1.514,1.514A1.514,1.514,0,0,0,668.9,487.895Z" fill="#1e3f7d" fill-rule="evenodd"/><path d="M658.89,538.845a1.515,1.515,0,1,0-1.515,1.513A1.515,1.515,0,0,0,658.89,538.845Z" fill="#1e3f7d" fill-rule="evenodd"/><path d="M658.89,528.654a1.515,1.515,0,1,0-1.515,1.515A1.514,1.514,0,0,0,658.89,528.654Z" fill="#1e3f7d" fill-rule="evenodd"/><path d="M658.89,518.466a1.515,1.515,0,1,0-1.515,1.513A1.515,1.515,0,0,0,658.89,518.466Z" fill="#1e3f7d" fill-rule="evenodd"/><path d="M658.89,508.274a1.515,1.515,0,1,0-1.515,1.515A1.514,1.514,0,0,0,658.89,508.274Z" fill="#1e3f7d" fill-rule="evenodd"/><path d="M658.89,498.085a1.515,1.515,0,1,0-1.515,1.514A1.516,1.516,0,0,0,658.89,498.085Z" fill="#1e3f7d" fill-rule="evenodd"/><path d="M658.89,487.895a1.515,1.515,0,1,0-1.515,1.514A1.515,1.515,0,0,0,658.89,487.895Z" fill="#1e3f7d" fill-rule="evenodd"/><path d="M909.24,538.845a1.514,1.514,0,1,0-1.513,1.513A1.514,1.514,0,0,0,909.24,538.845Z" fill="#1e3f7d" fill-rule="evenodd"/><path d="M909.24,528.654a1.514,1.514,0,1,0-1.513,1.515A1.512,1.512,0,0,0,909.24,528.654Z" fill="#1e3f7d" fill-rule="evenodd"/><path d="M909.24,518.466a1.514,1.514,0,1,0-1.513,1.513A1.514,1.514,0,0,0,909.24,518.466Z" fill="#1e3f7d" fill-rule="evenodd"/><path d="M909.24,508.274a1.514,1.514,0,1,0-1.513,1.515A1.512,1.512,0,0,0,909.24,508.274Z" fill="#1e3f7d" fill-rule="evenodd"/><path d="M909.24,498.085a1.514,1.514,0,1,0-1.513,1.514A1.514,1.514,0,0,0,909.24,498.085Z" fill="#1e3f7d" fill-rule="evenodd"/><path d="M909.24,487.895a1.514,1.514,0,1,0-1.513,1.514A1.513,1.513,0,0,0,909.24,487.895Z" fill="#1e3f7d" fill-rule="evenodd"/><path d="M899.227,538.845a1.514,1.514,0,1,0-1.515,1.513A1.515,1.515,0,0,0,899.227,538.845Z" fill="#1e3f7d" fill-rule="evenodd"/><path d="M899.227,528.654a1.514,1.514,0,1,0-1.515,1.515A1.514,1.514,0,0,0,899.227,528.654Z" fill="#1e3f7d" fill-rule="evenodd"/><path d="M899.227,518.466a1.514,1.514,0,1,0-1.515,1.513A1.515,1.515,0,0,0,899.227,518.466Z" fill="#1e3f7d" fill-rule="evenodd"/><path d="M899.227,508.274a1.514,1.514,0,1,0-1.515,1.515A1.514,1.514,0,0,0,899.227,508.274Z" fill="#1e3f7d" fill-rule="evenodd"/><path d="M899.227,498.085a1.514,1.514,0,1,0-1.515,1.514A1.515,1.515,0,0,0,899.227,498.085Z" fill="#1e3f7d" fill-rule="evenodd"/><path d="M899.227,487.895a1.514,1.514,0,1,0-1.515,1.514A1.514,1.514,0,0,0,899.227,487.895Z" fill="#1e3f7d" fill-rule="evenodd"/><path d="M889.212,538.845a1.514,1.514,0,1,0-1.514,1.513A1.514,1.514,0,0,0,889.212,538.845Z" fill="#1e3f7d" fill-rule="evenodd"/><path d="M889.212,528.654a1.514,1.514,0,1,0-1.514,1.515A1.513,1.513,0,0,0,889.212,528.654Z" fill="#1e3f7d" fill-rule="evenodd"/><path d="M889.212,518.466a1.514,1.514,0,1,0-1.514,1.513A1.515,1.515,0,0,0,889.212,518.466Z" fill="#1e3f7d" fill-rule="evenodd"/><path d="M889.212,508.274a1.514,1.514,0,1,0-1.514,1.515A1.513,1.513,0,0,0,889.212,508.274Z" fill="#1e3f7d" fill-rule="evenodd"/><path d="M889.212,498.085A1.514,1.514,0,1,0,887.7,499.6,1.515,1.515,0,0,0,889.212,498.085Z" fill="#1e3f7d" fill-rule="evenodd"/><path d="M889.212,487.895a1.514,1.514,0,1,0-1.514,1.514A1.514,1.514,0,0,0,889.212,487.895Z" fill="#1e3f7d" fill-rule="evenodd"/><path d="M879.2,538.845a1.514,1.514,0,1,0-1.513,1.513A1.514,1.514,0,0,0,879.2,538.845Z" fill="#1e3f7d" fill-rule="evenodd"/><path d="M879.2,528.654a1.514,1.514,0,1,0-1.513,1.515A1.512,1.512,0,0,0,879.2,528.654Z" fill="#1e3f7d" fill-rule="evenodd"/><path d="M879.2,518.466a1.514,1.514,0,1,0-1.513,1.513A1.514,1.514,0,0,0,879.2,518.466Z" fill="#1e3f7d" fill-rule="evenodd"/><path d="M879.2,508.274a1.514,1.514,0,1,0-1.513,1.515A1.512,1.512,0,0,0,879.2,508.274Z" fill="#1e3f7d" fill-rule="evenodd"/><path d="M879.2,498.085a1.514,1.514,0,1,0-1.513,1.514A1.514,1.514,0,0,0,879.2,498.085Z" fill="#1e3f7d" fill-rule="evenodd"/><path d="M879.2,487.895a1.514,1.514,0,1,0-1.513,1.514A1.513,1.513,0,0,0,879.2,487.895Z" fill="#1e3f7d" fill-rule="evenodd"/><path d="M869.185,538.845a1.515,1.515,0,1,0-1.515,1.513A1.515,1.515,0,0,0,869.185,538.845Z" fill="#1e3f7d" fill-rule="evenodd"/><path d="M869.185,528.654a1.515,1.515,0,1,0-1.515,1.515A1.514,1.514,0,0,0,869.185,528.654Z" fill="#1e3f7d" fill-rule="evenodd"/><path d="M869.185,518.466a1.515,1.515,0,1,0-1.515,1.513A1.515,1.515,0,0,0,869.185,518.466Z" fill="#1e3f7d" fill-rule="evenodd"/><path d="M869.185,508.274a1.515,1.515,0,1,0-1.515,1.515A1.514,1.514,0,0,0,869.185,508.274Z" fill="#1e3f7d" fill-rule="evenodd"/><path d="M869.185,498.085a1.515,1.515,0,1,0-1.515,1.514A1.515,1.515,0,0,0,869.185,498.085Z" fill="#1e3f7d" fill-rule="evenodd"/><path d="M869.185,487.895a1.515,1.515,0,1,0-1.515,1.514A1.514,1.514,0,0,0,869.185,487.895Z" fill="#1e3f7d" fill-rule="evenodd"/><path d="M859.17,538.845a1.514,1.514,0,1,0-1.514,1.513A1.514,1.514,0,0,0,859.17,538.845Z" fill="#1e3f7d" fill-rule="evenodd"/><path d="M859.17,528.654a1.514,1.514,0,1,0-1.514,1.515A1.513,1.513,0,0,0,859.17,528.654Z" fill="#1e3f7d" fill-rule="evenodd"/><path d="M859.17,518.466a1.514,1.514,0,1,0-1.514,1.513A1.515,1.515,0,0,0,859.17,518.466Z" fill="#1e3f7d" fill-rule="evenodd"/><path d="M859.17,508.274a1.514,1.514,0,1,0-1.514,1.515A1.513,1.513,0,0,0,859.17,508.274Z" fill="#1e3f7d" fill-rule="evenodd"/><path d="M859.17,498.085a1.514,1.514,0,1,0-1.514,1.514A1.515,1.515,0,0,0,859.17,498.085Z" fill="#1e3f7d" fill-rule="evenodd"/><path d="M859.17,487.895a1.514,1.514,0,1,0-1.514,1.514A1.514,1.514,0,0,0,859.17,487.895Z" fill="#1e3f7d" fill-rule="evenodd"/><path d="M849.156,538.845a1.514,1.514,0,1,0-1.514,1.513A1.514,1.514,0,0,0,849.156,538.845Z" fill="#1e3f7d" fill-rule="evenodd"/><path d="M849.156,528.654a1.514,1.514,0,1,0-1.514,1.515A1.513,1.513,0,0,0,849.156,528.654Z" fill="#1e3f7d" fill-rule="evenodd"/><path d="M849.156,518.466a1.514,1.514,0,1,0-1.514,1.513A1.514,1.514,0,0,0,849.156,518.466Z" fill="#1e3f7d" fill-rule="evenodd"/><path d="M849.156,508.274a1.514,1.514,0,1,0-1.514,1.515A1.513,1.513,0,0,0,849.156,508.274Z" fill="#1e3f7d" fill-rule="evenodd"/><path d="M849.156,498.085a1.514,1.514,0,1,0-1.514,1.514A1.514,1.514,0,0,0,849.156,498.085Z" fill="#1e3f7d" fill-rule="evenodd"/><path d="M849.156,487.895a1.514,1.514,0,1,0-1.514,1.514A1.514,1.514,0,0,0,849.156,487.895Z" fill="#1e3f7d" fill-rule="evenodd"/><path d="M839.143,538.845a1.515,1.515,0,1,0-1.515,1.513A1.515,1.515,0,0,0,839.143,538.845Z" fill="#1e3f7d" fill-rule="evenodd"/><path d="M839.143,528.654a1.515,1.515,0,1,0-1.515,1.515A1.514,1.514,0,0,0,839.143,528.654Z" fill="#1e3f7d" fill-rule="evenodd"/><path d="M839.143,518.466a1.515,1.515,0,1,0-1.515,1.513A1.515,1.515,0,0,0,839.143,518.466Z" fill="#1e3f7d" fill-rule="evenodd"/><path d="M839.143,508.274a1.515,1.515,0,1,0-1.515,1.515A1.514,1.514,0,0,0,839.143,508.274Z" fill="#1e3f7d" fill-rule="evenodd"/><path d="M839.143,498.085a1.515,1.515,0,1,0-1.515,1.514A1.516,1.516,0,0,0,839.143,498.085Z" fill="#1e3f7d" fill-rule="evenodd"/><path d="M839.143,487.895a1.515,1.515,0,1,0-1.515,1.514A1.515,1.515,0,0,0,839.143,487.895Z" fill="#1e3f7d" fill-rule="evenodd"/><path d="M183.306,127.135a1.514,1.514,0,1,0-1.514,1.514A1.514,1.514,0,0,0,183.306,127.135Z" fill="#1e3f7d" fill-rule="evenodd"/><path d="M183.306,116.945a1.514,1.514,0,1,0-1.514,1.514A1.514,1.514,0,0,0,183.306,116.945Z" fill="#1e3f7d" fill-rule="evenodd"/><path d="M183.306,106.755a1.514,1.514,0,1,0-1.514,1.514A1.514,1.514,0,0,0,183.306,106.755Z" fill="#1e3f7d" fill-rule="evenodd"/><path d="M183.306,96.565a1.514,1.514,0,1,0-1.514,1.515A1.514,1.514,0,0,0,183.306,96.565Z" fill="#1e3f7d" fill-rule="evenodd"/><path d="M183.306,86.375a1.514,1.514,0,1,0-1.514,1.515A1.515,1.515,0,0,0,183.306,86.375Z" fill="#1e3f7d" fill-rule="evenodd"/><path d="M183.306,76.186a1.514,1.514,0,1,0-1.514,1.514A1.515,1.515,0,0,0,183.306,76.186Z" fill="#1e3f7d" fill-rule="evenodd"/><path d="M173.292,127.135a1.514,1.514,0,1,0-1.514,1.514A1.514,1.514,0,0,0,173.292,127.135Z" fill="#1e3f7d" fill-rule="evenodd"/><path d="M173.292,116.945a1.514,1.514,0,1,0-1.514,1.514A1.514,1.514,0,0,0,173.292,116.945Z" fill="#1e3f7d" fill-rule="evenodd"/><path d="M173.292,106.755a1.514,1.514,0,1,0-1.514,1.514A1.514,1.514,0,0,0,173.292,106.755Z" fill="#1e3f7d" fill-rule="evenodd"/><path d="M173.292,96.565a1.514,1.514,0,1,0-1.514,1.515A1.514,1.514,0,0,0,173.292,96.565Z" fill="#1e3f7d" fill-rule="evenodd"/><path d="M173.292,86.375a1.514,1.514,0,1,0-1.514,1.515A1.515,1.515,0,0,0,173.292,86.375Z" fill="#1e3f7d" fill-rule="evenodd"/><path d="M173.292,76.186a1.514,1.514,0,1,0-1.514,1.514A1.515,1.515,0,0,0,173.292,76.186Z" fill="#1e3f7d" fill-rule="evenodd"/><path d="M163.278,127.135a1.514,1.514,0,1,0-1.514,1.514A1.514,1.514,0,0,0,163.278,127.135Z" fill="#1e3f7d" fill-rule="evenodd"/><path d="M163.278,116.945a1.514,1.514,0,1,0-1.514,1.514A1.514,1.514,0,0,0,163.278,116.945Z" fill="#1e3f7d" fill-rule="evenodd"/><path d="M163.278,106.755a1.514,1.514,0,1,0-1.514,1.514A1.514,1.514,0,0,0,163.278,106.755Z" fill="#1e3f7d" fill-rule="evenodd"/><path d="M163.278,96.565a1.514,1.514,0,1,0-1.514,1.515A1.514,1.514,0,0,0,163.278,96.565Z" fill="#1e3f7d" fill-rule="evenodd"/><path d="M163.278,86.375a1.514,1.514,0,1,0-1.514,1.515A1.515,1.515,0,0,0,163.278,86.375Z" fill="#1e3f7d" fill-rule="evenodd"/><path d="M163.278,76.186a1.514,1.514,0,1,0-1.514,1.514A1.515,1.515,0,0,0,163.278,76.186Z" fill="#1e3f7d" fill-rule="evenodd"/><path d="M153.264,127.135a1.514,1.514,0,1,0-1.514,1.514A1.514,1.514,0,0,0,153.264,127.135Z" fill="#1e3f7d" fill-rule="evenodd"/><path d="M153.264,116.945a1.514,1.514,0,1,0-1.514,1.514A1.514,1.514,0,0,0,153.264,116.945Z" fill="#1e3f7d" fill-rule="evenodd"/><path d="M153.264,106.755a1.514,1.514,0,1,0-1.514,1.514A1.514,1.514,0,0,0,153.264,106.755Z" fill="#1e3f7d" fill-rule="evenodd"/><path d="M153.264,96.565a1.514,1.514,0,1,0-1.514,1.515A1.514,1.514,0,0,0,153.264,96.565Z" fill="#1e3f7d" fill-rule="evenodd"/><path d="M153.264,86.375a1.514,1.514,0,1,0-1.514,1.515A1.515,1.515,0,0,0,153.264,86.375Z" fill="#1e3f7d" fill-rule="evenodd"/><path d="M153.264,76.186A1.514,1.514,0,1,0,151.75,77.7,1.515,1.515,0,0,0,153.264,76.186Z" fill="#1e3f7d" fill-rule="evenodd"/><path d="M143.25,127.135a1.515,1.515,0,1,0-1.514,1.514A1.514,1.514,0,0,0,143.25,127.135Z" fill="#1e3f7d" fill-rule="evenodd"/><path d="M143.25,116.945a1.515,1.515,0,1,0-1.514,1.514A1.514,1.514,0,0,0,143.25,116.945Z" fill="#1e3f7d" fill-rule="evenodd"/><path d="M143.25,106.755a1.515,1.515,0,1,0-1.514,1.514A1.514,1.514,0,0,0,143.25,106.755Z" fill="#1e3f7d" fill-rule="evenodd"/><path d="M143.25,96.565a1.515,1.515,0,1,0-1.514,1.515A1.514,1.514,0,0,0,143.25,96.565Z" fill="#1e3f7d" fill-rule="evenodd"/><path d="M143.25,86.375a1.515,1.515,0,1,0-1.514,1.515A1.515,1.515,0,0,0,143.25,86.375Z" fill="#1e3f7d" fill-rule="evenodd"/><path d="M143.25,76.186a1.515,1.515,0,1,0-1.514,1.514A1.515,1.515,0,0,0,143.25,76.186Z" fill="#1e3f7d" fill-rule="evenodd"/><path d="M133.236,127.135a1.514,1.514,0,1,0-1.514,1.514A1.514,1.514,0,0,0,133.236,127.135Z" fill="#1e3f7d" fill-rule="evenodd"/><path d="M133.236,116.945a1.514,1.514,0,1,0-1.514,1.514A1.514,1.514,0,0,0,133.236,116.945Z" fill="#1e3f7d" fill-rule="evenodd"/><path d="M133.236,106.755a1.514,1.514,0,1,0-1.514,1.514A1.514,1.514,0,0,0,133.236,106.755Z" fill="#1e3f7d" fill-rule="evenodd"/><path d="M133.236,96.565a1.514,1.514,0,1,0-1.514,1.515A1.514,1.514,0,0,0,133.236,96.565Z" fill="#1e3f7d" fill-rule="evenodd"/><path d="M133.236,86.375a1.514,1.514,0,1,0-1.514,1.515A1.515,1.515,0,0,0,133.236,86.375Z" fill="#1e3f7d" fill-rule="evenodd"/><path d="M133.236,76.186a1.514,1.514,0,1,0-1.514,1.514A1.515,1.515,0,0,0,133.236,76.186Z" fill="#1e3f7d" fill-rule="evenodd"/><path d="M123.222,127.135a1.514,1.514,0,1,0-1.514,1.514A1.514,1.514,0,0,0,123.222,127.135Z" fill="#1e3f7d" fill-rule="evenodd"/><path d="M123.222,116.945a1.514,1.514,0,1,0-1.514,1.514A1.514,1.514,0,0,0,123.222,116.945Z" fill="#1e3f7d" fill-rule="evenodd"/><path d="M123.222,106.755a1.514,1.514,0,1,0-1.514,1.514A1.514,1.514,0,0,0,123.222,106.755Z" fill="#1e3f7d" fill-rule="evenodd"/><path d="M123.222,96.565a1.514,1.514,0,1,0-1.514,1.515A1.514,1.514,0,0,0,123.222,96.565Z" fill="#1e3f7d" fill-rule="evenodd"/><path d="M123.222,86.375a1.514,1.514,0,1,0-1.514,1.515A1.515,1.515,0,0,0,123.222,86.375Z" fill="#1e3f7d" fill-rule="evenodd"/><path d="M123.222,76.186a1.514,1.514,0,1,0-1.514,1.514A1.515,1.515,0,0,0,123.222,76.186Z" fill="#1e3f7d" fill-rule="evenodd"/><path d="M113.208,127.135a1.514,1.514,0,1,0-1.515,1.514A1.514,1.514,0,0,0,113.208,127.135Z" fill="#1e3f7d" fill-rule="evenodd"/><path d="M113.208,116.945a1.514,1.514,0,1,0-1.515,1.514A1.514,1.514,0,0,0,113.208,116.945Z" fill="#1e3f7d" fill-rule="evenodd"/><path d="M113.208,106.755a1.514,1.514,0,1,0-1.515,1.514A1.514,1.514,0,0,0,113.208,106.755Z" fill="#1e3f7d" fill-rule="evenodd"/><path d="M113.208,96.565a1.514,1.514,0,1,0-1.515,1.515A1.514,1.514,0,0,0,113.208,96.565Z" fill="#1e3f7d" fill-rule="evenodd"/><path d="M113.208,86.375a1.514,1.514,0,1,0-1.515,1.515A1.515,1.515,0,0,0,113.208,86.375Z" fill="#1e3f7d" fill-rule="evenodd"/><path d="M113.208,76.186a1.514,1.514,0,1,0-1.515,1.514A1.515,1.515,0,0,0,113.208,76.186Z" fill="#1e3f7d" fill-rule="evenodd"/><path d="M103.194,127.135a1.514,1.514,0,1,0-1.514,1.514A1.514,1.514,0,0,0,103.194,127.135Z" fill="#1e3f7d" fill-rule="evenodd"/><path d="M103.194,116.945a1.514,1.514,0,1,0-1.514,1.514A1.514,1.514,0,0,0,103.194,116.945Z" fill="#1e3f7d" fill-rule="evenodd"/><path d="M103.194,106.755a1.514,1.514,0,1,0-1.514,1.514A1.514,1.514,0,0,0,103.194,106.755Z" fill="#1e3f7d" fill-rule="evenodd"/><path d="M103.194,96.565a1.514,1.514,0,1,0-1.514,1.515A1.514,1.514,0,0,0,103.194,96.565Z" fill="#1e3f7d" fill-rule="evenodd"/><path d="M103.194,86.375a1.514,1.514,0,1,0-1.514,1.515A1.515,1.515,0,0,0,103.194,86.375Z" fill="#1e3f7d" fill-rule="evenodd"/><path d="M103.194,76.186A1.514,1.514,0,1,0,101.68,77.7,1.515,1.515,0,0,0,103.194,76.186Z" fill="#1e3f7d" fill-rule="evenodd"/><path d="M93.179,127.135a1.514,1.514,0,1,0-1.514,1.514A1.514,1.514,0,0,0,93.179,127.135Z" fill="#1e3f7d" fill-rule="evenodd"/><path d="M93.179,116.945a1.514,1.514,0,1,0-1.514,1.514A1.514,1.514,0,0,0,93.179,116.945Z" fill="#1e3f7d" fill-rule="evenodd"/><path d="M93.179,106.755a1.514,1.514,0,1,0-1.514,1.514A1.514,1.514,0,0,0,93.179,106.755Z" fill="#1e3f7d" fill-rule="evenodd"/><path d="M93.179,96.565a1.514,1.514,0,1,0-1.514,1.515A1.514,1.514,0,0,0,93.179,96.565Z" fill="#1e3f7d" fill-rule="evenodd"/><path d="M93.179,86.375a1.514,1.514,0,1,0-1.514,1.515A1.515,1.515,0,0,0,93.179,86.375Z" fill="#1e3f7d" fill-rule="evenodd"/><path d="M93.179,76.186A1.514,1.514,0,1,0,91.665,77.7,1.515,1.515,0,0,0,93.179,76.186Z" fill="#1e3f7d" fill-rule="evenodd"/><path d="M83.165,127.135a1.514,1.514,0,1,0-1.514,1.514A1.514,1.514,0,0,0,83.165,127.135Z" fill="#1e3f7d" fill-rule="evenodd"/><path d="M83.165,116.945a1.514,1.514,0,1,0-1.514,1.514A1.514,1.514,0,0,0,83.165,116.945Z" fill="#1e3f7d" fill-rule="evenodd"/><path d="M83.165,106.755a1.514,1.514,0,1,0-1.514,1.514A1.514,1.514,0,0,0,83.165,106.755Z" fill="#1e3f7d" fill-rule="evenodd"/><path d="M83.165,96.565a1.514,1.514,0,1,0-1.514,1.515A1.514,1.514,0,0,0,83.165,96.565Z" fill="#1e3f7d" fill-rule="evenodd"/><path d="M83.165,86.375a1.514,1.514,0,1,0-1.514,1.515A1.515,1.515,0,0,0,83.165,86.375Z" fill="#1e3f7d" fill-rule="evenodd"/><path d="M83.165,76.186A1.514,1.514,0,1,0,81.651,77.7,1.515,1.515,0,0,0,83.165,76.186Z" fill="#1e3f7d" fill-rule="evenodd"/><path d="M73.151,127.135a1.514,1.514,0,1,0-1.514,1.514A1.514,1.514,0,0,0,73.151,127.135Z" fill="#1e3f7d" fill-rule="evenodd"/><path d="M73.151,116.945a1.514,1.514,0,1,0-1.514,1.514A1.514,1.514,0,0,0,73.151,116.945Z" fill="#1e3f7d" fill-rule="evenodd"/><path d="M73.151,106.755a1.514,1.514,0,1,0-1.514,1.514A1.514,1.514,0,0,0,73.151,106.755Z" fill="#1e3f7d" fill-rule="evenodd"/><path d="M73.151,96.565a1.514,1.514,0,1,0-1.514,1.515A1.514,1.514,0,0,0,73.151,96.565Z" fill="#1e3f7d" fill-rule="evenodd"/><path d="M73.151,86.375a1.514,1.514,0,1,0-1.514,1.515A1.515,1.515,0,0,0,73.151,86.375Z" fill="#1e3f7d" fill-rule="evenodd"/><path d="M73.151,76.186A1.514,1.514,0,1,0,71.637,77.7,1.515,1.515,0,0,0,73.151,76.186Z" fill="#1e3f7d" fill-rule="evenodd"/><path d="M63.137,127.135a1.514,1.514,0,1,0-1.514,1.514A1.514,1.514,0,0,0,63.137,127.135Z" fill="#1e3f7d" fill-rule="evenodd"/><path d="M63.137,116.945a1.514,1.514,0,1,0-1.514,1.514A1.514,1.514,0,0,0,63.137,116.945Z" fill="#1e3f7d" fill-rule="evenodd"/><path d="M63.137,106.755a1.514,1.514,0,1,0-1.514,1.514A1.514,1.514,0,0,0,63.137,106.755Z" fill="#1e3f7d" fill-rule="evenodd"/><path d="M63.137,96.565a1.514,1.514,0,1,0-1.514,1.515A1.514,1.514,0,0,0,63.137,96.565Z" fill="#1e3f7d" fill-rule="evenodd"/><path d="M63.137,86.375a1.514,1.514,0,1,0-1.514,1.515A1.515,1.515,0,0,0,63.137,86.375Z" fill="#1e3f7d" fill-rule="evenodd"/><path d="M63.137,76.186A1.514,1.514,0,1,0,61.623,77.7,1.515,1.515,0,0,0,63.137,76.186Z" fill="#1e3f7d" fill-rule="evenodd"/><path d="M53.123,127.135a1.514,1.514,0,1,0-1.514,1.514A1.514,1.514,0,0,0,53.123,127.135Z" fill="#1e3f7d" fill-rule="evenodd"/><path d="M53.123,116.945a1.514,1.514,0,1,0-1.514,1.514A1.514,1.514,0,0,0,53.123,116.945Z" fill="#1e3f7d" fill-rule="evenodd"/><path d="M53.123,106.755a1.514,1.514,0,1,0-1.514,1.514A1.514,1.514,0,0,0,53.123,106.755Z" fill="#1e3f7d" fill-rule="evenodd"/><path d="M53.123,96.565a1.514,1.514,0,1,0-1.514,1.515A1.514,1.514,0,0,0,53.123,96.565Z" fill="#1e3f7d" fill-rule="evenodd"/><path d="M53.123,86.375a1.514,1.514,0,1,0-1.514,1.515A1.515,1.515,0,0,0,53.123,86.375Z" fill="#1e3f7d" fill-rule="evenodd"/><path d="M53.123,76.186A1.514,1.514,0,1,0,51.609,77.7,1.515,1.515,0,0,0,53.123,76.186Z" fill="#1e3f7d" fill-rule="evenodd"/><path d="M43.109,127.135a1.514,1.514,0,1,0-1.514,1.514A1.514,1.514,0,0,0,43.109,127.135Z" fill="#1e3f7d" fill-rule="evenodd"/><path d="M43.109,116.945a1.514,1.514,0,1,0-1.514,1.514A1.514,1.514,0,0,0,43.109,116.945Z" fill="#1e3f7d" fill-rule="evenodd"/><path d="M43.109,106.755a1.514,1.514,0,1,0-1.514,1.514A1.514,1.514,0,0,0,43.109,106.755Z" fill="#1e3f7d" fill-rule="evenodd"/><path d="M43.109,96.565A1.514,1.514,0,1,0,41.6,98.08,1.514,1.514,0,0,0,43.109,96.565Z" fill="#1e3f7d" fill-rule="evenodd"/><path d="M43.109,86.375A1.514,1.514,0,1,0,41.6,87.89,1.515,1.515,0,0,0,43.109,86.375Z" fill="#1e3f7d" fill-rule="evenodd"/><path d="M43.109,76.186A1.514,1.514,0,1,0,41.6,77.7,1.515,1.515,0,0,0,43.109,76.186Z" fill="#1e3f7d" fill-rule="evenodd"/><path d="M33.1,127.135a1.515,1.515,0,1,0-1.514,1.514A1.514,1.514,0,0,0,33.1,127.135Z" fill="#1e3f7d" fill-rule="evenodd"/><path d="M33.1,116.945a1.515,1.515,0,1,0-1.514,1.514A1.514,1.514,0,0,0,33.1,116.945Z" fill="#1e3f7d" fill-rule="evenodd"/><path d="M33.1,106.755a1.515,1.515,0,1,0-1.514,1.514A1.514,1.514,0,0,0,33.1,106.755Z" fill="#1e3f7d" fill-rule="evenodd"/><path d="M33.1,96.565a1.515,1.515,0,1,0-1.514,1.515A1.514,1.514,0,0,0,33.1,96.565Z" fill="#1e3f7d" fill-rule="evenodd"/><path d="M33.1,86.375a1.515,1.515,0,1,0-1.514,1.515A1.515,1.515,0,0,0,33.1,86.375Z" fill="#1e3f7d" fill-rule="evenodd"/><path d="M33.1,76.186A1.515,1.515,0,1,0,31.581,77.7,1.515,1.515,0,0,0,33.1,76.186Z" fill="#1e3f7d" fill-rule="evenodd"/><path d="M23.081,127.135a1.514,1.514,0,1,0-1.515,1.514A1.514,1.514,0,0,0,23.081,127.135Z" fill="#1e3f7d" fill-rule="evenodd"/><path d="M23.081,116.945a1.514,1.514,0,1,0-1.515,1.514A1.514,1.514,0,0,0,23.081,116.945Z" fill="#1e3f7d" fill-rule="evenodd"/><path d="M23.081,106.755a1.514,1.514,0,1,0-1.515,1.514A1.514,1.514,0,0,0,23.081,106.755Z" fill="#1e3f7d" fill-rule="evenodd"/><path d="M23.081,96.565a1.514,1.514,0,1,0-1.515,1.515A1.514,1.514,0,0,0,23.081,96.565Z" fill="#1e3f7d" fill-rule="evenodd"/><path d="M23.081,86.375a1.514,1.514,0,1,0-1.515,1.515A1.515,1.515,0,0,0,23.081,86.375Z" fill="#1e3f7d" fill-rule="evenodd"/><path d="M23.081,76.186A1.514,1.514,0,1,0,21.566,77.7,1.515,1.515,0,0,0,23.081,76.186Z" fill="#1e3f7d" fill-rule="evenodd"/><path d="M13.067,127.135a1.515,1.515,0,1,0-1.515,1.514A1.514,1.514,0,0,0,13.067,127.135Z" fill="#1e3f7d" fill-rule="evenodd"/><path d="M13.067,116.945a1.515,1.515,0,1,0-1.515,1.514A1.514,1.514,0,0,0,13.067,116.945Z" fill="#1e3f7d" fill-rule="evenodd"/><path d="M13.067,106.755a1.515,1.515,0,1,0-1.515,1.514A1.514,1.514,0,0,0,13.067,106.755Z" fill="#1e3f7d" fill-rule="evenodd"/><path d="M13.067,96.565a1.515,1.515,0,1,0-1.515,1.515A1.514,1.514,0,0,0,13.067,96.565Z" fill="#1e3f7d" fill-rule="evenodd"/><path d="M13.067,86.375a1.515,1.515,0,1,0-1.515,1.515A1.515,1.515,0,0,0,13.067,86.375Z" fill="#1e3f7d" fill-rule="evenodd"/><path d="M13.067,76.186A1.515,1.515,0,1,0,11.552,77.7,1.515,1.515,0,0,0,13.067,76.186Z" fill="#1e3f7d" fill-rule="evenodd"/><path d="M363.559,127.135a1.514,1.514,0,1,0-1.514,1.514A1.514,1.514,0,0,0,363.559,127.135Z" fill="#1e3f7d" fill-rule="evenodd"/><path d="M363.559,116.945a1.514,1.514,0,1,0-1.514,1.514A1.514,1.514,0,0,0,363.559,116.945Z" fill="#1e3f7d" fill-rule="evenodd"/><path d="M363.559,106.755a1.514,1.514,0,1,0-1.514,1.514A1.514,1.514,0,0,0,363.559,106.755Z" fill="#1e3f7d" fill-rule="evenodd"/><path d="M363.559,96.565a1.514,1.514,0,1,0-1.514,1.515A1.514,1.514,0,0,0,363.559,96.565Z" fill="#1e3f7d" fill-rule="evenodd"/><path d="M363.559,86.375a1.514,1.514,0,1,0-1.514,1.515A1.515,1.515,0,0,0,363.559,86.375Z" fill="#1e3f7d" fill-rule="evenodd"/><path d="M363.559,76.186a1.514,1.514,0,1,0-1.514,1.514A1.515,1.515,0,0,0,363.559,76.186Z" fill="#1e3f7d" fill-rule="evenodd"/><path d="M353.545,127.135a1.514,1.514,0,1,0-1.514,1.514A1.514,1.514,0,0,0,353.545,127.135Z" fill="#1e3f7d" fill-rule="evenodd"/><path d="M353.545,116.945a1.514,1.514,0,1,0-1.514,1.514A1.514,1.514,0,0,0,353.545,116.945Z" fill="#1e3f7d" fill-rule="evenodd"/><path d="M353.545,106.755a1.514,1.514,0,1,0-1.514,1.514A1.514,1.514,0,0,0,353.545,106.755Z" fill="#1e3f7d" fill-rule="evenodd"/><path d="M353.545,96.565a1.514,1.514,0,1,0-1.514,1.515A1.514,1.514,0,0,0,353.545,96.565Z" fill="#1e3f7d" fill-rule="evenodd"/><path d="M353.545,86.375a1.514,1.514,0,1,0-1.514,1.515A1.515,1.515,0,0,0,353.545,86.375Z" fill="#1e3f7d" fill-rule="evenodd"/><path d="M353.545,76.186a1.514,1.514,0,1,0-1.514,1.514A1.515,1.515,0,0,0,353.545,76.186Z" fill="#1e3f7d" fill-rule="evenodd"/><path d="M343.531,127.135a1.514,1.514,0,1,0-1.514,1.514A1.514,1.514,0,0,0,343.531,127.135Z" fill="#1e3f7d" fill-rule="evenodd"/><path d="M343.531,116.945a1.514,1.514,0,1,0-1.514,1.514A1.514,1.514,0,0,0,343.531,116.945Z" fill="#1e3f7d" fill-rule="evenodd"/><path d="M343.531,106.755a1.514,1.514,0,1,0-1.514,1.514A1.514,1.514,0,0,0,343.531,106.755Z" fill="#1e3f7d" fill-rule="evenodd"/><path d="M343.531,96.565a1.514,1.514,0,1,0-1.514,1.515A1.514,1.514,0,0,0,343.531,96.565Z" fill="#1e3f7d" fill-rule="evenodd"/><path d="M343.531,86.375a1.514,1.514,0,1,0-1.514,1.515A1.515,1.515,0,0,0,343.531,86.375Z" fill="#1e3f7d" fill-rule="evenodd"/><path d="M343.531,76.186a1.514,1.514,0,1,0-1.514,1.514A1.515,1.515,0,0,0,343.531,76.186Z" fill="#1e3f7d" fill-rule="evenodd"/><path d="M333.517,127.135A1.514,1.514,0,1,0,332,128.649,1.514,1.514,0,0,0,333.517,127.135Z" fill="#1e3f7d" fill-rule="evenodd"/><path d="M333.517,116.945A1.514,1.514,0,1,0,332,118.459,1.514,1.514,0,0,0,333.517,116.945Z" fill="#1e3f7d" fill-rule="evenodd"/><path d="M333.517,106.755A1.514,1.514,0,1,0,332,108.269,1.514,1.514,0,0,0,333.517,106.755Z" fill="#1e3f7d" fill-rule="evenodd"/><path d="M333.517,96.565A1.514,1.514,0,1,0,332,98.08,1.514,1.514,0,0,0,333.517,96.565Z" fill="#1e3f7d" fill-rule="evenodd"/><path d="M333.517,86.375A1.514,1.514,0,1,0,332,87.89,1.515,1.515,0,0,0,333.517,86.375Z" fill="#1e3f7d" fill-rule="evenodd"/><path d="M333.517,76.186A1.514,1.514,0,1,0,332,77.7,1.515,1.515,0,0,0,333.517,76.186Z" fill="#1e3f7d" fill-rule="evenodd"/><path d="M323.5,127.135a1.514,1.514,0,1,0-1.514,1.514A1.514,1.514,0,0,0,323.5,127.135Z" fill="#1e3f7d" fill-rule="evenodd"/><path d="M323.5,116.945a1.514,1.514,0,1,0-1.514,1.514A1.514,1.514,0,0,0,323.5,116.945Z" fill="#1e3f7d" fill-rule="evenodd"/><path d="M323.5,106.755a1.514,1.514,0,1,0-1.514,1.514A1.514,1.514,0,0,0,323.5,106.755Z" fill="#1e3f7d" fill-rule="evenodd"/><path d="M323.5,96.565a1.514,1.514,0,1,0-1.514,1.515A1.514,1.514,0,0,0,323.5,96.565Z" fill="#1e3f7d" fill-rule="evenodd"/><path d="M323.5,86.375a1.514,1.514,0,1,0-1.514,1.515A1.515,1.515,0,0,0,323.5,86.375Z" fill="#1e3f7d" fill-rule="evenodd"/><path d="M323.5,76.186a1.514,1.514,0,1,0-1.514,1.514A1.515,1.515,0,0,0,323.5,76.186Z" fill="#1e3f7d" fill-rule="evenodd"/><path d="M313.489,127.135a1.515,1.515,0,1,0-1.514,1.514A1.514,1.514,0,0,0,313.489,127.135Z" fill="#1e3f7d" fill-rule="evenodd"/><path d="M313.489,116.945a1.515,1.515,0,1,0-1.514,1.514A1.514,1.514,0,0,0,313.489,116.945Z" fill="#1e3f7d" fill-rule="evenodd"/><path d="M313.489,106.755a1.515,1.515,0,1,0-1.514,1.514A1.514,1.514,0,0,0,313.489,106.755Z" fill="#1e3f7d" fill-rule="evenodd"/><path d="M313.489,96.565a1.515,1.515,0,1,0-1.514,1.515A1.514,1.514,0,0,0,313.489,96.565Z" fill="#1e3f7d" fill-rule="evenodd"/><path d="M313.489,86.375a1.515,1.515,0,1,0-1.514,1.515A1.515,1.515,0,0,0,313.489,86.375Z" fill="#1e3f7d" fill-rule="evenodd"/><path d="M313.489,76.186a1.515,1.515,0,1,0-1.514,1.514A1.515,1.515,0,0,0,313.489,76.186Z" fill="#1e3f7d" fill-rule="evenodd"/><path d="M303.475,127.135a1.514,1.514,0,1,0-1.515,1.514A1.514,1.514,0,0,0,303.475,127.135Z" fill="#1e3f7d" fill-rule="evenodd"/><path d="M303.475,116.945a1.514,1.514,0,1,0-1.515,1.514A1.514,1.514,0,0,0,303.475,116.945Z" fill="#1e3f7d" fill-rule="evenodd"/><path d="M303.475,106.755a1.514,1.514,0,1,0-1.515,1.514A1.514,1.514,0,0,0,303.475,106.755Z" fill="#1e3f7d" fill-rule="evenodd"/><path d="M303.475,96.565a1.514,1.514,0,1,0-1.515,1.515A1.514,1.514,0,0,0,303.475,96.565Z" fill="#1e3f7d" fill-rule="evenodd"/><path d="M303.475,86.375a1.514,1.514,0,1,0-1.515,1.515A1.515,1.515,0,0,0,303.475,86.375Z" fill="#1e3f7d" fill-rule="evenodd"/><path d="M303.475,76.186A1.514,1.514,0,1,0,301.96,77.7,1.515,1.515,0,0,0,303.475,76.186Z" fill="#1e3f7d" fill-rule="evenodd"/><path d="M293.461,127.135a1.514,1.514,0,1,0-1.515,1.514A1.514,1.514,0,0,0,293.461,127.135Z" fill="#1e3f7d" fill-rule="evenodd"/><path d="M293.461,116.945a1.514,1.514,0,1,0-1.515,1.514A1.514,1.514,0,0,0,293.461,116.945Z" fill="#1e3f7d" fill-rule="evenodd"/><path d="M293.461,106.755a1.514,1.514,0,1,0-1.515,1.514A1.514,1.514,0,0,0,293.461,106.755Z" fill="#1e3f7d" fill-rule="evenodd"/><path d="M293.461,96.565a1.514,1.514,0,1,0-1.515,1.515A1.514,1.514,0,0,0,293.461,96.565Z" fill="#1e3f7d" fill-rule="evenodd"/><path d="M293.461,86.375a1.514,1.514,0,1,0-1.515,1.515A1.515,1.515,0,0,0,293.461,86.375Z" fill="#1e3f7d" fill-rule="evenodd"/><path d="M293.461,76.186a1.514,1.514,0,1,0-1.515,1.514A1.515,1.515,0,0,0,293.461,76.186Z" fill="#1e3f7d" fill-rule="evenodd"/><path d="M283.447,127.135a1.514,1.514,0,1,0-1.514,1.514A1.514,1.514,0,0,0,283.447,127.135Z" fill="#1e3f7d" fill-rule="evenodd"/><path d="M283.447,116.945a1.514,1.514,0,1,0-1.514,1.514A1.514,1.514,0,0,0,283.447,116.945Z" fill="#1e3f7d" fill-rule="evenodd"/><path d="M283.447,106.755a1.514,1.514,0,1,0-1.514,1.514A1.514,1.514,0,0,0,283.447,106.755Z" fill="#1e3f7d" fill-rule="evenodd"/><path d="M283.447,96.565a1.514,1.514,0,1,0-1.514,1.515A1.514,1.514,0,0,0,283.447,96.565Z" fill="#1e3f7d" fill-rule="evenodd"/><path d="M283.447,86.375a1.514,1.514,0,1,0-1.514,1.515A1.515,1.515,0,0,0,283.447,86.375Z" fill="#1e3f7d" fill-rule="evenodd"/><path d="M283.447,76.186a1.514,1.514,0,1,0-1.514,1.514A1.515,1.515,0,0,0,283.447,76.186Z" fill="#1e3f7d" fill-rule="evenodd"/><path d="M273.433,127.135a1.515,1.515,0,1,0-1.515,1.514A1.514,1.514,0,0,0,273.433,127.135Z" fill="#1e3f7d" fill-rule="evenodd"/><path d="M273.433,116.945a1.515,1.515,0,1,0-1.515,1.514A1.514,1.514,0,0,0,273.433,116.945Z" fill="#1e3f7d" fill-rule="evenodd"/><path d="M273.433,106.755a1.515,1.515,0,1,0-1.515,1.514A1.514,1.514,0,0,0,273.433,106.755Z" fill="#1e3f7d" fill-rule="evenodd"/><path d="M273.433,96.565a1.515,1.515,0,1,0-1.515,1.515A1.514,1.514,0,0,0,273.433,96.565Z" fill="#1e3f7d" fill-rule="evenodd"/><path d="M273.433,86.375a1.515,1.515,0,1,0-1.515,1.515A1.515,1.515,0,0,0,273.433,86.375Z" fill="#1e3f7d" fill-rule="evenodd"/><path d="M273.433,76.186a1.515,1.515,0,1,0-1.515,1.514A1.515,1.515,0,0,0,273.433,76.186Z" fill="#1e3f7d" fill-rule="evenodd"/><path d="M263.419,127.135a1.514,1.514,0,1,0-1.516,1.514A1.514,1.514,0,0,0,263.419,127.135Z" fill="#1e3f7d" fill-rule="evenodd"/><path d="M263.419,116.945a1.514,1.514,0,1,0-1.516,1.514A1.514,1.514,0,0,0,263.419,116.945Z" fill="#1e3f7d" fill-rule="evenodd"/><path d="M263.419,106.755a1.514,1.514,0,1,0-1.516,1.514A1.515,1.515,0,0,0,263.419,106.755Z" fill="#1e3f7d" fill-rule="evenodd"/><path d="M263.419,96.565A1.514,1.514,0,1,0,261.9,98.08,1.515,1.515,0,0,0,263.419,96.565Z" fill="#1e3f7d" fill-rule="evenodd"/><path d="M263.419,86.375A1.514,1.514,0,1,0,261.9,87.89,1.515,1.515,0,0,0,263.419,86.375Z" fill="#1e3f7d" fill-rule="evenodd"/><path d="M263.419,76.186A1.514,1.514,0,1,0,261.9,77.7,1.515,1.515,0,0,0,263.419,76.186Z" fill="#1e3f7d" fill-rule="evenodd"/><path d="M253.4,127.135a1.514,1.514,0,1,0-1.515,1.514A1.514,1.514,0,0,0,253.4,127.135Z" fill="#1e3f7d" fill-rule="evenodd"/><path d="M253.4,116.945a1.514,1.514,0,1,0-1.515,1.514A1.514,1.514,0,0,0,253.4,116.945Z" fill="#1e3f7d" fill-rule="evenodd"/><path d="M253.4,106.755a1.514,1.514,0,1,0-1.515,1.514A1.514,1.514,0,0,0,253.4,106.755Z" fill="#1e3f7d" fill-rule="evenodd"/><path d="M253.4,96.565a1.514,1.514,0,1,0-1.515,1.515A1.514,1.514,0,0,0,253.4,96.565Z" fill="#1e3f7d" fill-rule="evenodd"/><path d="M253.4,86.375a1.514,1.514,0,1,0-1.515,1.515A1.515,1.515,0,0,0,253.4,86.375Z" fill="#1e3f7d" fill-rule="evenodd"/><path d="M253.4,76.186A1.514,1.514,0,1,0,251.89,77.7,1.515,1.515,0,0,0,253.4,76.186Z" fill="#1e3f7d" fill-rule="evenodd"/><path d="M243.391,127.135a1.515,1.515,0,1,0-1.515,1.514A1.514,1.514,0,0,0,243.391,127.135Z" fill="#1e3f7d" fill-rule="evenodd"/><path d="M243.391,116.945a1.515,1.515,0,1,0-1.515,1.514A1.514,1.514,0,0,0,243.391,116.945Z" fill="#1e3f7d" fill-rule="evenodd"/><path d="M243.391,106.755a1.515,1.515,0,1,0-1.515,1.514A1.515,1.515,0,0,0,243.391,106.755Z" fill="#1e3f7d" fill-rule="evenodd"/><path d="M243.391,96.565a1.515,1.515,0,1,0-1.515,1.515A1.515,1.515,0,0,0,243.391,96.565Z" fill="#1e3f7d" fill-rule="evenodd"/><path d="M243.391,86.375a1.515,1.515,0,1,0-1.515,1.515A1.516,1.516,0,0,0,243.391,86.375Z" fill="#1e3f7d" fill-rule="evenodd"/><path d="M243.391,76.186a1.515,1.515,0,1,0-1.515,1.514A1.516,1.516,0,0,0,243.391,76.186Z" fill="#1e3f7d" fill-rule="evenodd"/><path d="M233.376,127.135a1.514,1.514,0,1,0-1.514,1.514A1.513,1.513,0,0,0,233.376,127.135Z" fill="#1e3f7d" fill-rule="evenodd"/><path d="M233.376,116.945a1.514,1.514,0,1,0-1.514,1.514A1.513,1.513,0,0,0,233.376,116.945Z" fill="#1e3f7d" fill-rule="evenodd"/><path d="M233.376,106.755a1.514,1.514,0,1,0-1.514,1.514A1.514,1.514,0,0,0,233.376,106.755Z" fill="#1e3f7d" fill-rule="evenodd"/><path d="M233.376,96.565a1.514,1.514,0,1,0-1.514,1.515A1.514,1.514,0,0,0,233.376,96.565Z" fill="#1e3f7d" fill-rule="evenodd"/><path d="M233.376,86.375a1.514,1.514,0,1,0-1.514,1.515A1.514,1.514,0,0,0,233.376,86.375Z" fill="#1e3f7d" fill-rule="evenodd"/><path d="M233.376,76.186a1.514,1.514,0,1,0-1.514,1.514A1.514,1.514,0,0,0,233.376,76.186Z" fill="#1e3f7d" fill-rule="evenodd"/><path d="M223.362,127.135a1.515,1.515,0,1,0-1.514,1.514A1.513,1.513,0,0,0,223.362,127.135Z" fill="#1e3f7d" fill-rule="evenodd"/><path d="M223.362,116.945a1.515,1.515,0,1,0-1.514,1.514A1.513,1.513,0,0,0,223.362,116.945Z" fill="#1e3f7d" fill-rule="evenodd"/><path d="M223.362,106.755a1.515,1.515,0,1,0-1.514,1.514A1.514,1.514,0,0,0,223.362,106.755Z" fill="#1e3f7d" fill-rule="evenodd"/><path d="M223.362,96.565a1.515,1.515,0,1,0-1.514,1.515A1.514,1.514,0,0,0,223.362,96.565Z" fill="#1e3f7d" fill-rule="evenodd"/><path d="M223.362,86.375a1.515,1.515,0,1,0-1.514,1.515A1.514,1.514,0,0,0,223.362,86.375Z" fill="#1e3f7d" fill-rule="evenodd"/><path d="M223.362,76.186a1.515,1.515,0,1,0-1.514,1.514A1.514,1.514,0,0,0,223.362,76.186Z" fill="#1e3f7d" fill-rule="evenodd"/><path d="M213.348,127.135a1.514,1.514,0,1,0-1.514,1.514A1.514,1.514,0,0,0,213.348,127.135Z" fill="#1e3f7d" fill-rule="evenodd"/><path d="M213.348,116.945a1.514,1.514,0,1,0-1.514,1.514A1.514,1.514,0,0,0,213.348,116.945Z" fill="#1e3f7d" fill-rule="evenodd"/><path d="M213.348,106.755a1.514,1.514,0,1,0-1.514,1.514A1.514,1.514,0,0,0,213.348,106.755Z" fill="#1e3f7d" fill-rule="evenodd"/><path d="M213.348,96.565a1.514,1.514,0,1,0-1.514,1.515A1.514,1.514,0,0,0,213.348,96.565Z" fill="#1e3f7d" fill-rule="evenodd"/><path d="M213.348,86.375a1.514,1.514,0,1,0-1.514,1.515A1.515,1.515,0,0,0,213.348,86.375Z" fill="#1e3f7d" fill-rule="evenodd"/><path d="M213.348,76.186a1.514,1.514,0,1,0-1.514,1.514A1.515,1.515,0,0,0,213.348,76.186Z" fill="#1e3f7d" fill-rule="evenodd"/><path d="M203.334,127.135a1.514,1.514,0,1,0-1.514,1.514A1.514,1.514,0,0,0,203.334,127.135Z" fill="#1e3f7d" fill-rule="evenodd"/><path d="M203.334,116.945a1.514,1.514,0,1,0-1.514,1.514A1.514,1.514,0,0,0,203.334,116.945Z" fill="#1e3f7d" fill-rule="evenodd"/><path d="M203.334,106.755a1.514,1.514,0,1,0-1.514,1.514A1.514,1.514,0,0,0,203.334,106.755Z" fill="#1e3f7d" fill-rule="evenodd"/><path d="M203.334,96.565a1.514,1.514,0,1,0-1.514,1.515A1.514,1.514,0,0,0,203.334,96.565Z" fill="#1e3f7d" fill-rule="evenodd"/><path d="M203.334,86.375a1.514,1.514,0,1,0-1.514,1.515A1.515,1.515,0,0,0,203.334,86.375Z" fill="#1e3f7d" fill-rule="evenodd"/><path d="M203.334,76.186A1.514,1.514,0,1,0,201.82,77.7,1.515,1.515,0,0,0,203.334,76.186Z" fill="#1e3f7d" fill-rule="evenodd"/><path d="M193.32,127.135a1.514,1.514,0,1,0-1.514,1.514A1.514,1.514,0,0,0,193.32,127.135Z" fill="#1e3f7d" fill-rule="evenodd"/><path d="M193.32,116.945a1.514,1.514,0,1,0-1.514,1.514A1.514,1.514,0,0,0,193.32,116.945Z" fill="#1e3f7d" fill-rule="evenodd"/><path d="M193.32,106.755a1.514,1.514,0,1,0-1.514,1.514A1.514,1.514,0,0,0,193.32,106.755Z" fill="#1e3f7d" fill-rule="evenodd"/><path d="M193.32,96.565a1.514,1.514,0,1,0-1.514,1.515A1.514,1.514,0,0,0,193.32,96.565Z" fill="#1e3f7d" fill-rule="evenodd"/><path d="M193.32,86.375a1.514,1.514,0,1,0-1.514,1.515A1.515,1.515,0,0,0,193.32,86.375Z" fill="#1e3f7d" fill-rule="evenodd"/><path d="M193.32,76.186a1.514,1.514,0,1,0-1.514,1.514A1.515,1.515,0,0,0,193.32,76.186Z" fill="#1e3f7d" fill-rule="evenodd"/><path d="M543.813,127.135a1.514,1.514,0,1,0-1.515,1.514A1.514,1.514,0,0,0,543.813,127.135Z" fill="#1e3f7d" fill-rule="evenodd"/><path d="M543.813,116.945a1.514,1.514,0,1,0-1.515,1.514A1.514,1.514,0,0,0,543.813,116.945Z" fill="#1e3f7d" fill-rule="evenodd"/><path d="M543.813,106.755a1.514,1.514,0,1,0-1.515,1.514A1.515,1.515,0,0,0,543.813,106.755Z" fill="#1e3f7d" fill-rule="evenodd"/><path d="M543.813,96.565A1.514,1.514,0,1,0,542.3,98.08,1.515,1.515,0,0,0,543.813,96.565Z" fill="#1e3f7d" fill-rule="evenodd"/><path d="M543.813,86.375A1.514,1.514,0,1,0,542.3,87.89,1.516,1.516,0,0,0,543.813,86.375Z" fill="#1e3f7d" fill-rule="evenodd"/><path d="M543.813,76.186A1.514,1.514,0,1,0,542.3,77.7,1.516,1.516,0,0,0,543.813,76.186Z" fill="#1e3f7d" fill-rule="evenodd"/><path d="M533.8,127.135a1.514,1.514,0,1,0-1.514,1.514A1.514,1.514,0,0,0,533.8,127.135Z" fill="#1e3f7d" fill-rule="evenodd"/><path d="M533.8,116.945a1.514,1.514,0,1,0-1.514,1.514A1.514,1.514,0,0,0,533.8,116.945Z" fill="#1e3f7d" fill-rule="evenodd"/><path d="M533.8,106.755a1.514,1.514,0,1,0-1.514,1.514A1.514,1.514,0,0,0,533.8,106.755Z" fill="#1e3f7d" fill-rule="evenodd"/><path d="M533.8,96.565a1.514,1.514,0,1,0-1.514,1.515A1.514,1.514,0,0,0,533.8,96.565Z" fill="#1e3f7d" fill-rule="evenodd"/><path d="M533.8,86.375a1.514,1.514,0,1,0-1.514,1.515A1.515,1.515,0,0,0,533.8,86.375Z" fill="#1e3f7d" fill-rule="evenodd"/><path d="M533.8,76.186a1.514,1.514,0,1,0-1.514,1.514A1.515,1.515,0,0,0,533.8,76.186Z" fill="#1e3f7d" fill-rule="evenodd"/><path d="M523.784,127.135a1.514,1.514,0,1,0-1.514,1.514A1.514,1.514,0,0,0,523.784,127.135Z" fill="#1e3f7d" fill-rule="evenodd"/><path d="M523.784,116.945a1.514,1.514,0,1,0-1.514,1.514A1.514,1.514,0,0,0,523.784,116.945Z" fill="#1e3f7d" fill-rule="evenodd"/><path d="M523.784,106.755a1.514,1.514,0,1,0-1.514,1.514A1.514,1.514,0,0,0,523.784,106.755Z" fill="#1e3f7d" fill-rule="evenodd"/><path d="M523.784,96.565a1.514,1.514,0,1,0-1.514,1.515A1.514,1.514,0,0,0,523.784,96.565Z" fill="#1e3f7d" fill-rule="evenodd"/><path d="M523.784,86.375a1.514,1.514,0,1,0-1.514,1.515A1.515,1.515,0,0,0,523.784,86.375Z" fill="#1e3f7d" fill-rule="evenodd"/><path d="M523.784,76.186A1.514,1.514,0,1,0,522.27,77.7,1.515,1.515,0,0,0,523.784,76.186Z" fill="#1e3f7d" fill-rule="evenodd"/><path d="M513.77,127.135a1.514,1.514,0,1,0-1.515,1.514A1.514,1.514,0,0,0,513.77,127.135Z" fill="#1e3f7d" fill-rule="evenodd"/><path d="M513.77,116.945a1.514,1.514,0,1,0-1.515,1.514A1.514,1.514,0,0,0,513.77,116.945Z" fill="#1e3f7d" fill-rule="evenodd"/><path d="M513.77,106.755a1.514,1.514,0,1,0-1.515,1.514A1.515,1.515,0,0,0,513.77,106.755Z" fill="#1e3f7d" fill-rule="evenodd"/><path d="M513.77,96.565a1.514,1.514,0,1,0-1.515,1.515A1.515,1.515,0,0,0,513.77,96.565Z" fill="#1e3f7d" fill-rule="evenodd"/><path d="M513.77,86.375a1.514,1.514,0,1,0-1.515,1.515A1.516,1.516,0,0,0,513.77,86.375Z" fill="#1e3f7d" fill-rule="evenodd"/><path d="M513.77,76.186a1.514,1.514,0,1,0-1.515,1.514A1.516,1.516,0,0,0,513.77,76.186Z" fill="#1e3f7d" fill-rule="evenodd"/><path d="M503.756,127.135a1.515,1.515,0,1,0-1.514,1.514A1.514,1.514,0,0,0,503.756,127.135Z" fill="#1e3f7d" fill-rule="evenodd"/><path d="M503.756,116.945a1.515,1.515,0,1,0-1.514,1.514A1.514,1.514,0,0,0,503.756,116.945Z" fill="#1e3f7d" fill-rule="evenodd"/><path d="M503.756,106.755a1.515,1.515,0,1,0-1.514,1.514A1.514,1.514,0,0,0,503.756,106.755Z" fill="#1e3f7d" fill-rule="evenodd"/><path d="M503.756,96.565a1.515,1.515,0,1,0-1.514,1.515A1.514,1.514,0,0,0,503.756,96.565Z" fill="#1e3f7d" fill-rule="evenodd"/><path d="M503.756,86.375a1.515,1.515,0,1,0-1.514,1.515A1.515,1.515,0,0,0,503.756,86.375Z" fill="#1e3f7d" fill-rule="evenodd"/><path d="M503.756,76.186a1.515,1.515,0,1,0-1.514,1.514A1.515,1.515,0,0,0,503.756,76.186Z" fill="#1e3f7d" fill-rule="evenodd"/><path d="M493.742,127.135a1.514,1.514,0,1,0-1.514,1.514A1.514,1.514,0,0,0,493.742,127.135Z" fill="#1e3f7d" fill-rule="evenodd"/><path d="M493.742,116.945a1.514,1.514,0,1,0-1.514,1.514A1.514,1.514,0,0,0,493.742,116.945Z" fill="#1e3f7d" fill-rule="evenodd"/><path d="M493.742,106.755a1.514,1.514,0,1,0-1.514,1.514A1.514,1.514,0,0,0,493.742,106.755Z" fill="#1e3f7d" fill-rule="evenodd"/><path d="M493.742,96.565a1.514,1.514,0,1,0-1.514,1.515A1.514,1.514,0,0,0,493.742,96.565Z" fill="#1e3f7d" fill-rule="evenodd"/><path d="M493.742,86.375a1.514,1.514,0,1,0-1.514,1.515A1.515,1.515,0,0,0,493.742,86.375Z" fill="#1e3f7d" fill-rule="evenodd"/><path d="M493.742,76.186a1.514,1.514,0,1,0-1.514,1.514A1.515,1.515,0,0,0,493.742,76.186Z" fill="#1e3f7d" fill-rule="evenodd"/><path d="M483.728,127.135a1.514,1.514,0,1,0-1.515,1.514A1.514,1.514,0,0,0,483.728,127.135Z" fill="#1e3f7d" fill-rule="evenodd"/><path d="M483.728,116.945a1.514,1.514,0,1,0-1.515,1.514A1.514,1.514,0,0,0,483.728,116.945Z" fill="#1e3f7d" fill-rule="evenodd"/><path d="M483.728,106.755a1.514,1.514,0,1,0-1.515,1.514A1.514,1.514,0,0,0,483.728,106.755Z" fill="#1e3f7d" fill-rule="evenodd"/><path d="M483.728,96.565a1.514,1.514,0,1,0-1.515,1.515A1.514,1.514,0,0,0,483.728,96.565Z" fill="#1e3f7d" fill-rule="evenodd"/><path d="M483.728,86.375a1.514,1.514,0,1,0-1.515,1.515A1.515,1.515,0,0,0,483.728,86.375Z" fill="#1e3f7d" fill-rule="evenodd"/><path d="M483.728,76.186a1.514,1.514,0,1,0-1.515,1.514A1.515,1.515,0,0,0,483.728,76.186Z" fill="#1e3f7d" fill-rule="evenodd"/><path d="M473.714,127.135a1.514,1.514,0,1,0-1.515,1.514A1.514,1.514,0,0,0,473.714,127.135Z" fill="#1e3f7d" fill-rule="evenodd"/><path d="M473.714,116.945a1.514,1.514,0,1,0-1.515,1.514A1.514,1.514,0,0,0,473.714,116.945Z" fill="#1e3f7d" fill-rule="evenodd"/><path d="M473.714,106.755a1.514,1.514,0,1,0-1.515,1.514A1.514,1.514,0,0,0,473.714,106.755Z" fill="#1e3f7d" fill-rule="evenodd"/><path d="M473.714,96.565A1.514,1.514,0,1,0,472.2,98.08,1.514,1.514,0,0,0,473.714,96.565Z" fill="#1e3f7d" fill-rule="evenodd"/><path d="M473.714,86.375A1.514,1.514,0,1,0,472.2,87.89,1.515,1.515,0,0,0,473.714,86.375Z" fill="#1e3f7d" fill-rule="evenodd"/><path d="M473.714,76.186A1.514,1.514,0,1,0,472.2,77.7,1.515,1.515,0,0,0,473.714,76.186Z" fill="#1e3f7d" fill-rule="evenodd"/><path d="M463.7,127.135a1.515,1.515,0,1,0-1.514,1.514A1.514,1.514,0,0,0,463.7,127.135Z" fill="#1e3f7d" fill-rule="evenodd"/><path d="M463.7,116.945a1.515,1.515,0,1,0-1.514,1.514A1.514,1.514,0,0,0,463.7,116.945Z" fill="#1e3f7d" fill-rule="evenodd"/><path d="M463.7,106.755a1.515,1.515,0,1,0-1.514,1.514A1.514,1.514,0,0,0,463.7,106.755Z" fill="#1e3f7d" fill-rule="evenodd"/><path d="M463.7,96.565a1.515,1.515,0,1,0-1.514,1.515A1.514,1.514,0,0,0,463.7,96.565Z" fill="#1e3f7d" fill-rule="evenodd"/><path d="M463.7,86.375a1.515,1.515,0,1,0-1.514,1.515A1.515,1.515,0,0,0,463.7,86.375Z" fill="#1e3f7d" fill-rule="evenodd"/><path d="M463.7,76.186a1.515,1.515,0,1,0-1.514,1.514A1.515,1.515,0,0,0,463.7,76.186Z" fill="#1e3f7d" fill-rule="evenodd"/><path d="M453.686,127.135a1.514,1.514,0,1,0-1.515,1.514A1.514,1.514,0,0,0,453.686,127.135Z" fill="#1e3f7d" fill-rule="evenodd"/><path d="M453.686,116.945a1.514,1.514,0,1,0-1.515,1.514A1.514,1.514,0,0,0,453.686,116.945Z" fill="#1e3f7d" fill-rule="evenodd"/><path d="M453.686,106.755a1.514,1.514,0,1,0-1.515,1.514A1.514,1.514,0,0,0,453.686,106.755Z" fill="#1e3f7d" fill-rule="evenodd"/><path d="M453.686,96.565a1.514,1.514,0,1,0-1.515,1.515A1.514,1.514,0,0,0,453.686,96.565Z" fill="#1e3f7d" fill-rule="evenodd"/><path d="M453.686,86.375a1.514,1.514,0,1,0-1.515,1.515A1.515,1.515,0,0,0,453.686,86.375Z" fill="#1e3f7d" fill-rule="evenodd"/><path d="M453.686,76.186a1.514,1.514,0,1,0-1.515,1.514A1.515,1.515,0,0,0,453.686,76.186Z" fill="#1e3f7d" fill-rule="evenodd"/><path d="M443.672,127.135a1.514,1.514,0,1,0-1.515,1.514A1.514,1.514,0,0,0,443.672,127.135Z" fill="#1e3f7d" fill-rule="evenodd"/><path d="M443.672,116.945a1.514,1.514,0,1,0-1.515,1.514A1.514,1.514,0,0,0,443.672,116.945Z" fill="#1e3f7d" fill-rule="evenodd"/><path d="M443.672,106.755a1.514,1.514,0,1,0-1.515,1.514A1.514,1.514,0,0,0,443.672,106.755Z" fill="#1e3f7d" fill-rule="evenodd"/><path d="M443.672,96.565a1.514,1.514,0,1,0-1.515,1.515A1.514,1.514,0,0,0,443.672,96.565Z" fill="#1e3f7d" fill-rule="evenodd"/><path d="M443.672,86.375a1.514,1.514,0,1,0-1.515,1.515A1.515,1.515,0,0,0,443.672,86.375Z" fill="#1e3f7d" fill-rule="evenodd"/><path d="M443.672,76.186a1.514,1.514,0,1,0-1.515,1.514A1.515,1.515,0,0,0,443.672,76.186Z" fill="#1e3f7d" fill-rule="evenodd"/><path d="M433.658,127.135a1.514,1.514,0,1,0-1.515,1.514A1.514,1.514,0,0,0,433.658,127.135Z" fill="#1e3f7d" fill-rule="evenodd"/><path d="M433.658,116.945a1.514,1.514,0,1,0-1.515,1.514A1.514,1.514,0,0,0,433.658,116.945Z" fill="#1e3f7d" fill-rule="evenodd"/><path d="M433.658,106.755a1.514,1.514,0,1,0-1.515,1.514A1.515,1.515,0,0,0,433.658,106.755Z" fill="#1e3f7d" fill-rule="evenodd"/><path d="M433.658,96.565a1.514,1.514,0,1,0-1.515,1.515A1.515,1.515,0,0,0,433.658,96.565Z" fill="#1e3f7d" fill-rule="evenodd"/><path d="M433.658,86.375a1.514,1.514,0,1,0-1.515,1.515A1.516,1.516,0,0,0,433.658,86.375Z" fill="#1e3f7d" fill-rule="evenodd"/><path d="M433.658,76.186a1.514,1.514,0,1,0-1.515,1.514A1.516,1.516,0,0,0,433.658,76.186Z" fill="#1e3f7d" fill-rule="evenodd"/><path d="M423.644,127.135a1.515,1.515,0,1,0-1.515,1.514A1.514,1.514,0,0,0,423.644,127.135Z" fill="#1e3f7d" fill-rule="evenodd"/><path d="M423.644,116.945a1.515,1.515,0,1,0-1.515,1.514A1.514,1.514,0,0,0,423.644,116.945Z" fill="#1e3f7d" fill-rule="evenodd"/><path d="M423.644,106.755a1.515,1.515,0,1,0-1.515,1.514A1.515,1.515,0,0,0,423.644,106.755Z" fill="#1e3f7d" fill-rule="evenodd"/><path d="M423.644,96.565a1.515,1.515,0,1,0-1.515,1.515A1.515,1.515,0,0,0,423.644,96.565Z" fill="#1e3f7d" fill-rule="evenodd"/><path d="M423.644,86.375a1.515,1.515,0,1,0-1.515,1.515A1.516,1.516,0,0,0,423.644,86.375Z" fill="#1e3f7d" fill-rule="evenodd"/><path d="M423.644,76.186a1.515,1.515,0,1,0-1.515,1.514A1.516,1.516,0,0,0,423.644,76.186Z" fill="#1e3f7d" fill-rule="evenodd"/><path d="M413.629,127.135a1.514,1.514,0,1,0-1.514,1.514A1.513,1.513,0,0,0,413.629,127.135Z" fill="#1e3f7d" fill-rule="evenodd"/><path d="M413.629,116.945a1.514,1.514,0,1,0-1.514,1.514A1.513,1.513,0,0,0,413.629,116.945Z" fill="#1e3f7d" fill-rule="evenodd"/><path d="M413.629,106.755a1.514,1.514,0,1,0-1.514,1.514A1.514,1.514,0,0,0,413.629,106.755Z" fill="#1e3f7d" fill-rule="evenodd"/><path d="M413.629,96.565a1.514,1.514,0,1,0-1.514,1.515A1.514,1.514,0,0,0,413.629,96.565Z" fill="#1e3f7d" fill-rule="evenodd"/><path d="M413.629,86.375a1.514,1.514,0,1,0-1.514,1.515A1.514,1.514,0,0,0,413.629,86.375Z" fill="#1e3f7d" fill-rule="evenodd"/><path d="M413.629,76.186a1.514,1.514,0,1,0-1.514,1.514A1.514,1.514,0,0,0,413.629,76.186Z" fill="#1e3f7d" fill-rule="evenodd"/><path d="M403.615,127.135a1.514,1.514,0,1,0-1.514,1.514A1.513,1.513,0,0,0,403.615,127.135Z" fill="#1e3f7d" fill-rule="evenodd"/><path d="M403.615,116.945a1.514,1.514,0,1,0-1.514,1.514A1.513,1.513,0,0,0,403.615,116.945Z" fill="#1e3f7d" fill-rule="evenodd"/><path d="M403.615,106.755a1.514,1.514,0,1,0-1.514,1.514A1.514,1.514,0,0,0,403.615,106.755Z" fill="#1e3f7d" fill-rule="evenodd"/><path d="M403.615,96.565A1.514,1.514,0,1,0,402.1,98.08,1.514,1.514,0,0,0,403.615,96.565Z" fill="#1e3f7d" fill-rule="evenodd"/><path d="M403.615,86.375A1.514,1.514,0,1,0,402.1,87.89,1.514,1.514,0,0,0,403.615,86.375Z" fill="#1e3f7d" fill-rule="evenodd"/><path d="M403.615,76.186A1.514,1.514,0,1,0,402.1,77.7,1.514,1.514,0,0,0,403.615,76.186Z" fill="#1e3f7d" fill-rule="evenodd"/><path d="M393.6,127.135a1.514,1.514,0,1,0-1.514,1.514A1.514,1.514,0,0,0,393.6,127.135Z" fill="#1e3f7d" fill-rule="evenodd"/><path d="M393.6,116.945a1.514,1.514,0,1,0-1.514,1.514A1.514,1.514,0,0,0,393.6,116.945Z" fill="#1e3f7d" fill-rule="evenodd"/><path d="M393.6,106.755a1.514,1.514,0,1,0-1.514,1.514A1.514,1.514,0,0,0,393.6,106.755Z" fill="#1e3f7d" fill-rule="evenodd"/><path d="M393.6,96.565a1.514,1.514,0,1,0-1.514,1.515A1.514,1.514,0,0,0,393.6,96.565Z" fill="#1e3f7d" fill-rule="evenodd"/><path d="M393.6,86.375a1.514,1.514,0,1,0-1.514,1.515A1.515,1.515,0,0,0,393.6,86.375Z" fill="#1e3f7d" fill-rule="evenodd"/><path d="M393.6,76.186a1.514,1.514,0,1,0-1.514,1.514A1.515,1.515,0,0,0,393.6,76.186Z" fill="#1e3f7d" fill-rule="evenodd"/><path d="M383.587,127.135a1.514,1.514,0,1,0-1.514,1.514A1.514,1.514,0,0,0,383.587,127.135Z" fill="#1e3f7d" fill-rule="evenodd"/><path d="M383.587,116.945a1.514,1.514,0,1,0-1.514,1.514A1.514,1.514,0,0,0,383.587,116.945Z" fill="#1e3f7d" fill-rule="evenodd"/><path d="M383.587,106.755a1.514,1.514,0,1,0-1.514,1.514A1.514,1.514,0,0,0,383.587,106.755Z" fill="#1e3f7d" fill-rule="evenodd"/><path d="M383.587,96.565a1.514,1.514,0,1,0-1.514,1.515A1.514,1.514,0,0,0,383.587,96.565Z" fill="#1e3f7d" fill-rule="evenodd"/><path d="M383.587,86.375a1.514,1.514,0,1,0-1.514,1.515A1.515,1.515,0,0,0,383.587,86.375Z" fill="#1e3f7d" fill-rule="evenodd"/><path d="M383.587,76.186a1.514,1.514,0,1,0-1.514,1.514A1.515,1.515,0,0,0,383.587,76.186Z" fill="#1e3f7d" fill-rule="evenodd"/><path d="M373.573,127.135a1.514,1.514,0,1,0-1.514,1.514A1.514,1.514,0,0,0,373.573,127.135Z" fill="#1e3f7d" fill-rule="evenodd"/><path d="M373.573,116.945a1.514,1.514,0,1,0-1.514,1.514A1.514,1.514,0,0,0,373.573,116.945Z" fill="#1e3f7d" fill-rule="evenodd"/><path d="M373.573,106.755a1.514,1.514,0,1,0-1.514,1.514A1.514,1.514,0,0,0,373.573,106.755Z" fill="#1e3f7d" fill-rule="evenodd"/><path d="M373.573,96.565a1.514,1.514,0,1,0-1.514,1.515A1.514,1.514,0,0,0,373.573,96.565Z" fill="#1e3f7d" fill-rule="evenodd"/><path d="M373.573,86.375a1.514,1.514,0,1,0-1.514,1.515A1.515,1.515,0,0,0,373.573,86.375Z" fill="#1e3f7d" fill-rule="evenodd"/><path d="M373.573,76.186a1.514,1.514,0,1,0-1.514,1.514A1.515,1.515,0,0,0,373.573,76.186Z" fill="#1e3f7d" fill-rule="evenodd"/><path d="M41.344,528.5h80.387A98.552,98.552,0,0,1,219.076,431.6V351.213C121.547,351.755,42.115,430.988,41.344,528.5Zm82.374,2H39.336l0-1A180.751,180.751,0,0,1,220.076,349.21h1v84.384h-1a96.54,96.54,0,0,0-96.354,95.914Z" fill="rgba(254,182,0,0.19)"/><path d="M244.124,169.027H170.232V95.137Z" fill="rgba(244,216,214,0.39)"/><path d="M218.673,185.106h7.144l-3.572-6.157Z" fill="#7264cc"/><path d="M218.673,197.076h7.144l-3.572-6.157Z" fill="#7264cc"/><path d="M243.3,197.076h7.048l.063-.056-3.539-6.1Z" fill="#7264cc"/><path d="M218.673,173.136h7.144l-3.572-6.157Z" fill="#7264cc"/><path d="M230.985,185.106h7.143l-3.571-6.157Z" fill="#7264cc"/><path d="M230.985,197.076h7.143l-3.571-6.157Z" fill="#7264cc"/><path d="M194.05,173.136h7.144l-3.572-6.157Z" fill="#7264cc"/><path d="M194.05,161.166h7.144l-3.572-6.158Z" fill="#7264cc"/><path d="M194.05,149.2h7.144l-3.572-6.157Z" fill="#7264cc"/><path d="M206.362,161.166h7.143l-3.571-6.158Z" fill="#7264cc"/><path d="M206.362,197.076h7.143l-3.571-6.157Z" fill="#7264cc"/><path d="M206.362,185.106h7.143l-3.571-6.157Z" fill="#7264cc"/><path d="M206.362,173.136h7.143l-3.571-6.157Z" fill="#7264cc"/><path d="M194.05,197.076h7.144l-3.572-6.157Z" fill="#7264cc"/><path d="M194.05,185.106h7.144l-3.572-6.157Z" fill="#7264cc"/><path d="M287.658,485.413l-21.029-15.7,15.706-21.028,21.029,15.705Z" fill="#7ccad0"/><path d="M277.5,470.127l20.228,15.107,15.107-20.227L292.608,449.9Zm20.431,16.507-21.83-16.3,16.3-21.83,21.83,16.3Z" fill="#231815"/><path d="M714.685,95.546l-21.029-15.7,15.706-21.029,21.029,15.706Z" fill="#feb600"/><path d="M704.527,80.26l20.228,15.108L739.862,75.14,719.635,60.033Zm20.431,16.507-21.83-16.3,16.3-21.83,21.829,16.3Z"/></g></svg>