<svg xmlns="http://www.w3.org/2000/svg" width="526.087" height="610.94" viewBox="0 0 526.087 610.94"><g transform="translate(1595.703 -8306.615)"><g transform="translate(4721.589 1905.178) rotate(45)"><circle cx="5.5" cy="5.5" r="5.5" transform="translate(230 8823)" fill="#361f4a"/><circle cx="5.5" cy="5.5" r="5.5" transform="translate(261 8823)" fill="#361f4a"/><circle cx="5.5" cy="5.5" r="5.5" transform="translate(292 8823)" fill="#361f4a"/><circle cx="5.5" cy="5.5" r="5.5" transform="translate(323 8823)" fill="#361f4a"/><circle cx="5.5" cy="5.5" r="5.5" transform="translate(351 8823)" fill="#361f4a"/><circle cx="5.5" cy="5.5" r="5.5" transform="translate(381 8823)" fill="#361f4a"/><circle cx="5.5" cy="5.5" r="5.5" transform="translate(411 8823)" fill="#361f4a"/><circle cx="5.5" cy="5.5" r="5.5" transform="translate(442 8823)" fill="#361f4a"/><circle cx="5.5" cy="5.5" r="5.5" transform="translate(470 8823)" fill="#361f4a"/><circle cx="5.5" cy="5.5" r="5.5" transform="translate(501 8823)" fill="#361f4a"/><circle cx="5.5" cy="5.5" r="5.5" transform="translate(532 8823)" fill="#361f4a"/><circle cx="5.5" cy="5.5" r="5.5" transform="translate(562 8823)" fill="#361f4a"/><circle cx="5.5" cy="5.5" r="5.5" transform="translate(592 8823)" fill="#361f4a"/><circle cx="5.5" cy="5.5" r="5.5" transform="translate(622 8823)" fill="#361f4a"/></g><g transform="translate(4700.375 1926.391) rotate(45)"><circle cx="5.5" cy="5.5" r="5.5" transform="translate(230 8823)" fill="#361f4a"/><circle cx="5.5" cy="5.5" r="5.5" transform="translate(261 8823)" fill="#361f4a"/><circle cx="5.5" cy="5.5" r="5.5" transform="translate(292 8823)" fill="#361f4a"/><circle cx="5.5" cy="5.5" r="5.5" transform="translate(323 8823)" fill="#361f4a"/><circle cx="5.5" cy="5.5" r="5.5" transform="translate(351 8823)" fill="#361f4a"/><circle cx="5.5" cy="5.5" r="5.5" transform="translate(381 8823)" fill="#361f4a"/><circle cx="5.5" cy="5.5" r="5.5" transform="translate(411 8823)" fill="#361f4a"/><circle cx="5.5" cy="5.5" r="5.5" transform="translate(442 8823)" fill="#361f4a"/><circle cx="5.5" cy="5.5" r="5.5" transform="translate(470 8823)" fill="#361f4a"/><circle cx="5.5" cy="5.5" r="5.5" transform="translate(501 8823)" fill="#361f4a"/><circle cx="5.5" cy="5.5" r="5.5" transform="translate(532 8823)" fill="#361f4a"/><circle cx="5.5" cy="5.5" r="5.5" transform="translate(562 8823)" fill="#361f4a"/><circle cx="5.5" cy="5.5" r="5.5" transform="translate(592 8823)" fill="#361f4a"/><circle cx="5.5" cy="5.5" r="5.5" transform="translate(622 8823)" fill="#361f4a"/></g><g transform="translate(4679.163 1947.604) rotate(45)"><circle cx="5.5" cy="5.5" r="5.5" transform="translate(230 8823)" fill="#361f4a"/><circle cx="5.5" cy="5.5" r="5.5" transform="translate(261 8823)" fill="#361f4a"/><circle cx="5.5" cy="5.5" r="5.5" transform="translate(292 8823)" fill="#361f4a"/><circle cx="5.5" cy="5.5" r="5.5" transform="translate(323 8823)" fill="#361f4a"/><circle cx="5.5" cy="5.5" r="5.5" transform="translate(351 8823)" fill="#361f4a"/><circle cx="5.5" cy="5.5" r="5.5" transform="translate(381 8823)" fill="#361f4a"/><circle cx="5.5" cy="5.5" r="5.5" transform="translate(411 8823)" fill="#361f4a"/><circle cx="5.5" cy="5.5" r="5.5" transform="translate(442 8823)" fill="#361f4a"/><circle cx="5.5" cy="5.5" r="5.5" transform="translate(470 8823)" fill="#361f4a"/><circle cx="5.5" cy="5.5" r="5.5" transform="translate(501 8823)" fill="#361f4a"/><circle cx="5.5" cy="5.5" r="5.5" transform="translate(532 8823)" fill="#361f4a"/><circle cx="5.5" cy="5.5" r="5.5" transform="translate(562 8823)" fill="#361f4a"/><circle cx="5.5" cy="5.5" r="5.5" transform="translate(592 8823)" fill="#361f4a"/><circle cx="5.5" cy="5.5" r="5.5" transform="translate(622 8823)" fill="#361f4a"/></g><g transform="translate(4657.949 1968.817) rotate(45)"><circle cx="5.5" cy="5.5" r="5.5" transform="translate(230 8823)" fill="#361f4a"/><circle cx="5.5" cy="5.5" r="5.5" transform="translate(261 8823)" fill="#361f4a"/><circle cx="5.5" cy="5.5" r="5.5" transform="translate(292 8823)" fill="#361f4a"/><circle cx="5.5" cy="5.5" r="5.5" transform="translate(323 8823)" fill="#361f4a"/><circle cx="5.5" cy="5.5" r="5.5" transform="translate(351 8823)" fill="#361f4a"/><circle cx="5.5" cy="5.5" r="5.5" transform="translate(381 8823)" fill="#361f4a"/><circle cx="5.5" cy="5.5" r="5.5" transform="translate(411 8823)" fill="#361f4a"/><circle cx="5.5" cy="5.5" r="5.5" transform="translate(442 8823)" fill="#361f4a"/><circle cx="5.5" cy="5.5" r="5.5" transform="translate(470 8823)" fill="#361f4a"/><circle cx="5.5" cy="5.5" r="5.5" transform="translate(501 8823)" fill="#361f4a"/><circle cx="5.5" cy="5.5" r="5.5" transform="translate(532 8823)" fill="#361f4a"/><circle cx="5.5" cy="5.5" r="5.5" transform="translate(562 8823)" fill="#361f4a"/><circle cx="5.5" cy="5.5" r="5.5" transform="translate(592 8823)" fill="#361f4a"/><circle cx="5.5" cy="5.5" r="5.5" transform="translate(622 8823)" fill="#361f4a"/></g><g transform="translate(4636.736 1990.031) rotate(45)"><circle cx="5.5" cy="5.5" r="5.5" transform="translate(230 8823)" fill="#361f4a"/><circle cx="5.5" cy="5.5" r="5.5" transform="translate(261 8823)" fill="#361f4a"/><circle cx="5.5" cy="5.5" r="5.5" transform="translate(292 8823)" fill="#361f4a"/><circle cx="5.5" cy="5.5" r="5.5" transform="translate(323 8823)" fill="#361f4a"/><circle cx="5.5" cy="5.5" r="5.5" transform="translate(351 8823)" fill="#361f4a"/><circle cx="5.5" cy="5.5" r="5.5" transform="translate(381 8823)" fill="#361f4a"/><circle cx="5.5" cy="5.5" r="5.5" transform="translate(411 8823)" fill="#361f4a"/><circle cx="5.5" cy="5.5" r="5.5" transform="translate(442 8823)" fill="#361f4a"/><circle cx="5.5" cy="5.5" r="5.5" transform="translate(470 8823)" fill="#361f4a"/><circle cx="5.5" cy="5.5" r="5.5" transform="translate(501 8823)" fill="#361f4a"/><circle cx="5.5" cy="5.5" r="5.5" transform="translate(532 8823)" fill="#361f4a"/><circle cx="5.5" cy="5.5" r="5.5" transform="translate(562 8823)" fill="#361f4a"/><circle cx="5.5" cy="5.5" r="5.5" transform="translate(592 8823)" fill="#361f4a"/><circle cx="5.5" cy="5.5" r="5.5" transform="translate(622 8823)" fill="#361f4a"/></g><g transform="translate(4615.523 2011.244) rotate(45)"><circle cx="5.5" cy="5.5" r="5.5" transform="translate(230 8823)" fill="#361f4a"/><circle cx="5.5" cy="5.5" r="5.5" transform="translate(261 8823)" fill="#361f4a"/><circle cx="5.5" cy="5.5" r="5.5" transform="translate(292 8823)" fill="#361f4a"/><circle cx="5.5" cy="5.5" r="5.5" transform="translate(323 8823)" fill="#361f4a"/><circle cx="5.5" cy="5.5" r="5.5" transform="translate(351 8823)" fill="#361f4a"/><circle cx="5.5" cy="5.5" r="5.5" transform="translate(381 8823)" fill="#361f4a"/><circle cx="5.5" cy="5.5" r="5.5" transform="translate(411 8823)" fill="#361f4a"/><circle cx="5.5" cy="5.5" r="5.5" transform="translate(442 8823)" fill="#361f4a"/><circle cx="5.5" cy="5.5" r="5.5" transform="translate(470 8823)" fill="#361f4a"/><circle cx="5.5" cy="5.5" r="5.5" transform="translate(501 8823)" fill="#361f4a"/><circle cx="5.5" cy="5.5" r="5.5" transform="translate(532 8823)" fill="#361f4a"/><circle cx="5.5" cy="5.5" r="5.5" transform="translate(562 8823)" fill="#361f4a"/><circle cx="5.5" cy="5.5" r="5.5" transform="translate(592 8823)" fill="#361f4a"/><circle cx="5.5" cy="5.5" r="5.5" transform="translate(622 8823)" fill="#361f4a"/></g><g transform="translate(4594.31 2032.457) rotate(45)"><circle cx="5.5" cy="5.5" r="5.5" transform="translate(230 8823)" fill="#361f4a"/><circle cx="5.5" cy="5.5" r="5.5" transform="translate(261 8823)" fill="#361f4a"/><circle cx="5.5" cy="5.5" r="5.5" transform="translate(292 8823)" fill="#361f4a"/><circle cx="5.5" cy="5.5" r="5.5" transform="translate(323 8823)" fill="#361f4a"/><circle cx="5.5" cy="5.5" r="5.5" transform="translate(351 8823)" fill="#361f4a"/><circle cx="5.5" cy="5.5" r="5.5" transform="translate(381 8823)" fill="#361f4a"/><circle cx="5.5" cy="5.5" r="5.5" transform="translate(411 8823)" fill="#361f4a"/><circle cx="5.5" cy="5.5" r="5.5" transform="translate(442 8823)" fill="#361f4a"/><circle cx="5.5" cy="5.5" r="5.5" transform="translate(470 8823)" fill="#361f4a"/><circle cx="5.5" cy="5.5" r="5.5" transform="translate(501 8823)" fill="#361f4a"/><circle cx="5.5" cy="5.5" r="5.5" transform="translate(532 8823)" fill="#361f4a"/><circle cx="5.5" cy="5.5" r="5.5" transform="translate(562 8823)" fill="#361f4a"/><circle cx="5.5" cy="5.5" r="5.5" transform="translate(592 8823)" fill="#361f4a"/><circle cx="5.5" cy="5.5" r="5.5" transform="translate(622 8823)" fill="#361f4a"/></g><g transform="translate(4573.097 2053.67) rotate(45)"><circle cx="5.5" cy="5.5" r="5.5" transform="translate(230 8823)" fill="#361f4a"/><circle cx="5.5" cy="5.5" r="5.5" transform="translate(261 8823)" fill="#361f4a"/><circle cx="5.5" cy="5.5" r="5.5" transform="translate(292 8823)" fill="#361f4a"/><circle cx="5.5" cy="5.5" r="5.5" transform="translate(323 8823)" fill="#361f4a"/><circle cx="5.5" cy="5.5" r="5.5" transform="translate(351 8823)" fill="#361f4a"/><circle cx="5.5" cy="5.5" r="5.5" transform="translate(381 8823)" fill="#361f4a"/><circle cx="5.5" cy="5.5" r="5.5" transform="translate(411 8823)" fill="#361f4a"/><circle cx="5.5" cy="5.5" r="5.5" transform="translate(442 8823)" fill="#361f4a"/><circle cx="5.5" cy="5.5" r="5.5" transform="translate(470 8823)" fill="#361f4a"/><circle cx="5.5" cy="5.5" r="5.5" transform="translate(501 8823)" fill="#361f4a"/><circle cx="5.5" cy="5.5" r="5.5" transform="translate(532 8823)" fill="#361f4a"/><circle cx="5.5" cy="5.5" r="5.5" transform="translate(562 8823)" fill="#361f4a"/><circle cx="5.5" cy="5.5" r="5.5" transform="translate(592 8823)" fill="#361f4a"/><circle cx="5.5" cy="5.5" r="5.5" transform="translate(622 8823)" fill="#361f4a"/></g><g transform="translate(4551.883 2074.883) rotate(45)"><circle cx="5.5" cy="5.5" r="5.5" transform="translate(230 8823)" fill="#361f4a"/><circle cx="5.5" cy="5.5" r="5.5" transform="translate(261 8823)" fill="#361f4a"/><circle cx="5.5" cy="5.5" r="5.5" transform="translate(292 8823)" fill="#361f4a"/><circle cx="5.5" cy="5.5" r="5.5" transform="translate(323 8823)" fill="#361f4a"/><circle cx="5.5" cy="5.5" r="5.5" transform="translate(351 8823)" fill="#361f4a"/><circle cx="5.5" cy="5.5" r="5.5" transform="translate(381 8823)" fill="#361f4a"/><circle cx="5.5" cy="5.5" r="5.5" transform="translate(411 8823)" fill="#361f4a"/><circle cx="5.5" cy="5.5" r="5.5" transform="translate(442 8823)" fill="#361f4a"/><circle cx="5.5" cy="5.5" r="5.5" transform="translate(470 8823)" fill="#361f4a"/><circle cx="5.5" cy="5.5" r="5.5" transform="translate(501 8823)" fill="#361f4a"/><circle cx="5.5" cy="5.5" r="5.5" transform="translate(532 8823)" fill="#361f4a"/><circle cx="5.5" cy="5.5" r="5.5" transform="translate(562 8823)" fill="#361f4a"/><circle cx="5.5" cy="5.5" r="5.5" transform="translate(592 8823)" fill="#361f4a"/><circle cx="5.5" cy="5.5" r="5.5" transform="translate(622 8823)" fill="#361f4a"/></g><g transform="translate(4530.67 2096.096) rotate(45)"><circle cx="5.5" cy="5.5" r="5.5" transform="translate(230 8823)" fill="#361f4a"/><circle cx="5.5" cy="5.5" r="5.5" transform="translate(261 8823)" fill="#361f4a"/><circle cx="5.5" cy="5.5" r="5.5" transform="translate(292 8823)" fill="#361f4a"/><circle cx="5.5" cy="5.5" r="5.5" transform="translate(323 8823)" fill="#361f4a"/><circle cx="5.5" cy="5.5" r="5.5" transform="translate(351 8823)" fill="#361f4a"/><circle cx="5.5" cy="5.5" r="5.5" transform="translate(381 8823)" fill="#361f4a"/><circle cx="5.5" cy="5.5" r="5.5" transform="translate(411 8823)" fill="#361f4a"/><circle cx="5.5" cy="5.5" r="5.5" transform="translate(442 8823)" fill="#361f4a"/><circle cx="5.5" cy="5.5" r="5.5" transform="translate(470 8823)" fill="#361f4a"/><circle cx="5.5" cy="5.5" r="5.5" transform="translate(501 8823)" fill="#361f4a"/><circle cx="5.5" cy="5.5" r="5.5" transform="translate(532 8823)" fill="#361f4a"/><circle cx="5.5" cy="5.5" r="5.5" transform="translate(562 8823)" fill="#361f4a"/><circle cx="5.5" cy="5.5" r="5.5" transform="translate(592 8823)" fill="#361f4a"/><circle cx="5.5" cy="5.5" r="5.5" transform="translate(622 8823)" fill="#361f4a"/></g><g transform="translate(4509.457 2117.31) rotate(45)"><circle cx="5.5" cy="5.5" r="5.5" transform="translate(230 8823)" fill="#361f4a"/><circle cx="5.5" cy="5.5" r="5.5" transform="translate(261 8823)" fill="#361f4a"/><circle cx="5.5" cy="5.5" r="5.5" transform="translate(292 8823)" fill="#361f4a"/><circle cx="5.5" cy="5.5" r="5.5" transform="translate(323 8823)" fill="#361f4a"/><circle cx="5.5" cy="5.5" r="5.5" transform="translate(351 8823)" fill="#361f4a"/><circle cx="5.5" cy="5.5" r="5.5" transform="translate(381 8823)" fill="#361f4a"/><circle cx="5.5" cy="5.5" r="5.5" transform="translate(411 8823)" fill="#361f4a"/><circle cx="5.5" cy="5.5" r="5.5" transform="translate(442 8823)" fill="#361f4a"/><circle cx="5.5" cy="5.5" r="5.5" transform="translate(470 8823)" fill="#361f4a"/><circle cx="5.5" cy="5.5" r="5.5" transform="translate(501 8823)" fill="#361f4a"/><circle cx="5.5" cy="5.5" r="5.5" transform="translate(532 8823)" fill="#361f4a"/><circle cx="5.5" cy="5.5" r="5.5" transform="translate(562 8823)" fill="#361f4a"/><circle cx="5.5" cy="5.5" r="5.5" transform="translate(592 8823)" fill="#361f4a"/><circle cx="5.5" cy="5.5" r="5.5" transform="translate(622 8823)" fill="#361f4a"/></g><g transform="translate(4488.244 2138.523) rotate(45)"><circle cx="5.5" cy="5.5" r="5.5" transform="translate(230 8823)" fill="#361f4a"/><circle cx="5.5" cy="5.5" r="5.5" transform="translate(261 8823)" fill="#361f4a"/><circle cx="5.5" cy="5.5" r="5.5" transform="translate(292 8823)" fill="#361f4a"/><circle cx="5.5" cy="5.5" r="5.5" transform="translate(323 8823)" fill="#361f4a"/><circle cx="5.5" cy="5.5" r="5.5" transform="translate(351 8823)" fill="#361f4a"/><circle cx="5.5" cy="5.5" r="5.5" transform="translate(381 8823)" fill="#361f4a"/><circle cx="5.5" cy="5.5" r="5.5" transform="translate(411 8823)" fill="#361f4a"/><circle cx="5.5" cy="5.5" r="5.5" transform="translate(442 8823)" fill="#361f4a"/><circle cx="5.5" cy="5.5" r="5.5" transform="translate(470 8823)" fill="#361f4a"/><circle cx="5.5" cy="5.5" r="5.5" transform="translate(501 8823)" fill="#361f4a"/><circle cx="5.5" cy="5.5" r="5.5" transform="translate(532 8823)" fill="#361f4a"/><circle cx="5.5" cy="5.5" r="5.5" transform="translate(562 8823)" fill="#361f4a"/><circle cx="5.5" cy="5.5" r="5.5" transform="translate(592 8823)" fill="#361f4a"/><circle cx="5.5" cy="5.5" r="5.5" transform="translate(622 8823)" fill="#361f4a"/></g><g transform="translate(4467.03 2159.736) rotate(45)"><circle cx="5.5" cy="5.5" r="5.5" transform="translate(261 8823)" fill="#361f4a"/><circle cx="5.5" cy="5.5" r="5.5" transform="translate(292 8823)" fill="#361f4a"/><circle cx="5.5" cy="5.5" r="5.5" transform="translate(323 8823)" fill="#361f4a"/><circle cx="5.5" cy="5.5" r="5.5" transform="translate(351 8823)" fill="#361f4a"/><circle cx="5.5" cy="5.5" r="5.5" transform="translate(381 8823)" fill="#361f4a"/><circle cx="5.5" cy="5.5" r="5.5" transform="translate(411 8823)" fill="#361f4a"/><circle cx="5.5" cy="5.5" r="5.5" transform="translate(442 8823)" fill="#361f4a"/><circle cx="5.5" cy="5.5" r="5.5" transform="translate(470 8823)" fill="#361f4a"/><circle cx="5.5" cy="5.5" r="5.5" transform="translate(501 8823)" fill="#361f4a"/><circle cx="5.5" cy="5.5" r="5.5" transform="translate(532 8823)" fill="#361f4a"/><circle cx="5.5" cy="5.5" r="5.5" transform="translate(562 8823)" fill="#361f4a"/><circle cx="5.5" cy="5.5" r="5.5" transform="translate(592 8823)" fill="#361f4a"/><circle cx="5.5" cy="5.5" r="5.5" transform="translate(622 8823)" fill="#361f4a"/></g><g transform="translate(4445.817 2180.949) rotate(45)"><circle cx="5.5" cy="5.5" r="5.5" transform="translate(292 8823)" fill="#361f4a"/><circle cx="5.5" cy="5.5" r="5.5" transform="translate(323 8823)" fill="#361f4a"/><circle cx="5.5" cy="5.5" r="5.5" transform="translate(351 8823)" fill="#361f4a"/><circle cx="5.5" cy="5.5" r="5.5" transform="translate(381 8823)" fill="#361f4a"/><circle cx="5.5" cy="5.5" r="5.5" transform="translate(411 8823)" fill="#361f4a"/><circle cx="5.5" cy="5.5" r="5.5" transform="translate(442 8823)" fill="#361f4a"/><circle cx="5.5" cy="5.5" r="5.5" transform="translate(470 8823)" fill="#361f4a"/><circle cx="5.5" cy="5.5" r="5.5" transform="translate(501 8823)" fill="#361f4a"/><circle cx="5.5" cy="5.5" r="5.5" transform="translate(532 8823)" fill="#361f4a"/><circle cx="5.5" cy="5.5" r="5.5" transform="translate(562 8823)" fill="#361f4a"/><circle cx="5.5" cy="5.5" r="5.5" transform="translate(592 8823)" fill="#361f4a"/><circle cx="5.5" cy="5.5" r="5.5" transform="translate(622 8823)" fill="#361f4a"/></g><g transform="translate(4424.604 2202.163) rotate(45)"><circle cx="5.5" cy="5.5" r="5.5" transform="translate(323 8823)" fill="#361f4a"/><circle cx="5.5" cy="5.5" r="5.5" transform="translate(351 8823)" fill="#361f4a"/><circle cx="5.5" cy="5.5" r="5.5" transform="translate(381 8823)" fill="#361f4a"/><circle cx="5.5" cy="5.5" r="5.5" transform="translate(411 8823)" fill="#361f4a"/><circle cx="5.5" cy="5.5" r="5.5" transform="translate(442 8823)" fill="#361f4a"/><circle cx="5.5" cy="5.5" r="5.5" transform="translate(470 8823)" fill="#361f4a"/><circle cx="5.5" cy="5.5" r="5.5" transform="translate(501 8823)" fill="#361f4a"/><circle cx="5.5" cy="5.5" r="5.5" transform="translate(532 8823)" fill="#361f4a"/><circle cx="5.5" cy="5.5" r="5.5" transform="translate(562 8823)" fill="#361f4a"/><circle cx="5.5" cy="5.5" r="5.5" transform="translate(592 8823)" fill="#361f4a"/><circle cx="5.5" cy="5.5" r="5.5" transform="translate(622 8823)" fill="#361f4a"/></g><g transform="translate(4403.391 2223.376) rotate(45)"><circle cx="5.5" cy="5.5" r="5.5" transform="translate(351 8823)" fill="#361f4a"/><circle cx="5.5" cy="5.5" r="5.5" transform="translate(381 8823)" fill="#361f4a"/><circle cx="5.5" cy="5.5" r="5.5" transform="translate(411 8823)" fill="#361f4a"/><circle cx="5.5" cy="5.5" r="5.5" transform="translate(442 8823)" fill="#361f4a"/><circle cx="5.5" cy="5.5" r="5.5" transform="translate(470 8823)" fill="#361f4a"/><circle cx="5.5" cy="5.5" r="5.5" transform="translate(501 8823)" fill="#361f4a"/><circle cx="5.5" cy="5.5" r="5.5" transform="translate(532 8823)" fill="#361f4a"/><circle cx="5.5" cy="5.5" r="5.5" transform="translate(562 8823)" fill="#361f4a"/><circle cx="5.5" cy="5.5" r="5.5" transform="translate(592 8823)" fill="#361f4a"/><circle cx="5.5" cy="5.5" r="5.5" transform="translate(622 8823)" fill="#361f4a"/></g></g></svg>