<svg xmlns="http://www.w3.org/2000/svg" xmlns:xlink="http://www.w3.org/1999/xlink" width="557.92" height="402.317" viewBox="0 0 557.92 402.317"><defs><linearGradient id="a" x1="-1.02" y1="1" x2="-1.02" gradientUnits="objectBoundingBox"><stop offset="0" stop-color="gray" stop-opacity="0.251"/><stop offset="0.54" stop-color="gray" stop-opacity="0.122"/><stop offset="1" stop-color="gray" stop-opacity="0.102"/></linearGradient><linearGradient id="b" x1="0" y1="0.5" x2="1.001" y2="0.5" xlink:href="#a"/></defs><g transform="translate(-0.001 -0.006)"><path d="M359.166,106.005C323.4,104.766,289.33,93.217,256.8,80.582s-64.755-26.628-99.663-33.323C134.683,42.954,109,42.346,90.912,54.384c-17.4,11.564-23.038,31.585-26.06,50.14-2.276,13.958-3.614,28.637,2.617,41.722,4.33,9.075,12.018,16.7,17.335,25.393,18.491,30.242,5.431,67.54-14.625,97.066-9.381,13.855-20.308,27.067-27.561,41.811S32.008,342.16,38.353,357.2c6.3,14.911,21.285,26.109,37.525,33.985,32.987,16,71.86,20.579,109.765,23.172,83.908,5.737,168.264,3.254,252.394.765,31.136-.923,62.4-1.857,93.037-6.671,17-2.671,34.562-6.912,46.906-17.158,15.677-13.005,19.562-35.026,9.055-51.35-17.617-27.349-66.335-34.143-78.649-63.5-6.779-16.155.183-34.157,10.033-49.138,21.132-32.148,56.554-60.351,58.42-97.091,1.284-25.235-15.746-50.51-42.072-62.449-27.6-12.517-65.866-10.941-86.228,9.776C427.589,98.9,390.746,107.1,359.166,106.005Z" transform="translate(-35 -43.518)" fill="#6c63ff" opacity="0.1"/><g transform="translate(194.784 42.441)" opacity="0.9"><rect width="4.893" height="40.354" rx="2.29" transform="translate(162.823 75.524)" fill="#3a3768"/><rect width="2.745" height="13.287" rx="1.373" transform="translate(0.099 43.909)" fill="#3a3768"/><rect width="3.096" height="23.127" rx="1.548" transform="translate(0 68.231)" fill="#3a3768"/><rect width="2.948" height="23.325" rx="1.474" transform="translate(0.049 99.446)" fill="#3a3768"/><rect width="163.811" height="332.919" rx="38.99" transform="translate(1.654)" fill="#3a3768"/><rect width="22.875" height="4.646" rx="2.323" transform="translate(67.757 9.944)" fill="#e6e8ec"/><circle cx="2.637" cy="2.637" r="2.637" transform="translate(94.089 9.628)" fill="#e6e8ec"/></g><path d="M583.907,146.1H565.144v2.261a10.709,10.709,0,0,1-10.714,10.709H494.647a10.714,10.714,0,0,1-10.714-10.709V146.1H466.35a13.01,13.01,0,0,0-13.01,13.01V448.664a13.01,13.01,0,0,0,13.01,13.01H583.907a13.01,13.01,0,0,0,13.01-13.01V159.11a13.01,13.01,0,0,0-13.01-13.01Z" transform="translate(-246.785 -94.984)" fill="#6c63ff" opacity="0.5"/><rect width="143.691" height="13.262" transform="translate(206.673 73.31)" fill="#e6e8ec"/><rect width="12.161" height="1.106" transform="translate(211.097 76.07)" fill="#3a3768"/><rect width="12.161" height="1.106" transform="translate(211.097 79.388)" fill="#3a3768"/><rect width="12.161" height="1.106" transform="translate(211.097 82.706)" fill="#3a3768"/><path d="M717.73,200.706h-.449l-.173-.138a3.782,3.782,0,0,0,.879-2.419,3.673,3.673,0,1,0-3.654,3.7,3.792,3.792,0,0,0,2.41-.884l.168.143v.454l2.834,2.844.849-.854Zm-3.4,0a2.543,2.543,0,1,1,1.807-.748A2.558,2.558,0,0,1,714.333,200.706Z" transform="translate(-377.044 -119.487)" fill="#3a3768"/><circle cx="6.078" cy="6.078" r="6.078" transform="translate(211.097 104.811)" fill="#e6e8ec"/><rect width="84.559" height="3.318" transform="translate(236.244 116.967)" fill="#e6e8ec"/><rect width="84.559" height="3.318" transform="translate(236.52 124.151)" fill="#e6e8ec"/><rect width="84.559" height="3.318" transform="translate(236.797 131.34)" fill="#e6e8ec"/><circle cx="6.078" cy="6.078" r="6.078" transform="translate(211.097 146.261)" fill="#e6e8ec"/><rect width="84.559" height="3.318" transform="translate(236.244 158.417)" fill="#e6e8ec"/><rect width="84.559" height="3.318" transform="translate(236.52 165.601)" fill="#e6e8ec"/><rect width="84.559" height="3.318" transform="translate(236.797 172.785)" fill="#e6e8ec"/><circle cx="6.078" cy="6.078" r="6.078" transform="translate(211.097 187.711)" fill="#e6e8ec"/><rect width="84.559" height="3.318" transform="translate(236.244 199.867)" fill="#e6e8ec"/><rect width="84.559" height="3.318" transform="translate(236.52 207.051)" fill="#e6e8ec"/><rect width="84.559" height="3.318" transform="translate(236.797 214.236)" fill="#e6e8ec"/><circle cx="6.078" cy="6.078" r="6.078" transform="translate(211.097 229.161)" fill="#e6e8ec"/><rect width="84.559" height="3.318" transform="translate(236.244 241.318)" fill="#e6e8ec"/><rect width="84.559" height="3.318" transform="translate(236.52 248.502)" fill="#e6e8ec"/><rect width="84.559" height="3.318" transform="translate(236.797 255.686)" fill="#e6e8ec"/><circle cx="6.078" cy="6.078" r="6.078" transform="translate(211.097 270.612)" fill="#e6e8ec"/><rect width="84.559" height="3.318" transform="translate(236.244 282.768)" fill="#e6e8ec"/><rect width="84.559" height="3.318" transform="translate(236.52 289.952)" fill="#e6e8ec"/><rect width="84.559" height="3.318" transform="translate(236.797 297.136)" fill="#e6e8ec"/><circle cx="6.078" cy="6.078" r="6.078" transform="translate(211.097 312.062)" fill="#e6e8ec"/><rect width="84.559" height="3.318" transform="translate(236.244 324.218)" fill="#e6e8ec"/><rect width="84.559" height="3.318" transform="translate(236.52 331.402)" fill="#e6e8ec"/><rect width="84.559" height="3.318" transform="translate(236.797 338.586)" fill="#e6e8ec"/><circle cx="15.474" cy="15.474" r="15.474" transform="translate(305.601 326.43)" opacity="0.1"/><circle cx="13.815" cy="13.815" r="13.815" transform="translate(307.26 328.089)" fill="#6c63ff"/><path d="M321.1,158.365l-27.023,14.6a.563.563,0,0,0,.04.987l4.612,1.733a1.121,1.121,0,0,1,.607.568l3.58,7.377c.069.326.671.41.676.079l-.548-6.093a2.192,2.192,0,0,1,.494-1.234l14.013-13.726a.346.346,0,0,1,.306-.089.321.321,0,0,1,.173.494L305.954,177.9a2.691,2.691,0,0,0-.494,1.215l-.7,5.263c.059.459.42.632.706.222l2.6-3.056a.543.543,0,0,1,.765-.128l6.705,4.888a.543.543,0,0,0,.854-.331l5.5-27a.548.548,0,0,0-.79-.607Z" transform="translate(-166.02 -101.161)" fill="#6c63ff"/><path d="M899.014,169.945l-27.023,14.62a.563.563,0,0,0,.044.987l4.607,1.738a1.071,1.071,0,0,1,.607.568l3.585,7.372c.069.326.667.415.676.084l-.548-6.1a2.163,2.163,0,0,1,.494-1.229l14.008-13.726a.336.336,0,0,1,.306-.089.321.321,0,0,1,.178.494l-12.082,14.773a2.7,2.7,0,0,0-.494,1.22l-.726,5.263c.059.459.42.637.711.222l2.6-3.051a.543.543,0,0,1,.765-.128l6.705,4.883a.538.538,0,0,0,.849-.331l5.5-27a.548.548,0,0,0-.79-.607Z" transform="translate(-458.591 -107.003)" fill="#6c63ff"/><path d="M570.133,61.652l-18.451,9.979a.385.385,0,0,0,.025.691l3.15,1.185a.755.755,0,0,1,.415.385l2.469,5.036c.049.222.459.281.464.059l-.375-4.167a1.51,1.51,0,0,1,.336-.839l9.569-9.381a.227.227,0,0,1,.207-.059.217.217,0,0,1,.118.351l-8.246,10.087a1.846,1.846,0,0,0-.321.829L559,79.4c.039.316.281.435.494.153l1.777-2.084a.37.37,0,0,1,.494-.089l4.577,3.338a.37.37,0,0,0,.583-.227l3.757-18.437a.37.37,0,0,0-.538-.415Z" transform="translate(-296.468 -52.204)" fill="#6c63ff"/><path d="M782.808,42.633l-18.451,9.984a.385.385,0,0,0,.025.686l3.15,1.185a.745.745,0,0,1,.415.39l2.444,5.031c.049.222.459.281.464.059l-.356-4.162a1.516,1.516,0,0,1,.336-.844L780.4,45.58a.227.227,0,0,1,.207-.059.217.217,0,0,1,.118.351l-8.255,10.1a1.847,1.847,0,0,0-.321.829l-.494,3.6c.039.311.286.43.494.148l1.778-2.084a.37.37,0,0,1,.518-.089l4.582,3.338a.365.365,0,0,0,.578-.227l3.728-18.437a.37.37,0,0,0-.538-.415Z" transform="translate(-404.137 -42.58)" fill="#6c63ff"/><path d="M887.081,297.782l-54.47-4.5a.987.987,0,0,0-.918,1.54l5.179,7.07a1.931,1.931,0,0,1,.355,1.437L835.391,317.8c-.212.548.6,1.264.928.78l5.115-9.638a3.856,3.856,0,0,1,1.93-1.353l34.217-6.824a.607.607,0,0,1,.538.163.573.573,0,0,1-.237.938L845.527,312.15a4.83,4.83,0,0,0-1.891,1.353l-6.2,7.14c-.356.746,0,1.353.839,1.022l6.848-2.019a.987.987,0,0,1,1.264.553l5.234,13.8a.987.987,0,0,0,1.595.336l34.449-34.873a.987.987,0,0,0-.588-1.674Z" transform="translate(-438.239 -169.494)" fill="#6c63ff"/><path d="M646.094,383.194a8.8,8.8,0,0,0,1.857,1.876c.459.38.933.77,1.427,1.116.138.1.281.193.425.286,0,.025-.03.049-.04.079a1.121,1.121,0,0,0-.128.686,1.481,1.481,0,0,0,.528.711,7.307,7.307,0,0,1,2.227,4.024c.168.894-.434,1.852-.395,2.76a8.04,8.04,0,0,0,.7,2.577,13.915,13.915,0,0,0,3.061,5.3,17.143,17.143,0,0,0,3.432,8.458,27.505,27.505,0,0,0,5.792,5.076,11.256,11.256,0,0,0,2.138,1.343,12.085,12.085,0,0,0,2.118.568,109.214,109.214,0,0,0,18.609,2.1q.262,5.579.227,11.154a4.6,4.6,0,0,1-.257,1.8,8.021,8.021,0,0,1-1.076,1.511c-1.427,1.9-1.481,4.473-1.383,6.848a63.076,63.076,0,0,0,.987,8.285c.647,3.506.054,7.377,1.3,10.714.494,1.318.987,2.632,1.481,3.95a3.487,3.487,0,0,1,.291,1.17,5.159,5.159,0,0,1-.988,2.35,6.809,6.809,0,0,0-.864,3.59.746.746,0,0,0,.1.4c.163.217.494.2.76.158a32,32,0,0,1,3.3-.306,6.049,6.049,0,0,0-.533.785,11.552,11.552,0,0,0-.7,1.442,13.638,13.638,0,0,0-.938,2.577,3.13,3.13,0,0,0-.094.4c-.059.267-.114.538-.158.8a26.656,26.656,0,0,0-.291,4.74,50.228,50.228,0,0,1-.588,6.942c-.4,1.279.1,3.323.6,5.273a12.481,12.481,0,0,0,.716,3.95,23.8,23.8,0,0,0,.494,4.167q2.563,14.437,5.431,28.805c.173.834.336,1.664.558,2.469a20.2,20.2,0,0,0,3.7,7.312,33.236,33.236,0,0,1,3.861,6.182c-.114.523-.232,1.047-.355,1.565-1.086,4.587-2.523,9.11-3.022,13.8a19.122,19.122,0,0,1-.987,5.515,8.454,8.454,0,0,0-.987,2.671,2.963,2.963,0,0,0,.41,1.733c-.128.094-.252.193-.37.291l-.2.168c-1.4,1.116-3.283,1.343-5.012,1.792s-3.59,1.363-4.123,3.081a2.693,2.693,0,0,0-.084.331,4.368,4.368,0,0,0,1.975,4.187,11.093,11.093,0,0,0,4.938,1.516,16.073,16.073,0,0,1,5.081,1.165c1.353.672,2.493,1.773,3.95,2.256l.252.074c-.321.193-.647.38-.987.553a14.867,14.867,0,0,1-4.735,1.481c-1.669.232-3.664.341-4.523,1.8h0a3.2,3.2,0,0,0,.82,3.777,7.845,7.845,0,0,0,3.772,1.669,68.645,68.645,0,0,0,9.381,1.165l3.066.232c2.962.227,5.984.459,8.986.494a61.9,61.9,0,0,0,11.05-.963,1.2,1.2,0,0,0,.879-.425,1.255,1.255,0,0,0,.133-.7,54,54,0,0,0-1.4-11.139c-.252-1.1-1.748.4-2.587,1.348-.109-.548-.237-1.091-.38-1.62l.657-.311a2.365,2.365,0,0,0,1.2-.987,2.415,2.415,0,0,0,.128-1.16c-.118-2.409-.267-4.908-1.412-7.026a14.891,14.891,0,0,0-2.795-3.4,129.8,129.8,0,0,0-2.735-22.535c-.849-3.777-1.9-7.594-4.083-10.788-.272-.4-.568-.8-.864-1.2a97.015,97.015,0,0,0-1.318-10.828,2.8,2.8,0,0,1,0-1.442,4.441,4.441,0,0,1,.795-1.1c1.313-1.694.775-4.1.622-6.246a29.83,29.83,0,0,1,1.229-9.134q1.343-5.55,2.671-11.1a17.985,17.985,0,0,1,.938-3.076,30.377,30.377,0,0,1,2.41-3.881,21.888,21.888,0,0,0,3.348-13.188c.494.178.988.36,1.511.558.37-3.1-.938-6.621,0-9.534a12.254,12.254,0,0,0,3.782-4.5c.731-1.639.938-3.486,1.7-5.11a15.762,15.762,0,0,0,1.294-2.74c.38-1.481-.094-3.022-.074-4.538.049-3.3,2.469-6.369,1.926-9.633-.247-1.55-1.146-2.962-1.1-4.557a7.627,7.627,0,0,1,.637-2.469c1.817-4.814,3.609-9.939,2.676-15a16.988,16.988,0,0,1-.588-3.9c.079-1.506.795-2.962.583-4.468a3.392,3.392,0,0,0-.672-1.565,18.759,18.759,0,0,0,1.654-3.17,4.538,4.538,0,0,0,.439-2.024,3.585,3.585,0,0,0-1.427-2.41,14.442,14.442,0,0,0-2.469-1.437,2.015,2.015,0,0,1-.726-.518,5.323,5.323,0,0,1-.41-.78c-.494-.844-1.545-1.111-2.38-1.62-3.012-1.837-2.721-6.572-5.293-9a5.145,5.145,0,0,0-6.419-.341,1.574,1.574,0,0,1-.908.449,1.743,1.743,0,0,1-.879-.494,3.54,3.54,0,0,0-2.172-.6,20.84,20.84,0,0,1-.652-5.762h.232a3.045,3.045,0,0,0,.9-.1c1.323-.38,2.079-1.748,2.617-3.022a22.953,22.953,0,0,0,1.16-3.318c.03-.109.054-.217.079-.321,2.533,1.778,5.476,3.639,6.177,3.249,1.3-.716-5.8-5.767-5.8-5.767h0a5.651,5.651,0,0,0,1.481-3.259,17.719,17.719,0,0,0,.059-7.135,8.424,8.424,0,0,0-4.073-5.634,9.768,9.768,0,0,1-2.76-1.565h0a1.777,1.777,0,0,1-.267-.365h0a.923.923,0,0,1-.109-.193,2.691,2.691,0,0,0-.3-.583c-.39-.449-1.1-.311-1.684-.242h-.509c-2.1.044-4.143-1.131-6.271-1.131-2.335,0-4.32,1.353-6.374,2.281-.415.188-.81.36-1.18.533a5.327,5.327,0,0,0-2.962,2.691,4.172,4.172,0,0,0-.854,1.654,3.882,3.882,0,0,0-.109.849,14.126,14.126,0,0,0,6.349,23.7c.049.138.1.276.143.415a11.884,11.884,0,0,1,.617,3.95v.281a10.718,10.718,0,0,0-3.046,1.239,5.89,5.89,0,0,0-2.568,3.155,3.071,3.071,0,0,0-.079.3,8.127,8.127,0,0,0-2.321-.4,2.492,2.492,0,0,0-1.975.6,1.822,1.822,0,0,0-.375.765c-.272.252-.326.686-.494,1.017-.6,1.042-2.138.7-3.3.987-1.259.311-2.251,1.481-3.55,1.481a6.064,6.064,0,0,0-1.481-.054c-.494.118-.869.785-.494,1.121a1.575,1.575,0,0,0-1.481.716c-.355.464-.593,1.017-.988,1.452a1.511,1.511,0,0,0-1.54-.6,5.719,5.719,0,0,0-1.624.642,2.333,2.333,0,0,1-.716.252,3.086,3.086,0,0,1-.874-.079,6.982,6.982,0,0,0-4.088.573c-1.126.533-2.207-.444-3.456-.523a1.93,1.93,0,0,1-1.264-.39,2.468,2.468,0,0,1-.494-.987,4.937,4.937,0,0,0-3.614-3.2,4.207,4.207,0,0,0-2.469-5.189,4.488,4.488,0,0,0-1.54-3.91,7.218,7.218,0,0,1-.78-.612,3.741,3.741,0,0,1-.716-1.323l-1.1-2.9c-.494-.1-.864-.3-1.323-.38v-.3a9.518,9.518,0,0,0-.494-2.913,16.317,16.317,0,0,0-2.34-4.261,12.276,12.276,0,0,0-3.762-3.782,13.481,13.481,0,0,0-1.6-.741l-2.824-1.165a1.373,1.373,0,0,0-.494-.138c-.76,0-.9,1.175-.494,1.8.859,1.269,2.795,1.624,3.343,3.061a2.177,2.177,0,0,0-2.019,1.57,1.1,1.1,0,0,1-.272.637c-.247.2-.637.084-.923.237-.494.272-.281,1.022-.336,1.59a7.641,7.641,0,0,1-.494,1.432,3.066,3.066,0,0,0,.439,2.577Zm67.7,197.993c0-.291-.04-.583-.064-.869.059.153.114.311.173.464.494,1.3,1.052,2.587,1.634,3.856l-.1-.054a4.878,4.878,0,0,0-1.348-.385,1.38,1.38,0,0,1-.375-.035,10.527,10.527,0,0,0,.079-2.967Z" transform="translate(-344.088 -199.971)" fill="url(#a)"/><path d="M764.63,415.781c-.054,2.064-.75,4.059-.859,6.118,6.068.3,12.057-2.642,18.071-1.743a8.357,8.357,0,0,1-3.111-4.977,20.772,20.772,0,0,1-.592-7.643,3.142,3.142,0,0,1,.079-.425c.222-.988.8-2.434.642-3.229-.2-1.047-1.19-.839-2.084-.78a78.5,78.5,0,0,0-8.1,1.047c-.7.119-7.5,1.817-7.6,1.639a31.99,31.99,0,0,1,2.962,6.068,11.786,11.786,0,0,1,.6,3.925Z" transform="translate(-402.574 -225.063)" fill="#ee8e9e"/><path d="M646.1,402.848a8.886,8.886,0,0,0,1.857,1.866c.459.38.933.765,1.427,1.111a6.1,6.1,0,0,0,3.037,1.234c1.447.1,4.513-.75,5.431-1.975a3.565,3.565,0,0,0,.518-2.074,9.417,9.417,0,0,0-.494-2.9,16.175,16.175,0,0,0-2.34-4.236,12.485,12.485,0,0,0-3.762-3.762,14.32,14.32,0,0,0-1.6-.741l-2.824-1.155a1.372,1.372,0,0,0-.494-.138c-.76,0-.9,1.165-.494,1.792.859,1.264,2.795,1.615,3.343,3.046a2.168,2.168,0,0,0-2.019,1.56,1.087,1.087,0,0,1-.272.632c-.247.2-.637.089-.923.237-.494.272-.281,1.017-.336,1.585a7.668,7.668,0,0,1-.494,1.422A3.032,3.032,0,0,0,646.1,402.848Z" transform="translate(-344.098 -218.499)" fill="#ee8e9e"/><path d="M803.3,824.772c-.464-.494-1.229-.39-1.881-.286a69.845,69.845,0,0,1-10.591.859c-.444-2.168.844-4.276,1.259-6.453a5.7,5.7,0,0,1,.42-1.629,3.723,3.723,0,0,1,2.681-1.62c1.911-.4,4.893-1.111,5.959.815C802.424,818.773,802.834,822.2,803.3,824.772Z" transform="translate(-417.591 -433.706)" fill="#65617d"/><path d="M735.494,807.386a11.088,11.088,0,0,0,4.937,1.511,16.066,16.066,0,0,1,5.081,1.16c1.353.667,2.493,1.763,3.95,2.242a8.181,8.181,0,0,0,4.073.064c1.61-.3,3.323-.889,4.192-2.276a7,7,0,0,0,.583-4.256c-.123-1.644-.242-3.288-.365-4.937a2.335,2.335,0,0,0-.306-1.19c-1.16-1.7-3.989.706-5.505.706a10.611,10.611,0,0,1-6.7-2.893,2.151,2.151,0,0,0-.523-.395c-.681-.306-1.368.262-1.975.755l-.2.168c-1.4,1.111-3.283,1.338-5.012,1.787s-3.59,1.353-4.123,3.061a2.651,2.651,0,0,0-.084.326A4.278,4.278,0,0,0,735.494,807.386Z" transform="translate(-388.592 -424.521)" fill="#3f3d56"/><path d="M735.494,807.386a11.088,11.088,0,0,0,4.937,1.511,16.066,16.066,0,0,1,5.081,1.16c1.353.667,2.493,1.763,3.95,2.242a8.181,8.181,0,0,0,4.073.064c1.61-.3,3.323-.889,4.192-2.276a7,7,0,0,0,.583-4.256c-.123-1.644-.242-3.288-.365-4.937a2.335,2.335,0,0,0-.306-1.19c-1.16-1.7-3.989.706-5.505.706a10.611,10.611,0,0,1-6.7-2.893,2.151,2.151,0,0,0-.523-.395c-.681-.306-1.368.262-1.975.755l-.2.168c-1.4,1.111-3.283,1.338-5.012,1.787s-3.59,1.353-4.123,3.061a2.651,2.651,0,0,0-.084.326A4.278,4.278,0,0,0,735.494,807.386Z" transform="translate(-388.592 -424.521)" opacity="0.05"/><path d="M735.321,807.959a11.088,11.088,0,0,0,4.938,1.511,16.064,16.064,0,0,1,5.081,1.16c1.353.667,2.493,1.763,3.95,2.242a8.181,8.181,0,0,0,4.073.064,6.729,6.729,0,0,0,4.192-2.829,7,7,0,0,0,.583-4.256c-.123-1.644-.242-3.288-.365-4.937a2.335,2.335,0,0,0-.306-1.19c-1.16-1.7-3.989.706-5.505.706a10.611,10.611,0,0,1-6.7-2.893,2.151,2.151,0,0,0-.523-.395c-.681-.306-1.368.262-1.975.755a14.125,14.125,0,0,0,1.684,3.456,7.263,7.263,0,0,0,5.283,3.308,17.331,17.331,0,0,1,3.209.143c1.037.276,1.975,1.333,1.634,2.345s-1.624,1.195-2.671,1.249a11.833,11.833,0,0,1-4.36-.3c-.849-.286-1.624-.755-2.469-1.1-3.515-1.481-7.954-.642-10.862-3.106a6.528,6.528,0,0,0-.889-.681C732.561,804.834,733.973,807.036,735.321,807.959Z" transform="translate(-388.418 -424.531)" fill="#e8eaf2"/><path d="M735.321,807.959a11.088,11.088,0,0,0,4.938,1.511,16.064,16.064,0,0,1,5.081,1.16c1.353.667,2.493,1.763,3.95,2.242a8.181,8.181,0,0,0,4.073.064,6.729,6.729,0,0,0,4.192-2.829,7,7,0,0,0,.583-4.256c-.123-1.644-.242-3.288-.365-4.937a2.335,2.335,0,0,0-.306-1.19c-1.16-1.7-3.989.706-5.505.706a10.611,10.611,0,0,1-6.7-2.893,2.151,2.151,0,0,0-.523-.395c-.681-.306-1.368.262-1.975.755a14.125,14.125,0,0,0,1.684,3.456,7.263,7.263,0,0,0,5.283,3.308,17.331,17.331,0,0,1,3.209.143c1.037.276,1.975,1.333,1.634,2.345s-1.624,1.195-2.671,1.249a11.833,11.833,0,0,1-4.36-.3c-.849-.286-1.624-.755-2.469-1.1-3.515-1.481-7.954-.642-10.862-3.106a6.528,6.528,0,0,0-.889-.681C732.561,804.834,733.973,807.036,735.321,807.959Z" transform="translate(-388.418 -424.531)" opacity="0.05"/><path d="M773.649,594.773a21.612,21.612,0,0,1-2.963,15.948,29.826,29.826,0,0,0-2.409,3.861,17.829,17.829,0,0,0-.938,3.061l-2.671,11.07a29.89,29.89,0,0,0-1.229,9.085c.153,2.133.691,4.528-.622,6.216a4.444,4.444,0,0,0-.795,1.086,2.779,2.779,0,0,0,0,1.437c1.353,8.018,2.35,16.407-.089,24.164-2.207,7.031-2.335,14.812-4.217,21.952a4.861,4.861,0,0,1-1.165,2.434,3.857,3.857,0,0,1-1.753.834,12.909,12.909,0,0,1-8.275-1.313c-1.817-.839-3.772-2.316-3.614-4.31a9.155,9.155,0,0,1,.987-2.656,18.287,18.287,0,0,0,.987-5.486c.494-4.661,1.935-9.159,3.022-13.721s1.827-9.327.909-13.924a121.871,121.871,0,0,0-8.961-27.556,3.224,3.224,0,0,0-.82-1.229,8.752,8.752,0,0,1-1.16-.795,3.492,3.492,0,0,1-.528-1.447c-.4-1.452-1.6-2.528-2.409-3.8-2.034-3.229-1.387-7.367-1.313-11.178.074-3.708-.459-7.446.148-11.1s2.7-7.406,6.226-8.542a13.387,13.387,0,0,1,5.466-.257A106.478,106.478,0,0,1,773.649,594.773Z" transform="translate(-388.599 -318.923)" fill="#303d5c"/><path d="M773.649,594.773a21.612,21.612,0,0,1-2.963,15.948,29.826,29.826,0,0,0-2.409,3.861,17.829,17.829,0,0,0-.938,3.061l-2.671,11.07a29.89,29.89,0,0,0-1.229,9.085c.153,2.133.691,4.528-.622,6.216a4.444,4.444,0,0,0-.795,1.086,2.779,2.779,0,0,0,0,1.437c1.353,8.018,2.35,16.407-.089,24.164-2.207,7.031-2.335,14.812-4.217,21.952a4.861,4.861,0,0,1-1.165,2.434,3.857,3.857,0,0,1-1.753.834,12.909,12.909,0,0,1-8.275-1.313c-1.817-.839-3.772-2.316-3.614-4.31a9.155,9.155,0,0,1,.987-2.656,18.287,18.287,0,0,0,.987-5.486c.494-4.661,1.935-9.159,3.022-13.721s1.827-9.327.909-13.924a121.871,121.871,0,0,0-8.961-27.556,3.224,3.224,0,0,0-.82-1.229,8.752,8.752,0,0,1-1.16-.795,3.492,3.492,0,0,1-.528-1.447c-.4-1.452-1.6-2.528-2.409-3.8-2.034-3.229-1.387-7.367-1.313-11.178.074-3.708-.459-7.446.148-11.1s2.7-7.406,6.226-8.542a13.387,13.387,0,0,1,5.466-.257A106.478,106.478,0,0,1,773.649,594.773Z" transform="translate(-388.599 -318.923)" opacity="0.05"/><path d="M733.481,619.838a23.2,23.2,0,0,0,.494,4.286q2.563,14.363,5.431,28.637c.173.83.336,1.654.558,2.469a20.07,20.07,0,0,0,3.7,7.273c8.048,10.028,8.744,24.594,13.109,36.685.291.82.588,1.639.9,2.469a61.123,61.123,0,0,0,2.7,6.009,1.693,1.693,0,0,0,.553.716,1.654,1.654,0,0,0,.879.173,25.6,25.6,0,0,0,11.356-2.582,2.35,2.35,0,0,0,1.2-.987,2.4,2.4,0,0,0,.128-1.155c-.119-2.395-.267-4.883-1.412-6.987a14.814,14.814,0,0,0-2.795-3.387,128.457,128.457,0,0,0-2.735-22.416c-.849-3.757-1.9-7.554-4.083-10.734-1.61-2.345-3.915-4.656-3.634-7.485.128-1.244.647-2.79-.365-3.52-.439-.321-1.1-.36-1.392-.82a1.511,1.511,0,0,1-.2-.7,17.4,17.4,0,0,1,.36-5.807,31.271,31.271,0,0,0,.864-3.782,4.748,4.748,0,0,0-.953-3.654c-.054-2.582,0-5.263-.035-7.846a14.623,14.623,0,0,1,.365-4.38c.193-.677.494-1.323.642-2.015.543-2.469-.8-5.431.8-7.406a10.891,10.891,0,0,1,2.572-1.817,9.413,9.413,0,0,0,3.535-5.081,28.073,28.073,0,0,0,.988-6.221,6.491,6.491,0,0,0,0-1.348,2.516,2.516,0,0,0-.183-.671c-.494-1.121-1.837-1.555-3.032-1.842a98.054,98.054,0,0,0-23.157-2.706c-2.884-1.975-4.508-1.264-5.728.82a21.11,21.11,0,0,0-1.634,3.985c-.558,1.684-.593,11.134-1.136,12.837C731.452,613.024,733.481,617.527,733.481,619.838Z" transform="translate(-387.857 -320.742)" fill="#303d5c"/><path d="M820.9,471.07c.212,1.481-.494,2.962-.583,4.444a16.815,16.815,0,0,0,.588,3.881c.933,5.036-.859,10.137-2.676,14.926a7.545,7.545,0,0,0-.637,2.469c-.049,1.56.849,2.992,1.1,4.538.518,3.244-1.876,6.3-1.926,9.579,0,1.511.454,3.051.074,4.513a15.5,15.5,0,0,1-1.294,2.73c-.765,1.615-.988,3.456-1.7,5.081-1.323,2.962-4.167,4.873-6.868,6.641-1.54-.494-3.2-1.121-4.049-2.5a6.2,6.2,0,0,1-.706-2.2,56.712,56.712,0,0,1-.543-10.2,63.585,63.585,0,0,1,.464-8.784c.548-3.7,1.748-7.273,2.612-10.917,1.086-4.6,1.644-9.347,3.338-13.756a46.389,46.389,0,0,1,6.251-10.68c.928-1.274,1.664-3.086,3.456-2.795A3.8,3.8,0,0,1,820.9,471.07Z" transform="translate(-423.123 -257.95)" fill="#3f3d56"/><path d="M820.9,471.07c.212,1.481-.494,2.962-.583,4.444a16.815,16.815,0,0,0,.588,3.881c.933,5.036-.859,10.137-2.676,14.926a7.545,7.545,0,0,0-.637,2.469c-.049,1.56.849,2.992,1.1,4.538.518,3.244-1.876,6.3-1.926,9.579,0,1.511.454,3.051.074,4.513a15.5,15.5,0,0,1-1.294,2.73c-.765,1.615-.988,3.456-1.7,5.081-1.323,2.962-4.167,4.873-6.868,6.641-1.54-.494-3.2-1.121-4.049-2.5a6.2,6.2,0,0,1-.706-2.2,56.712,56.712,0,0,1-.543-10.2,63.585,63.585,0,0,1,.464-8.784c.548-3.7,1.748-7.273,2.612-10.917,1.086-4.6,1.644-9.347,3.338-13.756a46.389,46.389,0,0,1,6.251-10.68c.928-1.274,1.664-3.086,3.456-2.795A3.8,3.8,0,0,1,820.9,471.07Z" transform="translate(-423.123 -257.95)" opacity="0.05"/><path d="M761.07,405.788a31.991,31.991,0,0,1,2.962,6.068,13.9,13.9,0,0,0,3.348.4c4.375,0,7.475-2.469,10.048-5.634.222-.987,1.61-1.95,1.452-2.745-.2-1.047-1.19-.839-2.084-.78a78.5,78.5,0,0,0-8.1,1.047C767.978,404.267,761.169,405.985,761.07,405.788Z" transform="translate(-402.574 -225.063)" opacity="0.1"/><circle cx="14.022" cy="14.022" r="14.022" transform="translate(350.764 158.773)" fill="#ee8e9e"/><path d="M737.93,593.977c2.424-.143,4.868-.049,7.3.049a25.39,25.39,0,0,1,4.538.464c1.842.42,3.565,1.259,5.382,1.782,2.908.849,5.974.884,8.991,1.185a51.691,51.691,0,0,1,5.885.918,2.512,2.512,0,0,0-.183-.672c-.494-1.121-1.837-1.555-3.032-1.842a98.057,98.057,0,0,0-23.157-2.706C740.774,591.2,739.15,591.9,737.93,593.977Z" transform="translate(-390.859 -320.723)" opacity="0.1"/><path d="M741.455,434.854c.612.706,1.432,1.481,2.34,1.254a3.229,3.229,0,0,0,.909-.494,13.7,13.7,0,0,1,5.5-1.575,80.831,80.831,0,0,0,11.356-2.548,11.577,11.577,0,0,1,3.353-.681c2.375,0,4.483,1.595,5.969,3.456s2.528,4.044,4.009,5.915c1.042,1.333,2.281,2.508,3.254,3.9,2.469,3.5,2.963,8.068,2.345,12.294s-2.321,8.216-3.995,12.146a41.859,41.859,0,0,1-3.264,6.582,15.692,15.692,0,0,1-1.259,9.766,9.805,9.805,0,0,0-1.274,2.9,7.339,7.339,0,0,0,.089,2.128l.716,5.076c.217,1.545.435,3.1.716,4.631.494,2.809,1.215,5.856-.089,8.394-1.56,3.041.079,6.947-.331,10.369a52.055,52.055,0,0,0-13.7-3.264c-3.012-.291-6.078-.331-8.986-1.175-1.817-.528-3.54-1.368-5.382-1.787a24.939,24.939,0,0,0-4.538-.464,53.954,53.954,0,0,0-10.068.227c-.272.039-.6.059-.76-.158a.725.725,0,0,1-.1-.395,6.725,6.725,0,0,1,.864-3.57,5.093,5.093,0,0,0,.988-2.34,3.455,3.455,0,0,0-.291-1.165l-1.481-3.95c-1.244-3.318-.652-7.169-1.3-10.655a62.415,62.415,0,0,1-.987-8.241c-.119-2.365-.045-4.937,1.382-6.819a7.765,7.765,0,0,0,1.076-1.481,4.569,4.569,0,0,0,.257-1.792q.044-7.1-.39-14.185c1.244-2.237,2.543-4.523,3.787-6.754a28.99,28.99,0,0,0,3.5-8.172c.385-1.935.37-3.925.647-5.876a2.558,2.558,0,0,1,.494-1.368,2.484,2.484,0,0,1,1.975-.593A8.715,8.715,0,0,1,741.455,434.854Z" transform="translate(-384.831 -239.119)" fill="#3f3d56"/><path d="M653.31,418.9a6.1,6.1,0,0,0,3.037,1.234c1.447.1,4.513-.75,5.431-1.975a3.565,3.565,0,0,0,.518-2.074,2.56,2.56,0,0,0-.6-.114,15.8,15.8,0,0,0-4.705.188,5.3,5.3,0,0,0-3.654,2.74Z" transform="translate(-348.02 -231.559)" opacity="0.1"/><path d="M700.182,449.566a9.788,9.788,0,0,1-2.962,2.79,9.542,9.542,0,0,1-4.6.706,110.443,110.443,0,0,1-19.256-2.113,12.085,12.085,0,0,1-2.118-.568,11.23,11.23,0,0,1-2.138-1.338A26.958,26.958,0,0,1,663.314,444a17.03,17.03,0,0,1-3.432-8.418,13.761,13.761,0,0,1-3.061-5.273,7.957,7.957,0,0,1-.7-2.558c-.039-.908.563-1.861.4-2.755a7.253,7.253,0,0,0-2.227-4,1.481,1.481,0,0,1-.528-.706,1.106,1.106,0,0,1,.128-.681,5.272,5.272,0,0,1,3.649-2.745,15.835,15.835,0,0,1,4.71-.188,10.935,10.935,0,0,1,1.54.41l1.1,2.888a3.721,3.721,0,0,0,.716,1.318,7.17,7.17,0,0,0,.78.607,4.444,4.444,0,0,1,1.541,3.891,4.182,4.182,0,0,1,2.469,5.165,4.938,4.938,0,0,1,3.614,3.18,2.409,2.409,0,0,0,.494.987,1.93,1.93,0,0,0,1.264.39c1.239.074,2.321,1.052,3.456.523a6.981,6.981,0,0,1,4.088-.573,3.081,3.081,0,0,0,.874.074,2.2,2.2,0,0,0,.716-.247,5.864,5.864,0,0,1,1.624-.642,1.521,1.521,0,0,1,1.541.6c.4-.43.632-.987.988-1.442a1.585,1.585,0,0,1,1.481-.716c-.375-.331,0-.988.494-1.116a6.591,6.591,0,0,1,1.481.054c1.3,0,2.291-1.185,3.55-1.481,1.16-.286,2.7.054,3.3-.987.207-.365.252-.859.607-1.086a1.185,1.185,0,0,1,.785-.089,7.668,7.668,0,0,1,2.365.716c1.215,4.75.578,9.682-.351,14.5a12.715,12.715,0,0,1-2.577,5.974Z" transform="translate(-348.243 -231.914)" fill="#3f3d56"/><path d="M746.457,516.215l6.039,12.176c-.652-1.126-2.029-1.565-3.116-2.286a8.285,8.285,0,0,1-2.962-4,24.687,24.687,0,0,1-1.141-4.937,4.464,4.464,0,0,1,0-2.558C745.949,514.758,746.171,515.642,746.457,516.215Z" transform="translate(-394.479 -281.543)" opacity="0.1"/><path d="M780.5,536.335a53.525,53.525,0,0,0,4.528,3.535c3.5,2.79,6,6.611,8.438,10.369a16.747,16.747,0,0,1,1.723,3.14c-.286.247-.716,0-.987-.257l-4.74-4.167a10.526,10.526,0,0,1-1.58-1.6c-.825-1.111-1.19-2.469-1.936-3.654a14.381,14.381,0,0,0-2.883-2.962c-1.086-.933-6.093-5.165-4.873-6.809C779.054,534.4,779.775,535.619,780.5,536.335Z" transform="translate(-411.143 -291.324)" opacity="0.1"/><path d="M759.25,429.03a14.071,14.071,0,0,1,5.021-1.654,10.52,10.52,0,0,1,3.19-.227c.988.123,1.935.494,2.928.558a13.2,13.2,0,0,0,4.078-.854,4.9,4.9,0,0,1,4.039.3,1.709,1.709,0,0,0,.879.469,1.565,1.565,0,0,0,.908-.444,5.165,5.165,0,0,1,6.419.341c2.572,2.409,2.281,7.12,5.293,8.947.834.494,1.9.77,2.38,1.615a5.815,5.815,0,0,0,.41.775,2.063,2.063,0,0,0,.726.494,14.4,14.4,0,0,1,2.469,1.427,3.565,3.565,0,0,1,1.427,2.4,4.5,4.5,0,0,1-.44,2.014A18.906,18.906,0,0,1,780.6,456.937a2.9,2.9,0,0,1-1.926-.6,3.648,3.648,0,0,1-.676-1.111c-1.417-2.962-4.073-5.165-5.767-7.989-.987-1.684-1.649-3.565-2.7-5.219-1.585-2.513-4-4.37-6.369-6.172-1.333-1.017-2.819-2.084-4.493-2.01-1.481.064-2.577.143-2.029-1.689a5.856,5.856,0,0,1,2.607-3.12Z" transform="translate(-400.26 -236.796)" fill="#3f3d56"/><path d="M759.25,429.03a14.071,14.071,0,0,1,5.021-1.654,10.52,10.52,0,0,1,3.19-.227c.988.123,1.935.494,2.928.558a13.2,13.2,0,0,0,4.078-.854,4.9,4.9,0,0,1,4.039.3,1.709,1.709,0,0,0,.879.469,1.565,1.565,0,0,0,.908-.444,5.165,5.165,0,0,1,6.419.341c2.572,2.409,2.281,7.12,5.293,8.947.834.494,1.9.77,2.38,1.615a5.815,5.815,0,0,0,.41.775,2.063,2.063,0,0,0,.726.494,14.4,14.4,0,0,1,2.469,1.427,3.565,3.565,0,0,1,1.427,2.4,4.5,4.5,0,0,1-.44,2.014A18.906,18.906,0,0,1,780.6,456.937a2.9,2.9,0,0,1-1.926-.6,3.648,3.648,0,0,1-.676-1.111c-1.417-2.962-4.073-5.165-5.767-7.989-.987-1.684-1.649-3.565-2.7-5.219-1.585-2.513-4-4.37-6.369-6.172-1.333-1.017-2.819-2.084-4.493-2.01-1.481.064-2.577.143-2.029-1.689a5.856,5.856,0,0,1,2.607-3.12Z" transform="translate(-400.26 -236.796)" opacity="0.05"/><path d="M746.118,832.039a7.851,7.851,0,0,0,3.772,1.659,68.607,68.607,0,0,0,9.381,1.155l3.066.237c2.963.227,5.984.454,8.986.469a61.9,61.9,0,0,0,11.05-.958,1.2,1.2,0,0,0,.879-.425,1.229,1.229,0,0,0,.133-.7,53.479,53.479,0,0,0-1.368-11.08c-.346-1.481-3.027,1.857-3.15,1.975a3.054,3.054,0,0,1-2.434,1.294c-3.086.168-6.537-1.708-8.991-3.377a11.361,11.361,0,0,0-1.664-1.032,5.054,5.054,0,0,0-1.348-.385,8.152,8.152,0,0,0-4.587.933c-1.847.913-3.456,2.227-5.283,3.165a14.858,14.858,0,0,1-4.735,1.481c-1.669.227-3.664.341-4.523,1.787h0A3.213,3.213,0,0,0,746.118,832.039Z" transform="translate(-394.426 -436.574)" fill="#3f3d56"/><path d="M745.913,832.611a7.8,7.8,0,0,0,3.772,1.654,67.836,67.836,0,0,0,9.381,1.16l3.066.237c2.962.227,5.984.454,8.986.469a61.9,61.9,0,0,0,11.05-.958,1.2,1.2,0,0,0,.879-.425,4.937,4.937,0,0,0,.686-1.249c-.064-3.733-1.076-7.456-1.916-11.095-.346-1.481-3.027,1.857-3.15,1.975a3.055,3.055,0,0,1-2.434,1.294c-3.086.168-6.537-1.708-8.991-3.377a11.358,11.358,0,0,0-1.664-1.032,5.055,5.055,0,0,0-1.348-.385c.4,2.222,3.58,4.9,5.224,5.718,3.323,1.649,7.273.829,10.981,1.022a1.481,1.481,0,0,1,.775.188,1.569,1.569,0,0,1,.459,1.456c-.03.884-.143,1.926-.913,2.375a2.656,2.656,0,0,1-1.229.257,173.7,173.7,0,0,1-27.378-.988,14.909,14.909,0,0,1-4.444-.987,11.737,11.737,0,0,1-2.587-1.664C743.928,829.219,744.9,831.668,745.913,832.611Z" transform="translate(-394.221 -436.593)" fill="#e8eaf2"/><path d="M758.315,377.052c.054,1.447-.938,4.261,1.773,3.456,1.62-.469,2.074-2.38,4.123-1.975s2.523,2.962,3.219,4.607a8.828,8.828,0,0,0,6.389,5.165,3.842,3.842,0,0,0,1.758,0c1.323-.38,2.079-1.743,2.617-3.007a22.919,22.919,0,0,0,1.16-3.3,13.989,13.989,0,0,0,.42-2.424h0a11.136,11.136,0,0,0,0-1.674,13.578,13.578,0,0,0-4.528-8.576,40.531,40.531,0,0,0-8.2-5.535,11.914,11.914,0,0,0-3.022-1.348,10.044,10.044,0,0,0-3.195-.133,11.2,11.2,0,0,0-4.064.953,5.685,5.685,0,0,0-1.432.987,4.3,4.3,0,0,0-1.239,2.069c-.518,2.128.839,4.049,1.94,5.732C757.026,373.6,758.241,375.185,758.315,377.052Z" transform="translate(-398.984 -204.404)" fill="#3f3d56"/><path d="M670.35,448.182c.578-1.481,3.012-5.5,2.311-6.912a18.476,18.476,0,0,0-1.857,3.313C670.345,445.733,670.72,447.249,670.35,448.182Z" transform="translate(-356.647 -244.414)" opacity="0.1"/><path d="M755.887,373.923c-1.106-1.684-2.469-3.6-1.945-5.732a4.444,4.444,0,0,1,1.58-2.36,3.767,3.767,0,0,0-.4.987c-.523,2.133.839,4.049,1.94,5.732.987,1.481,2.2,3.086,2.271,4.938.054,1.452-.938,4.266,1.777,3.456,1.615-.469,2.069-2.385,4.123-1.975s2.518,2.963,3.214,4.607a8.824,8.824,0,0,0,6.389,5.16,3.841,3.841,0,0,0,1.758,0,2.6,2.6,0,0,0,.83-.4,3.59,3.59,0,0,1-2,1.773,3.841,3.841,0,0,1-1.758,0,8.838,8.838,0,0,1-6.394-5.165c-.691-1.654-1.146-4.172-3.214-4.607s-2.508,1.481-4.123,1.975c-2.716.785-1.723-2.029-1.777-3.456C758.1,377,756.875,375.419,755.887,373.923Z" transform="translate(-398.907 -206.223)" opacity="0.1"/><path d="M755.924,369.246a12.538,12.538,0,0,0,.834,1.19,14.265,14.265,0,0,0,1.916,1.975c.415.36.844.7,1.294,1.017a20.664,20.664,0,0,0,2.617,1.56,47.69,47.69,0,0,0,8.394,3l5.6,1.629c.686.494,1.945,1.457,3.333,2.429a13.984,13.984,0,0,0,.42-2.424h0a11.151,11.151,0,0,0,0-1.674,13.578,13.578,0,0,0-4.528-8.576,40.528,40.528,0,0,0-8.2-5.535,11.912,11.912,0,0,0-3.022-1.348,10.043,10.043,0,0,0-3.194-.133,11.2,11.2,0,0,0-4.064.953,5.684,5.684,0,0,0-1.432.987,5.483,5.483,0,0,0-.716,1.516A4.3,4.3,0,0,0,755.924,369.246Z" transform="translate(-399.527 -204.43)" opacity="0.1"/><path d="M755.926,365.773a12.46,12.46,0,0,0,.834,1.185,13.745,13.745,0,0,0,1.916,1.975,15.015,15.015,0,0,0,1.289,1.027,21.308,21.308,0,0,0,2.617,1.565,48.491,48.491,0,0,0,8.394,3l5.6,1.624c1.975,1.481,8.493,6.325,9.589,5.718,1.3-.711-5.8-5.737-5.8-5.737l-.326.247a5.2,5.2,0,0,0,1.817-3.456,17.55,17.55,0,0,0,.059-7.1,8.39,8.39,0,0,0-4.073-5.6,9.745,9.745,0,0,1-2.76-1.555,1.892,1.892,0,0,1-.267-.36,1.263,1.263,0,0,1-.109-.193,2.548,2.548,0,0,0-.3-.578c-.39-.449-1.1-.316-1.684-.242h-.188a2.327,2.327,0,0,1-.321,0c-2.1.049-4.143-1.121-6.271-1.121-2.335,0-4.32,1.348-6.374,2.266-.415.188-.81.36-1.18.533a5.1,5.1,0,0,0-3.209,3.392A4.259,4.259,0,0,0,755.926,365.773Z" transform="translate(-399.529 -201.332)" fill="#6c63ff"/><path d="M789.658,358.445a1.022,1.022,0,0,0-.128.494.988.988,0,0,0,.351.755,1.733,1.733,0,0,0,.884.311,6.406,6.406,0,0,0,.691.054,1.851,1.851,0,0,0,.909-.153,1.09,1.09,0,0,0,.158-.1,1.894,1.894,0,0,1-.267-.36c-.054.04-.109.03-.316,0a5.205,5.205,0,0,1-1.136-.193,1.308,1.308,0,0,1-.425-.207,1.244,1.244,0,0,1-.4-.612Z" transform="translate(-416.982 -202.477)" opacity="0.1"/><path d="M802.335,396.475a2.665,2.665,0,0,1-.987.36,3.89,3.89,0,0,1-.75.118,4.157,4.157,0,0,1-1.837-.494" transform="translate(-421.655 -221.729)" opacity="0.1"/><rect width="25.542" height="12.531" transform="translate(99.382 168.366)" fill="#3f3d56" opacity="0.1"/><rect width="25.542" height="12.531" transform="translate(99.382 203.546)" fill="#3f3d56" opacity="0.1"/><rect width="25.542" height="12.531" transform="translate(99.382 238.725)" fill="#3f3d56" opacity="0.1"/><rect width="25.542" height="12.531" transform="translate(99.382 273.905)" fill="#3f3d56" opacity="0.1"/><path d="M284.824,406.839c.711-.454.43-1.669-.306-2.084a3.582,3.582,0,0,0-2.469-.118.987.987,0,0,0-.528-1.062v-.183a1.315,1.315,0,0,0-.286-1.871,3.772,3.772,0,0,0-2.3-.4,3.051,3.051,0,0,0-.987-2.6.814.814,0,0,0-.533-.257c-.459,0-.612.617-.647,1.076a21.261,21.261,0,0,1-.593,3.56l-14.965,25.068c-1.669,2.41,3.515-4.8,1.847-2.39a21.586,21.586,0,0,1-2.962,3.664,14.555,14.555,0,0,1-3.333,2.227,3.92,3.92,0,0,1-2.276-.642,9.208,9.208,0,0,1-2.187-2.168,42.764,42.764,0,0,1-3.53-5.249,6.586,6.586,0,0,1-.81-1.876c-.227-1.037,0-2.168-.415-3.14a4.873,4.873,0,0,0-.642-1.022l-1.032-1.378a.242.242,0,0,1,0-.059c-.118-2.039-1.768-3.6-3.308-4.937-1.313-1.145-2.735-2.34-4.444-2.563-.928-.118-1.876.059-2.8-.059-.755-.094-1.481-.38-2.222-.494a9.767,9.767,0,0,0-2.182-.044l-.311-.281a8.67,8.67,0,0,0,3.9-3.279c.716-1.155,1.1-2.469,1.763-3.669.8-1.447,1.975-2.642,2.908-4.029a14.9,14.9,0,0,0,1.679-11.356,27.3,27.3,0,0,0-5.323-10.428c-4.626-5.984-12.388-8.206-19.7-7.031-.494.074-.987.168-1.457.272a18.459,18.459,0,0,0-3.58,1.146,9.08,9.08,0,0,0-3.906,3.046,6.605,6.605,0,0,0-.681,1.264,7.226,7.226,0,0,0-.331,1.037,10.724,10.724,0,0,0-.178,3.259c.03.37.069.746.114,1.116a4.3,4.3,0,0,0,.069.558c.049.37.1.746.153,1.116.079.558.153,1.116.207,1.664a10.4,10.4,0,0,1,.059,1.175c0,.1,0,.193,0,.291a4.621,4.621,0,0,1-.128.864,4.445,4.445,0,0,1-.143.454,5.729,5.729,0,0,1-.681,1.254,16.785,16.785,0,0,1-1.22,1.481l-.42.494-.415.494a17.232,17.232,0,0,0-1.506,2.039,9.69,9.69,0,0,0-.6,1.116,8.173,8.173,0,0,0-.336.9,6.468,6.468,0,0,0-.262,1.249c0,.109-.025.212-.03.321a5.4,5.4,0,0,0,0,.632,4.362,4.362,0,0,0,.069.622,4.774,4.774,0,0,0,.365,1.2c0,.054.054.109.079.158s.054.1.079.158.1.212.153.316a2.3,2.3,0,0,1,.158.494v.173a1.131,1.131,0,0,1,0,.183,1.975,1.975,0,0,1-.711,1.229c-.094.089-.2.173-.3.257l-.153.123-.311.247-.3.242a5.925,5.925,0,0,0-.726.726,26.756,26.756,0,0,0-8.068.79,11.016,11.016,0,0,1-2.9.523,1.442,1.442,0,0,1-1.254-.528,1.9,1.9,0,0,1-.128-1.15,9.93,9.93,0,0,0-.77-4.725,2.656,2.656,0,0,0-.775-1.126,1.1,1.1,0,0,0-1.279-.069,12.047,12.047,0,0,1-.331,8.038,26.519,26.519,0,0,1-1.856,3.486c-1.1,1.871-1.718,4.014-2.7,5.955,1.1,3.708.854,7.668,1.427,11.49a53.1,53.1,0,0,0,3.027,10.369c.943,2.553,1.975,5.209,4.009,7.006a3.678,3.678,0,0,0,2.469,1.076,4.36,4.36,0,0,0,1.94-.731,7.559,7.559,0,0,0,1.634-1.2,3.723,3.723,0,0,0,.494-.642,2.419,2.419,0,0,0,.36.909c1.175-2.533,2.469-5.012,3.851-7.436a6.373,6.373,0,0,0,1.155-.79c.025.084.044.173.064.262-.059.232-.118.469-.183.7s-.133.444-.2.662-.1.326-.153.494-.128.385-.2.578l-.237.627c-.059.148-.114.3-.178.444-.148.36-.3.721-.469,1.076a3.243,3.243,0,0,0,.41.168l.094.03a3.561,3.561,0,0,0,.38.094h.138l.286.03h.449a4.531,4.531,0,0,0,1.017-.178c.064.257.123.518.188.775a27.6,27.6,0,0,1,.928,5.288c.089,2.024-.262,4.078.123,6.073.2,1.032.6,2.024.746,3.071a12.764,12.764,0,0,1-.054,2.962l-.672,7.1a6.068,6.068,0,0,1-.607,2.5c-.336.578-.874,1.239-.538,1.812a11.775,11.775,0,0,1,1.694-.326c-.207.755-.395,1.511-.573,2.271a3.994,3.994,0,0,0-.133,1.753,11.128,11.128,0,0,1,.494,1.6,5.178,5.178,0,0,1-.849,2.434c-.849,2.054.054,4.37.953,6.419l2.656,6.029q1.086,2.469,2.182,4.937c.647,1.481,1.3,2.962,1.921,4.444a143.927,143.927,0,0,1,6.952,20.841,2.439,2.439,0,0,0,.355.9c.37.494,1.037.637,1.58.938a2.946,2.946,0,0,1,.326,4.705c.311,3.624-2.4,7.125-3.8,10.482-3.219,7.717-2.637,16.412-3.743,24.687l1.249-.731a1.643,1.643,0,0,1,.4.267c-.03.153-.059.306-.1.464a7.35,7.35,0,0,1-.8,2c-.726,1.254-1.837,2.365-2,3.8a23.226,23.226,0,0,0,.158,2.607v.242c-.109-.109-.276-.1-.533.1a3.17,3.17,0,0,0-.785,1.481c-.217.617-.39,1.249-.563,1.881l-.607,2.232a25.884,25.884,0,0,1-1.3,3.92A16.477,16.477,0,0,0,204.58,580a8.24,8.24,0,0,0-.2,2.286,6.952,6.952,0,0,0,.316,2.163,5.387,5.387,0,0,0,3.155,3,14.813,14.813,0,0,0,4.384.825,3.745,3.745,0,0,0,1.15-.03,3.16,3.16,0,0,0,1.121-.583c2.029-1.481,3.081-4.246,3.264-6.764a9.788,9.788,0,0,0-.276-1.536c.123-2.74-.277-5.5-.064-8.226.039.311.089.617.133.928q.247,1.531.494,3.066a.647.647,0,0,0-.168-.286,7.066,7.066,0,0,0-.178,3.516,20.58,20.58,0,0,0,.988,3.407l.657,1.832a3.284,3.284,0,0,0,3.066,2.587,24.841,24.841,0,0,0,5.53.943,1.269,1.269,0,0,0,.731-.133,4.222,4.222,0,0,0,.326-.276,3.006,3.006,0,0,1,.533-.311,3.486,3.486,0,0,0,1.694-2,3.175,3.175,0,0,0-.311-2.6,5.963,5.963,0,0,0-.75-.909l-3.293-3.491a18.9,18.9,0,0,0-1.615-1.708.6.6,0,0,0-.528-.178c-.894-2.232-.78-4.849-.622-7.3.044-.731.444-2.252.607-3.5a5.564,5.564,0,0,0,1.748-.943,2.676,2.676,0,0,0,.988-1.481c1.659-8.492,4.35-16.723,6.863-25,.247-.815.494-1.634.736-2.469l.306-1.047c.079-.286.168-.573.247-.859.138-.494.272-.963.4-1.447.039-.128.074-.262.109-.39a.463.463,0,0,0,0-.079c.163-.592.316-1.185.469-1.777l.178-.681c.193-.755.375-1.516.558-2.271.025-.1.049-.212.069-.321a1.392,1.392,0,0,0-.054-.8h0a1.324,1.324,0,0,0-.193-.276c-.049-.059-.109-.123-.168-.183l-.183-.2a1.821,1.821,0,0,1-.336-.632v-.691c0-.227-.03-.494-.044-.736a7.51,7.51,0,0,1,.217-.958c.054-.188.118-.375.178-.563s.143-.494.222-.7a1.753,1.753,0,0,0,.439-1.19c.3-.746.622-1.481.987-2.192a6.67,6.67,0,0,0,.884-2.37,9.475,9.475,0,0,0-.286-2.251c-.494-3.13.958-6.187,2.034-9.164a40.686,40.686,0,0,0,1.792-6.725,14.248,14.248,0,0,1,1.481-5.13,7.7,7.7,0,0,0,.79-1.363,5.476,5.476,0,0,0,.212-1.555,17.055,17.055,0,0,1,1.516-6.157,3.624,3.624,0,0,0,.395-1.195.492.492,0,0,0,0-.084v-.118l.247-.035a32.748,32.748,0,0,0,.553-8.29,12.675,12.675,0,0,0-4.236-8h.049a2.6,2.6,0,0,0,1.21-2.35,4.572,4.572,0,0,0-1.7-3.585,1.743,1.743,0,0,1-.578-.593,1.8,1.8,0,0,1-.069-.78,3.98,3.98,0,0,0-2.469-3.683.908.908,0,0,1-.4-.232.988.988,0,0,1-.1-.7,4.31,4.31,0,0,0-2.079-3.95,6.769,6.769,0,0,0,.089-3.125,2.333,2.333,0,0,0-2.286-1.777c.849-2.316-.355-4.893-.035-7.337.138-1.047.558-2.054.612-3.111.049-.958-.193-1.975.277-2.834s1.575-1.481,1.289-2.39c-.123-.395-.494-.662-.652-1.047s.494-.987.854-.75c.163-.123.326-.257.494-.39a8.077,8.077,0,0,0,.291,1.447c.232.79.6,1.536.839,2.321a19.225,19.225,0,0,0,1.1,3.6c.987,1.758,3,2.627,4.38,4.088.81.854,1.387,1.906,2.222,2.74a12.3,12.3,0,0,0,2.074,1.555l4.444,2.883a5.036,5.036,0,0,0,1.521.755,2.6,2.6,0,0,0,3.061-2.2,2.913,2.913,0,0,1-1.1-.676.406.406,0,0,0,.188-.03,7.032,7.032,0,0,0,2.864-1.521c3.17-2.523,5.431-5.969,7.673-9.357,2.33-3.55,13.558-12.946,13.558-12.946V414.6a13.75,13.75,0,0,0,3.738-3.18,4.122,4.122,0,0,0,.938-2.434A2.143,2.143,0,0,0,284.824,406.839Zm-93.348,9.129q-.326,2.074-.795,4.128a40.124,40.124,0,0,1-1.328,4.661c-.059.158-.118.321-.173.494-.163-.3-.321-.593-.464-.894-.365-.755-.657-1.545-.948-2.33l-1.857-5.012a2.312,2.312,0,0,1-.123-2,2.242,2.242,0,0,1,1.062-.795,21.178,21.178,0,0,1,4.073-1.382,11.954,11.954,0,0,0,1.313-.346A19.584,19.584,0,0,0,191.476,415.969Zm2.054-6.251a.755.755,0,0,1,0-.726,1.605,1.605,0,0,1,.494-.336.987.987,0,0,0,.138-.1Zm3.851-5.431a9.594,9.594,0,0,0-1.481,1.521,15.6,15.6,0,0,0-1.274,1.975,1.432,1.432,0,0,0-.528-1.457A3.006,3.006,0,0,1,193.6,406a1.012,1.012,0,0,1,.2-1.417,2.963,2.963,0,0,1,1.481-.494l2.217-.326c-.03.143-.074.326-.123.5ZM218.188,565.54a8.1,8.1,0,0,0-.128-1.975c.276,0,.548,0,.82-.025Z" transform="translate(-107.854 -207.046)" fill="url(#b)"/><path d="M229.317,370.619c-3.856.617-8.147,2.1-9.623,5.718-1.111,2.73-.252,5.806.035,8.744a6.685,6.685,0,0,1-.084,2.326,8.151,8.151,0,0,1-2.039,3.2,17.009,17.009,0,0,0-2.938,4.113,6.032,6.032,0,0,0-.2,4.937,3.63,3.63,0,0,1,.494,1.294c.044.987-.987,1.639-1.777,2.281-2.893,2.395-2.77,6.759-2.795,10.522a53.207,53.207,0,0,1-5.031,22.219,6.794,6.794,0,0,0,7.6-.987,25.394,25.394,0,0,1-1.728,4.977c2.469,1.185,5.4-.76,6.631-3.19s1.373-5.253,2.247-7.831,2.424-4.819,3.086-7.406a6.827,6.827,0,0,1,.879-2.469,6.468,6.468,0,0,1,1.54-1.313,15.03,15.03,0,0,0,5.431-7.406,30.085,30.085,0,0,0,9.115,1.052c3.056-.277,6.177-1.664,7.791-4.276.716-1.155,1.1-2.469,1.763-3.664.8-1.447,1.975-2.642,2.908-4.024a14.885,14.885,0,0,0,1.674-11.356,27.251,27.251,0,0,0-5.318-10.418C244.376,371.666,236.619,369.444,229.317,370.619Z" transform="translate(-121.245 -208.494)" fill="#303d5c"/><path d="M201.981,462.046q-.326,2.074-.79,4.118a39.765,39.765,0,0,1-1.328,4.656,4.444,4.444,0,0,0-.42,2.143,3.851,3.851,0,0,0,.518,1.274c1.758,3.125,4.133,6.147,4.335,9.732a5.136,5.136,0,0,0,.494,2.6q2.044-4.385,4.5-8.557c1.713-2.913,3.624-5.851,4.118-9.194a17.409,17.409,0,0,0-.064-4.725,10.233,10.233,0,0,0-1.694-4.967c-1.165-1.526-4.36-3.822-6.419-3.348C202.791,456.348,202.287,460.086,201.981,462.046Z" transform="translate(-118.246 -251.726)" fill="#6c63ff"/><path d="M330.319,467.268a16.111,16.111,0,0,0,9.445-7.283l5.431-7.836c1.284-1.857,2.607-3.812,2.883-6.053a19.942,19.942,0,0,0,5.431-12.3c.039-.459.193-1.062.652-1.071a.82.82,0,0,1,.533.252,3.051,3.051,0,0,1,.987,2.6,3.6,3.6,0,0,1,2.3.4c.642.459.815,1.61.123,1.975a.988.988,0,0,1,.691,1.121,3.579,3.579,0,0,1,2.469.114c.731.415,1.017,1.629.306,2.084a2.148,2.148,0,0,1,1.373,2.059,4.113,4.113,0,0,1-.938,2.429c-2.079,2.79-5.757,3.92-8.167,6.419a19.4,19.4,0,0,0-2.128,2.844l-6.991,10.635c-2.222,3.382-4.5,6.829-7.673,9.347a7.041,7.041,0,0,1-2.859,1.521,3.17,3.17,0,0,1-3-.834,4.921,4.921,0,0,1-.874-2.992C330.127,470.921,330.438,469.07,330.319,467.268Z" transform="translate(-184.471 -240.086)" fill="#ee8e9e"/><path d="M270.081,795.8a5.982,5.982,0,0,1,.746.908,3.165,3.165,0,0,1,.316,2.592,3.52,3.52,0,0,1-1.694,2,2.987,2.987,0,0,0-.533.306,4.22,4.22,0,0,1-.326.276,1.313,1.313,0,0,1-.731.138,25.418,25.418,0,0,1-5.53-.943,4.438,4.438,0,0,1-2.281-1.071,4.385,4.385,0,0,1-.78-1.516l-.657-1.827a21.153,21.153,0,0,1-.988-3.4,7.041,7.041,0,0,1,.178-3.51,1.056,1.056,0,0,1,.242.716,7.954,7.954,0,0,0,1.407,3.407,2.73,2.73,0,0,0,2.192,1.378,20.463,20.463,0,0,0,3.506.449,1.047,1.047,0,0,0,.494-.059.854.854,0,0,0,.4-.494,2.128,2.128,0,0,0,0-1.442c-.311-.889-1.185-1.481-1.6-2.321-.306-.627.123-1.313.755-.785a19.53,19.53,0,0,1,1.615,1.7Z" transform="translate(-147.631 -420.838)" fill="#303d5c"/><path d="M263.739,769.525c-.188,2.963-.321,6.118,1.294,8.591.578.889,1.353,1.634,2.015,2.469a2.933,2.933,0,0,1,.721,1.481,2.282,2.282,0,0,1-1.975,2.2,6.653,6.653,0,0,1-3.185-.459,7.733,7.733,0,0,1-2.7-1.274c-1.4-1.185-1.773-3.16-2.054-4.972l-.657-4.212a13.367,13.367,0,0,1-.237-3.066,13.574,13.574,0,0,1,.825-3.313l1.081-3.165a1.482,1.482,0,0,1,.494-.785,1.373,1.373,0,0,1,.82-.153c1.037.054,3.639.43,4.143,1.526C264.737,765.353,263.813,768.389,263.739,769.525Z" transform="translate(-147.362 -407.219)" fill="#ee8e9e"/><path d="M263.739,769.525c-.188,2.963-.321,6.118,1.294,8.591.578.889,1.353,1.634,2.015,2.469a2.933,2.933,0,0,1,.721,1.481,2.282,2.282,0,0,1-1.975,2.2,6.653,6.653,0,0,1-3.185-.459,7.733,7.733,0,0,1-2.7-1.274c-1.4-1.185-1.773-3.16-2.054-4.972l-.657-4.212a13.367,13.367,0,0,1-.237-3.066,13.574,13.574,0,0,1,.825-3.313l1.081-3.165a1.482,1.482,0,0,1,.494-.785,1.373,1.373,0,0,1,.82-.153c1.037.054,3.639.43,4.143,1.526C264.737,765.353,263.813,768.389,263.739,769.525Z" transform="translate(-147.362 -407.219)" opacity="0.05"/><path d="M288.2,592.082a.494.494,0,0,1,0,.084,3.7,3.7,0,0,1-.4,1.195,17.1,17.1,0,0,0-1.516,6.147,5.431,5.431,0,0,1-.212,1.55,7.7,7.7,0,0,1-.79,1.363,14.659,14.659,0,0,0-1.481,5.125,39.994,39.994,0,0,1-1.792,6.715c-1.071,2.963-2.518,6.029-2.029,9.154a9.38,9.38,0,0,1,.286,2.247,6.671,6.671,0,0,1-.884,2.37c-.365.711-.691,1.442-.988,2.187s-.6,1.624-.839,2.469a3.288,3.288,0,0,0,.183,3.012,3.864,3.864,0,0,1,.543.667,1.758,1.758,0,0,1,0,1.136q-.568,2.409-1.224,4.8c-.336,1.254-.691,2.5-1.062,3.743-2.706,9.095-5.772,18.1-7.594,27.413-.262,1.338-1.975,2.3-3.313,2.592a4.355,4.355,0,0,1-3.807-1.017l-.262-.262c-1.4-1.481-1.6-3.812-1.481-5.9.494-9.584,5.3-18.358,7.594-27.675a53.018,53.018,0,0,0,1.481-10.275c.538-11.573.75-23.8-2.518-34.913-.681-2.311-1.481-4.937-.267-7a7.009,7.009,0,0,1,3.619-2.646,23.285,23.285,0,0,1,18.056.459,6.5,6.5,0,0,1-.025.7,7.076,7.076,0,0,0,.36,3.19,3.979,3.979,0,0,1,.355,1.368Z" transform="translate(-148.659 -317.061)" fill="#303d5c"/><path d="M234,778.739l-.607,2.227a25.7,25.7,0,0,1-1.3,3.92,16.68,16.68,0,0,0-1.155,2.661,8.221,8.221,0,0,0-.2,2.281,6.809,6.809,0,0,0,.316,2.163,5.367,5.367,0,0,0,3.15,2.992,14.81,14.81,0,0,0,4.385.825,3.74,3.74,0,0,0,1.15-.03,3.179,3.179,0,0,0,1.116-.583c2.029-1.481,3.081-4.241,3.264-6.754a8.392,8.392,0,0,0-.346-1.723c-.158-.212-1.694.657-1.037,1.378.988,1.076-1.876.518-3.323.43a13.393,13.393,0,0,1-1.876-.311l-2.345-.494c-.765-.168-1.649-.43-1.921-1.165s.321-1.61.785-2.321c1.225-1.891,1.536-4.212,1.822-6.448.054-.439.6-3.283-.528-2.4a3.169,3.169,0,0,0-.785,1.481C234.347,777.48,234.175,778.112,234,778.739Z" transform="translate(-134.087 -413.476)" fill="#303d5c"/><path d="M277.741,680.463a3.328,3.328,0,0,1-.183-3.012c.109-.375.227-.75.351-1.121l-9.2-3.111c-.035.825-.069,1.649-.109,2.469a53.116,53.116,0,0,1-1.481,10.28c-2.3,9.312-7.125,18.086-7.594,27.65-.109,2.207.128,4.671,1.758,6.157a4.35,4.35,0,0,0,3.807,1.017c1.333-.291,3.051-1.254,3.313-2.6,1.822-9.312,4.883-18.313,7.594-27.413q1.269-4.236,2.286-8.542a1.743,1.743,0,0,0,0-1.131,3.457,3.457,0,0,0-.543-.647Z" transform="translate(-148.655 -361.84)" opacity="0.05"/><path d="M239.228,757.966c-.726,1.249-1.837,2.36-2,3.8a23.073,23.073,0,0,0,.158,2.6,8.242,8.242,0,0,1-.38,2.123q-1.343,4.854-3.1,9.574a2.607,2.607,0,0,0-.242,1.3,2.26,2.26,0,0,0,1.521,1.516c2.187.938,4.656.874,7.036.775a3.688,3.688,0,0,0,1.975-.459,3.451,3.451,0,0,0,1.116-2.77c.163-2.963-.341-5.984,0-8.957.118-1.081.346-2.148.518-3.224a9.464,9.464,0,0,0-.138-4.493,10.5,10.5,0,0,0-1.684-2.829,8.83,8.83,0,0,0-2.34-2.331c-.277-.168-1.076-.676-1.358-.355-.143.163-.079.6-.1.8a7.456,7.456,0,0,1-.163.928A7.579,7.579,0,0,1,239.228,757.966Z" transform="translate(-135.57 -402.8)" fill="#ee8e9e"/><path d="M269.968,595.759a2.524,2.524,0,0,0-.168,2.094c.306,1.274.815,2.469,1.229,3.733a51.591,51.591,0,0,1,1.58,6.784c.39,2.074,1.2,4.384.869,6.468a46.234,46.234,0,0,1,4.888,15.306c.188,1.373-2.864,3.15-2.8,4.538.114,2.75,2.311,2.963.686,5.174-.079.109.607,2.568.494,2.676-.662.795-1.481,1.427-2.207,2.172a16.722,16.722,0,0,0-2.326,3.412c-4.2,7.569-10.255,16.16-8.394,24.613a1.481,1.481,0,0,1-.8,1.521,4.009,4.009,0,0,1-1.773.41h-.291c-1.4-1.481-1.6-3.812-1.481-5.9.494-9.584,5.3-18.358,7.594-27.675a53.018,53.018,0,0,0,1.481-10.275c.538-11.573.75-23.8-2.518-34.913-.681-2.311-1.481-4.937-.267-7a7.009,7.009,0,0,1,3.619-2.646,23.285,23.285,0,0,1,18.056.459,6.512,6.512,0,0,1-.025.7,7.075,7.075,0,0,0,.36,3.19,3.979,3.979,0,0,1,.36,1.387c0,.03.168-1.861.163-1.837-3.757.543-7.678,3-11.435,3.54a26.279,26.279,0,0,0-5.737,1.264A2.573,2.573,0,0,0,269.968,595.759Z" transform="translate(-148.624 -317.006)" opacity="0.05"/><path d="M225.854,562.029q-.765,2.41-1.333,4.868a4.044,4.044,0,0,0-.138,1.748,10.009,10.009,0,0,1,.494,1.6,5.17,5.17,0,0,1-.844,2.434c-.849,2.049.054,4.36.948,6.389l2.656,6.029,2.182,4.938c.647,1.481,1.3,2.938,1.921,4.419a143.542,143.542,0,0,1,6.947,20.811,2.513,2.513,0,0,0,.355.909c.37.494,1.037.632,1.58.933a2.944,2.944,0,0,1,.326,4.7c.311,3.619-2.4,7.115-3.8,10.467-3.214,7.707-2.632,16.392-3.738,24.687l1.249-.726c1.2.548,1.155,2.247,1.8,3.4.987,1.728,3.333,1.975,5.313,1.842a4.043,4.043,0,0,0,1.773-.41,1.481,1.481,0,0,0,.8-1.521c-1.866-8.453,4.192-17.039,8.394-24.618a16.433,16.433,0,0,1,2.326-3.407c.711-.75,1.545-1.383,2.207-2.172,1.852-2.222,2.089-5.357,1.975-8.246a46.19,46.19,0,0,0-5.253-19.473c.331-2.084-.494-4.389-.869-6.463a51.178,51.178,0,0,0-1.575-6.764c-.415-1.249-.923-2.469-1.229-3.738a1.992,1.992,0,0,1,1.353-2.859,26.413,26.413,0,0,1,5.747-1.3l12.916-1.856a32.671,32.671,0,0,0,.553-8.28,12.739,12.739,0,0,0-9.1-10.655,1.934,1.934,0,0,0-1.689.109,67.238,67.238,0,0,0-34.241,2.207Z" transform="translate(-130.525 -303.795)" fill="#303d5c"/><path d="M242.308,417.724a6.359,6.359,0,0,1-.568,3.7,5.822,5.822,0,0,1-1.481,1.624A11.065,11.065,0,0,1,236,425.165a4.521,4.521,0,0,0-2.548,1.111c-.909,1.1-.3,2.75.494,3.95a10.318,10.318,0,0,0,5.584,4.617c1.906.518,3.95.2,5.885.538,1.412.242,2.74.825,4.133,1.16a12.21,12.21,0,0,0,11.213-3.13c-2.069-1.59-4.217-3.279-5.288-5.658a8.028,8.028,0,0,1-.4-5.431c.494-1.768,1.615-3.486,1.269-5.283s-2.123-3.042-3.881-3.649a24.991,24.991,0,0,0-4.863-.988c-.913-.123-6.7-1.4-7.056-.77-.2.355.987,2.469,1.145,2.933A11.06,11.06,0,0,1,242.308,417.724Z" transform="translate(-135.238 -229.321)" fill="#ee8e9e"/><circle cx="11.731" cy="11.731" r="11.731" transform="translate(102.611 169.156)" fill="#ee8e9e"/><path d="M229.907,444.137l7.954,1.343a30.119,30.119,0,0,0,5.925.6,16.5,16.5,0,0,1,3.274,0c.75.123,1.481.41,2.227.494.928.118,1.871-.059,2.8.059,1.728.222,3.15,1.417,4.444,2.558,1.536,1.343,3.19,2.908,3.3,4.937a1.382,1.382,0,0,1-.094.681,2,2,0,0,1-.588.617c-1.481,1.2-2.281,2.992-3.323,4.572a17.74,17.74,0,0,1-3.95,4.261c-.346-.222-.987.365-.854.746s.528.652.652,1.047c.281.9-.829,1.56-1.289,2.385s-.227,1.871-.277,2.834c-.054,1.052-.494,2.059-.612,3.106-.321,2.444.884,5.016.035,7.327a2.319,2.319,0,0,1,2.286,1.777,6.685,6.685,0,0,1-.094,3.12,4.3,4.3,0,0,1,2.079,3.925.943.943,0,0,0,.1.7.987.987,0,0,0,.4.232,3.95,3.95,0,0,1,2.469,3.678,1.773,1.773,0,0,0,.074.775,1.738,1.738,0,0,0,.573.6,4.572,4.572,0,0,1,1.708,3.575,2.585,2.585,0,0,1-1.215,2.35,21.521,21.521,0,0,1-5.342,1.59,45.852,45.852,0,0,1-5.17.913,46.543,46.543,0,0,1-4.839.153l-10.645-.044c-2.962,0-5.984,0-8.966-.222-2.785-.188-5.634-.538-8.33.193-.336-.568.2-1.234.538-1.807a6.088,6.088,0,0,0,.607-2.5l.671-7.09a13.039,13.039,0,0,0,.049-2.962c-.143-1.042-.538-2.029-.741-3.066-.385-1.975-.035-4.039-.123-6.063a28.405,28.405,0,0,0-.928-5.283l-2.074-8.66a30.973,30.973,0,0,0-1.037-4.35q-2.439-6.251-5.1-12.4a1.308,1.308,0,0,1,.094-1.1l1.758-3.15a19.989,19.989,0,0,1,1.61-2.567,10.112,10.112,0,0,1,5.925-3.644,10.462,10.462,0,0,1,6.912,1.022c.82.439,1.58.987,2.414,1.4A9.744,9.744,0,0,0,229.907,444.137Z" transform="translate(-121.776 -243.859)" fill="#6c63ff"/><path d="M305.271,463.85l2.775,3.693a5.143,5.143,0,0,1,.642,1.022c.42.987.188,2.1.415,3.14a6.617,6.617,0,0,0,.81,1.871,42.5,42.5,0,0,0,3.525,5.244,9.116,9.116,0,0,0,2.192,2.163,3.594,3.594,0,0,0,2.962.523,1.832,1.832,0,0,0-.988.879,10.72,10.72,0,0,0-.686,6.863,7.174,7.174,0,0,0,.77,2.247,3.362,3.362,0,0,0,1.768,1.526,2.6,2.6,0,0,1-3.061,2.2,5.154,5.154,0,0,1-1.521-.755l-4.444-2.879a12.806,12.806,0,0,1-2.069-1.555c-.829-.829-1.412-1.881-2.222-2.735-1.378-1.481-3.4-2.331-4.38-4.083a18.853,18.853,0,0,1-1.091-3.6c-.247-.785-.607-1.526-.844-2.316a10.378,10.378,0,0,1,.913-7.406A30.281,30.281,0,0,1,305.271,463.85Z" transform="translate(-168.897 -255.846)" fill="#6c63ff"/><path d="M247.175,382.973a15.444,15.444,0,0,0-4.128-4.291,14.067,14.067,0,0,0-7.441-3.15,8.043,8.043,0,0,0-3.353.548c-.049-3.313-.874-5.52-2.938-5.184-3.856.617-8.147,2.1-9.623,5.718-1.111,2.73-.252,5.806.035,8.744a6.685,6.685,0,0,1-.084,2.326,8.152,8.152,0,0,1-2.039,3.2A17.009,17.009,0,0,0,214.667,395a6.032,6.032,0,0,0-.2,4.937,3.629,3.629,0,0,1,.494,1.294c.044.987-.987,1.639-1.777,2.281-2.893,2.395-2.77,6.759-2.795,10.522a53.206,53.206,0,0,1-5.031,22.219,6.794,6.794,0,0,0,7.6-.987,25.393,25.393,0,0,1-1.728,4.977c2.469,1.185,5.4-.76,6.631-3.19s1.373-5.253,2.247-7.831,2.424-4.819,3.086-7.406a6.827,6.827,0,0,1,.879-2.469,6.47,6.47,0,0,1,1.54-1.313c2.528-1.812-1.19-15.543-.2-18.5,1.481.326,4.167-6.759,5.7-13.963a7.3,7.3,0,0,0,3.338.331,4.256,4.256,0,0,1,1.195-.084,3.18,3.18,0,0,1,1.042.425,25.648,25.648,0,0,0,3.55,1.827c2.548.948,5.347.825,8.058.686a8.013,8.013,0,0,0-1.126-5.782Z" transform="translate(-121.245 -208.77)" fill="#303d5c"/><g transform="translate(84.125 162.09)" opacity="0.1"><path d="M206.748,436.247a53.28,53.28,0,0,0,5.031-22.219c0-3.762-.1-8.127,2.795-10.522.77-.642,1.822-1.279,1.773-2.281a3.525,3.525,0,0,0-.494-1.294,6.056,6.056,0,0,1,.193-4.937,17.148,17.148,0,0,1,2.938-4.113,8.271,8.271,0,0,0,2.044-3.2,6.809,6.809,0,0,0,.084-2.326c-.286-2.963-1.15-6.014-.035-8.744,1.427-3.5,5.49-5,9.248-5.653a1.975,1.975,0,0,0-.987-.064c-3.856.617-8.147,2.1-9.623,5.718-1.111,2.73-.252,5.806.035,8.744a6.685,6.685,0,0,1-.084,2.326,8.152,8.152,0,0,1-2.039,3.2,17.01,17.01,0,0,0-2.938,4.113,6.032,6.032,0,0,0-.2,4.937,3.63,3.63,0,0,1,.494,1.294c.044.987-.988,1.639-1.777,2.281-2.893,2.395-2.77,6.759-2.795,10.522a53.206,53.206,0,0,1-5.031,22.219,6.577,6.577,0,0,0,3.728.7A6.385,6.385,0,0,1,206.748,436.247Z" transform="translate(-205.38 -370.859)"/><path d="M218.633,506.247a25.373,25.373,0,0,0,1.723-4.977,6.255,6.255,0,0,1-1.669,1.106,25.126,25.126,0,0,1-1.437,3.871,3.654,3.654,0,0,0,2.266.291,3.639,3.639,0,0,1-.884-.291Z" transform="translate(-211.389 -436.88)"/><path d="M262.624,380.858a7.9,7.9,0,0,1,2.232-.523l-.262-.025a7.9,7.9,0,0,0-1.975.148C262.614,380.591,262.624,380.719,262.624,380.858Z" transform="translate(-234.356 -375.638)"/><path d="M272.968,403.308a25.99,25.99,0,0,1-3.555-1.827,3.1,3.1,0,0,0-1.042-.425,3.709,3.709,0,0,0-1.091.069,4.047,4.047,0,0,1,.755.355,25.64,25.64,0,0,0,3.55,1.827,15.988,15.988,0,0,0,5.95.77A14.012,14.012,0,0,1,272.968,403.308Z" transform="translate(-236.717 -386.14)"/><path d="M260.249,400.57c-.025.1-.049.207-.069.316a7.1,7.1,0,0,0,1.743.044A7.5,7.5,0,0,1,260.249,400.57Z" transform="translate(-233.123 -385.9)"/></g><path d="M194.817,467.5a4.271,4.271,0,0,1-1.15,3.427,7.5,7.5,0,0,1-1.634,1.2,4.3,4.3,0,0,1-1.94.731,3.654,3.654,0,0,1-2.469-1.076c-2.039-1.792-3.061-4.444-4-7a52.429,52.429,0,0,1-3.027-10.339c-.573-3.817-.331-7.772-1.422-11.475.988-1.94,1.59-4.078,2.691-5.95a27.058,27.058,0,0,0,1.856-3.481,11.973,11.973,0,0,0,.306-8.023,1.086,1.086,0,0,1,1.284.069,2.612,2.612,0,0,1,.775,1.121,9.949,9.949,0,0,1,.765,4.715,1.906,1.906,0,0,0,.138,1.155,1.481,1.481,0,0,0,1.254.528,11.021,11.021,0,0,0,2.893-.528,27.008,27.008,0,0,1,8.922-.736,4.271,4.271,0,0,1,1.738.425,1.625,1.625,0,0,1,.9,1.457l-7.135,1.042a2.923,2.923,0,0,0-1.481.494.987.987,0,0,0-.207,1.412,3.313,3.313,0,0,0,.494.331,1.481,1.481,0,0,1-.059,2.345,1.482,1.482,0,0,0-.494.336c-.291.39.1.909.217,1.383a1.738,1.738,0,0,1-.854,1.777,6.034,6.034,0,0,1-1.975.667,20.974,20.974,0,0,0-4.073,1.387,2.2,2.2,0,0,0-1.062.79,2.382,2.382,0,0,0,.123,2l1.856,5.007c.291.785.583,1.57.948,2.321.494.987,1.057,1.906,1.54,2.879a30.181,30.181,0,0,1,1.16,2.8C192.63,463.265,194.5,464.8,194.817,467.5Z" transform="translate(-107.986 -236.35)" fill="#ee8e9e"/><path d="M377.076,441.153a2.217,2.217,0,0,0-.815,1.19.494.494,0,0,0,.188.533.543.543,0,0,0,.331,0,3.135,3.135,0,0,0,1.432-.681,1.481,1.481,0,0,0-.43.346.494.494,0,0,0-.054.523.677.677,0,0,0,.469.247,4.577,4.577,0,0,0,2.069-.1,2.77,2.77,0,0,0-.864.494,1.146,1.146,0,0,0-.385.889.425.425,0,0,0,.153.336.621.621,0,0,0,.227.079,5.575,5.575,0,0,0,1.921,0,.988.988,0,0,0,.81-.494,1.21,1.21,0,0,0-.188-.928,5.149,5.149,0,0,1-.494-2.35.953.953,0,0,0-.069-.494.864.864,0,0,0-.43-.311,3.594,3.594,0,0,0-2.36-.469A4.872,4.872,0,0,0,377.076,441.153Z" transform="translate(-207.755 -243.715)" fill="#ee8e9e"/><path d="M385.163,410.414,361.6,423.163a.494.494,0,0,0,.035.879l4.019,1.516a.943.943,0,0,1,.528.494l3.125,6.419c.059.286.583.36.588.074l-.494-5.318a1.9,1.9,0,0,1,.43-1.071l12.215-11.968a.286.286,0,0,1,.267-.079.281.281,0,0,1,.153.449l-10.512,12.911a2.35,2.35,0,0,0-.415,1.062l-.627,4.592c.049.4.365.553.617.193l2.271-2.661a.494.494,0,0,1,.662-.114l5.851,4.261a.494.494,0,0,0,.741-.291l4.809-23.562a.494.494,0,0,0-.691-.533Z" transform="translate(-200.215 -228.771)" fill="#6c63ff"/><ellipse cx="29.363" cy="5.648" rx="29.363" ry="5.648" transform="translate(423.443 391.027)" fill="#6c63ff"/><ellipse cx="3.417" cy="4.473" rx="3.417" ry="4.473" transform="translate(448.901 389.802)" fill="#3f3d56"/><ellipse cx="3.417" cy="4.473" rx="3.417" ry="4.473" transform="translate(448.901 384.337)" fill="#3f3d56"/><ellipse cx="3.417" cy="4.473" rx="3.417" ry="4.473" transform="translate(448.901 378.866)" fill="#3f3d56"/><ellipse cx="3.417" cy="4.473" rx="3.417" ry="4.473" transform="translate(448.901 373.395)" fill="#3f3d56"/><ellipse cx="3.417" cy="4.473" rx="3.417" ry="4.473" transform="translate(448.901 367.924)" fill="#3f3d56"/><ellipse cx="3.417" cy="4.473" rx="3.417" ry="4.473" transform="translate(448.901 362.459)" fill="#3f3d56"/><ellipse cx="3.417" cy="4.473" rx="3.417" ry="4.473" transform="translate(448.901 356.988)" fill="#3f3d56"/><path d="M947,671.644a17.332,17.332,0,0,0,1.274-1.871l-8.986-1.481,9.717.074a16.427,16.427,0,0,0,.311-12.976l-13.03,6.759,12.018-8.833a16.378,16.378,0,1,0-27.048,18.323,16.929,16.929,0,0,0-1.866,2.963l11.662,6.058-12.433-4.172a16.387,16.387,0,0,0,2.637,15.375,16.373,16.373,0,1,0,25.744,0,16.393,16.393,0,0,0,0-20.244Z" transform="translate(-481.886 -347.614)" fill="#6c63ff"/><path d="M917.78,719.1a16.294,16.294,0,0,0,3.5,10.122,16.373,16.373,0,1,0,25.744,0C949.217,726.44,917.78,717.266,917.78,719.1Z" transform="translate(-481.909 -384.946)" opacity="0.1"/><ellipse cx="16.763" cy="3.224" rx="16.763" ry="3.224" transform="translate(160.024 378.333)" fill="#6c63ff"/><ellipse cx="1.95" cy="2.553" rx="1.95" ry="2.553" transform="translate(175.118 377.631)" fill="#3f3d56"/><ellipse cx="1.95" cy="2.553" rx="1.95" ry="2.553" transform="translate(175.118 374.511)" fill="#3f3d56"/><ellipse cx="1.95" cy="2.553" rx="1.95" ry="2.553" transform="translate(175.118 371.386)" fill="#3f3d56"/><ellipse cx="1.95" cy="2.553" rx="1.95" ry="2.553" transform="translate(175.118 368.265)" fill="#3f3d56"/><ellipse cx="1.95" cy="2.553" rx="1.95" ry="2.553" transform="translate(175.118 365.14)" fill="#3f3d56"/><ellipse cx="1.95" cy="2.553" rx="1.95" ry="2.553" transform="translate(175.118 362.019)" fill="#3f3d56"/><ellipse cx="1.95" cy="2.553" rx="1.95" ry="2.553" transform="translate(175.118 358.899)" fill="#3f3d56"/><path d="M376.77,715.8a9.272,9.272,0,0,1-.726-1.071l5.125-.839-5.545.039a9.381,9.381,0,0,1-.178-7.406l7.441,3.861-6.863-5.046a9.352,9.352,0,1,1,15.44,10.463,9.052,9.052,0,0,1,1.066,1.7l-6.656,3.456,7.1-2.37a9.425,9.425,0,0,1,.494,3,9.293,9.293,0,0,1-2,5.777,9.347,9.347,0,1,1-14.694,0,9.352,9.352,0,0,1,0-11.559Z" transform="translate(-207.009 -375.721)" fill="#6c63ff"/><path d="M393.468,742.918a9.292,9.292,0,0,1-2,5.777,9.347,9.347,0,1,1-14.694,0C375.515,747.105,393.468,741.866,393.468,742.918Z" transform="translate(-207.009 -397.054)" opacity="0.1"/><ellipse cx="11.272" cy="2.168" rx="11.272" ry="2.168" transform="translate(40.656 353.458)" fill="#6c63ff"/><ellipse cx="1.313" cy="1.718" rx="1.313" ry="1.718" transform="translate(50.807 352.989)" fill="#3f3d56"/><ellipse cx="1.313" cy="1.718" rx="1.313" ry="1.718" transform="translate(50.807 350.89)" fill="#3f3d56"/><ellipse cx="1.313" cy="1.718" rx="1.313" ry="1.718" transform="translate(50.807 348.787)" fill="#3f3d56"/><ellipse cx="1.313" cy="1.718" rx="1.313" ry="1.718" transform="translate(50.807 346.688)" fill="#3f3d56"/><ellipse cx="1.313" cy="1.718" rx="1.313" ry="1.718" transform="translate(50.807 344.59)" fill="#3f3d56"/><ellipse cx="1.313" cy="1.718" rx="1.313" ry="1.718" transform="translate(50.807 342.491)" fill="#3f3d56"/><ellipse cx="1.313" cy="1.718" rx="1.313" ry="1.718" transform="translate(50.807 340.393)" fill="#3f3d56"/><path d="M129.223,695.892a5.436,5.436,0,0,1-.494-.721l3.456-.563h-3.728a6.28,6.28,0,0,1-.123-4.977l5,2.627-4.617-3.392a6.285,6.285,0,1,1,10.369,7.036,6.368,6.368,0,0,1,.716,1.145l-4.463,2.316,4.77-1.6a6.177,6.177,0,0,1,.331,2.014,6.271,6.271,0,0,1-1.343,3.886,6.29,6.29,0,1,1-9.875,0A6.275,6.275,0,0,1,129.223,695.892Z" transform="translate(-82.015 -368.149)" fill="#6c63ff"/><path d="M140.451,714.135a6.271,6.271,0,0,1-1.343,3.886,6.29,6.29,0,1,1-9.875,0C128.384,716.954,140.451,713.429,140.451,714.135Z" transform="translate(-82.02 -382.506)" opacity="0.1"/></g></svg>