<svg xmlns="http://www.w3.org/2000/svg" width="501.5" height="343.43" viewBox="0 0 501.5 343.43"><g transform="translate(0 0)"><path d="M973.681,638.6a8.892,8.892,0,0,0-6.178,2.964c-5.265-18.975-13.416-31.169-22.574-31.169s-17.309,12.194-22.574,31.169a8.892,8.892,0,0,0-6.178-2.964c-10.4,0-18.837,23.993-18.837,53.589h95.178C992.518,662.594,984.086,638.6,973.681,638.6Z" transform="translate(-499.192 -359.17)" fill="#d0cde1"/><path d="M405.685,585.08a10.478,10.478,0,0,0-6.178,2.174c-5.265-13.915-13.416-22.857-22.574-22.857s-17.309,8.942-22.574,22.857a10.478,10.478,0,0,0-6.178-2.174c-10.4,0-18.837,17.595-18.837,39.3h95.178C424.522,602.675,416.088,585.08,405.685,585.08Z" transform="translate(-212.762 -335.973)" fill="#d0cde1"/><path d="M596.517,721.51H95.854C96.3,680.832,208.213,647.9,346.186,647.9S596.066,680.832,596.517,721.51Z" transform="translate(-95.017 -378.08)" fill="#3f3d56"/><circle cx="64.035" cy="64.035" r="64.035" transform="translate(0 55.418)" fill="#d0cde1"/><path d="M223.834,520.547h-3.615V344.671a60.536,60.536,0,0,1,1.807-14.682h0a60.536,60.536,0,0,1,1.807,14.682Z" transform="translate(-157.732 -217.766)" fill="#3f3d56"/><path d="M222.337,432.708l-1.9-3.073,26.747-16.574a11.388,11.388,0,0,1,6.185-1.706h0a11.388,11.388,0,0,1-4.281,4.779Z" transform="translate(-157.84 -258.796)" fill="#3f3d56"/><path d="M199.968,404.963l1.9-3.073-18.406-11.406a6.849,6.849,0,0,0-4.893-.905h0a6.849,6.849,0,0,0,2.989,3.978Z" transform="translate(-136.731 -247.754)" fill="#3f3d56"/><path d="M199.967,546.641l1.9-3.073-18.406-11.406a6.849,6.849,0,0,0-4.893-.905h0a6.849,6.849,0,0,0,2.989,3.978Z" transform="translate(-136.731 -319.2)" fill="#3f3d56"/><circle cx="61.469" cy="61.469" r="61.469" transform="translate(342.133 58.888)" fill="#d0cde1"/><path d="M904.344,515.316h3.47V346.49a58.109,58.109,0,0,0-1.735-14.094h0a58.112,58.112,0,0,0-1.735,14.094Z" transform="translate(-502.724 -218.98)" fill="#3f3d56"/><path d="M877.152,431l1.828-2.95L853.3,412.139a10.932,10.932,0,0,0-5.937-1.638h0a10.932,10.932,0,0,0,4.109,4.588Z" transform="translate(-473.992 -258.366)" fill="#3f3d56"/><path d="M908.032,404.365l-1.828-2.95,17.668-10.948a6.574,6.574,0,0,1,4.7-.869h0a6.575,6.575,0,0,1-2.869,3.819Z" transform="translate(-503.662 -247.766)" fill="#3f3d56"/><path d="M908.032,540.365l-1.828-2.95,17.668-10.948a6.574,6.574,0,0,1,4.7-.869h0a6.574,6.574,0,0,1-2.869,3.819Z" transform="translate(-503.662 -316.349)" fill="#3f3d56"/><path d="M222.224,780.644a4,4,0,0,0-1.609.341,6.609,6.609,0,0,0-11.757,0,4,4,0,0,0-1.609-.341c-2.709,0-4.906,2.763-4.906,6.171H227.13C227.13,783.407,224.933,780.644,222.224,780.644Z" transform="translate(-148.718 -443.385)" fill="#d0cde1"/><path d="M532.224,769.867a2.7,2.7,0,0,0-1.609.575c-1.371-3.68-3.494-6.045-5.879-6.045s-4.507,2.365-5.879,6.045a2.7,2.7,0,0,0-1.609-.575c-2.709,0-4.906,4.653-4.906,10.393H537.13C537.13,774.52,534.933,769.867,532.224,769.867Z" transform="translate(-305.046 -436.829)" fill="#d0cde1"/><path d="M963.224,769.867a2.7,2.7,0,0,0-1.609.575c-1.371-3.68-3.494-6.045-5.879-6.045s-4.507,2.365-5.879,6.045a2.7,2.7,0,0,0-1.609-.575c-2.709,0-4.906,4.653-4.906,10.393H968.13C968.13,774.52,965.933,769.867,963.224,769.867Z" transform="translate(-522.391 -436.829)" fill="#6c63ff"/><path d="M616.356,482.069l-.787,3.74-.984,3.74-3.149,44.489,10.827.788,4.921-48.623-.787-2.559Z" transform="translate(-308.336 -243.099)" fill="#2f2e41"/><path d="M685.324,678.2l-4.528,6.89s-12.6,10.236-3.543,10.827,12.4-6.1,12.4-6.1,3.15-.984,3.543-1.969-.787-9.646-.787-9.646Z" transform="translate(-386.555 -393.361)" fill="#2f2e41"/><path d="M703.13,688.92s-4.528,11.417-3.937,13.386,1.575,1.969,1.378,3.74-.787,5.906,6.693,6.1,3.937-9.843,3.937-9.843l-.984-13.386Z" transform="translate(-399.243 -398.768)" fill="#2f2e41"/><path d="M676.95,517.238s-2.756,4.724-2.362,7.677,6.1,34.646,6.1,34.646l4.528,38.583,10.039-.787-3.937-35.63.984-28.347,1.772,20.866,11.614.394,6.89-29.725s-5.118-8.268-6.1-8.858S676.95,517.238,676.95,517.238Z" transform="translate(-386.843 -311.536)" fill="#2f2e41"/><circle cx="8.465" cy="8.465" r="8.465" transform="translate(295.324 129.028)" fill="#ffb8b8"/><path d="M607.861,284.276l1.181,11.221,12.992-1.968-7.086-13.189Z" transform="translate(-306.533 -141.37)" fill="#ffb8b8"/><path d="M705.2,403.8s-6.693,4.921-13.189,2.165l-9.843,25v31.3s14.764,4.331,23.032-.787c0,0,5.906-1.181,6.89-.984s-3.543-53.347-3.543-53.347Z" transform="translate(-390.687 -254.986)" fill="#d0cde1"/><path d="M716.323,402.043l4.528,6.5a7.836,7.836,0,0,1,.787,5.315c-.591,3.15-1.181,44.292,4.331,45.867a30.312,30.312,0,0,0,9.055,1.378s-4.921-23.622-3.15-27.756l5.512-24.8-14.567-8.268s-.911-3.74-2.424-1.673A13.993,13.993,0,0,1,716.323,402.043Z" transform="translate(-407.909 -252.05)" fill="#575a89"/><path d="M672.295,441.594l6.724-37.8-6.724,3.543s-7.677,3.15-9.252,6.89-7.874,21.654-7.874,21.654,1.575,10.827,7.48,6.3,4.528-6.693,4.528-6.693-5.118,20.866-4.331,21.457,1.181,6.1,1.181,6.1l6.1-1.181Z" transform="translate(-377.07 -254.986)" fill="#575a89"/><path d="M674.23,425.109l2.559-3.74s5.788-11.614,9.981-7.677-7.815,12.992-7.815,12.992Z" transform="translate(-386.682 -259.564)" fill="#ffb8b8"/><path d="M648.352,416.15l-1.575,2.021,3.937,5.066,1.772-3.543Z" transform="translate(-326.158 -209.857)" fill="#ffb8b8"/><path d="M692.769,360.813a4.414,4.414,0,0,0-2.341,1.041,3.672,3.672,0,0,1-2.384.89,2.569,2.569,0,0,1-1.869-1.428,7.59,7.59,0,0,1-.656-2.346l.982.346-.8-.9,8.456-2.569c2.558-.777,5.45-1.526,7.794-.239a7.68,7.68,0,0,1,2.831,3.086,16.09,16.09,0,0,1-.225,15.842c-1.3-.11-2.142-1.469-2.352-2.753s-.005-2.615-.265-3.89-1.233-2.582-2.534-2.542l-.685,1.461c.438-.935-2.165-3.217-2.786-3.641a8.467,8.467,0,0,1-1.517-1.105C693.884,361.5,693.749,360.8,692.769,360.813Z" transform="translate(-392.374 -230.332)" fill="#2f2e41"/><path d="M665.014,433.184l4.724,2.953-4.724,19.685s-7.48,9.252-10.236,0c-2.307-7.744,6.42-18.385,9.326-21.648C664.669,433.539,665.014,433.184,665.014,433.184Z" transform="translate(-376.679 -269.805)" fill="#575a89"/><path d="M745.274,418.491H749.8s3.937,7.677,4.331,11.811.394,20.473.394,20.473l-7.677,22.835-5.906-4.331,4.921-13.583s-.591-2.953,0-4.331-1.772-8.465-2.165-8.858S745.274,418.491,745.274,418.491Z" transform="translate(-420.324 -262.396)" fill="#575a89"/><rect width="53.268" height="4.747" transform="translate(271.254 64.582) rotate(180)" fill="#3f3d56"/><rect width="53.268" height="4.747" transform="translate(271.254 82.068) rotate(180)" fill="#3f3d56"/><rect width="53.268" height="4.747" transform="translate(271.254 97.733) rotate(180)" fill="#3f3d56"/><path d="M264.568,189.645,290.7,163.023h29.536v-.991h-29.95l-.146.147-26.273,26.769Z" transform="translate(-133.061 -81.71)" fill="#3f3d56"/><circle cx="5.829" cy="5.829" r="5.829" transform="translate(195.401 57.837)" fill="#6c63ff"/><circle cx="5.829" cy="5.829" r="5.829" transform="translate(195.401 75.323)" fill="#6c63ff"/><circle cx="5.829" cy="5.829" r="5.829" transform="translate(195.401 90.988)" fill="#6c63ff"/><path d="M493.488,222.8a6.193,6.193,0,1,1,6.193,6.193A6.193,6.193,0,0,1,493.488,222.8Zm.729,0a5.464,5.464,0,1,0,5.464-5.464,5.464,5.464,0,0,0-5.464,5.464Z" transform="translate(-295.537 -160.587)" fill="#3f3d56"/><path d="M493.488,258.07a6.193,6.193,0,1,1,6.193,6.193A6.193,6.193,0,0,1,493.488,258.07Zm.729,0a5.464,5.464,0,1,0,5.464-5.464,5.464,5.464,0,0,0-5.464,5.464Z" transform="translate(-295.537 -178.375)" fill="#3f3d56"/><path d="M493.488,289.67a6.193,6.193,0,1,1,6.193,6.193A6.193,6.193,0,0,1,493.488,289.67Zm.729,0a5.464,5.464,0,1,0,5.464-5.464,5.464,5.464,0,0,0-5.464,5.464Z" transform="translate(-295.537 -194.311)" fill="#3f3d56"/><rect width="53.268" height="4.747" transform="translate(265.846 3.82)" fill="#3f3d56"/><rect width="53.268" height="4.747" transform="translate(265.846 21.305)" fill="#3f3d56"/><rect width="53.268" height="4.747" transform="translate(265.846 36.97)" fill="#3f3d56"/><path d="M756.611,81.6l-21.17-31.579H705.905v-.991h29.95l.146.147,21.316,31.726Z" transform="translate(-355.975 -24.726)" fill="#3f3d56"/><circle cx="5.829" cy="5.829" r="5.829" transform="translate(330.042 1.821)" fill="#6c63ff"/><circle cx="5.829" cy="5.829" r="5.829" transform="translate(330.042 19.307)" fill="#6c63ff"/><circle cx="5.829" cy="5.829" r="5.829" transform="translate(330.042 34.972)" fill="#6c63ff"/><path d="M759.531,115.989a6.193,6.193,0,1,1,6.193-6.193A6.193,6.193,0,0,1,759.531,115.989Zm0-11.657A5.464,5.464,0,1,0,765,109.8a5.464,5.464,0,0,0-5.464-5.464Z" transform="translate(-426.575 -103.603)" fill="#3f3d56"/><path d="M759.531,151.263a6.193,6.193,0,1,1,6.193-6.193,6.193,6.193,0,0,1-6.193,6.193Zm0-11.657A5.464,5.464,0,1,0,765,145.07a5.464,5.464,0,0,0-5.464-5.464Z" transform="translate(-426.575 -121.392)" fill="#3f3d56"/><path d="M759.531,182.862a6.193,6.193,0,1,1,6.193-6.193,6.193,6.193,0,0,1-6.193,6.193Zm0-11.657A5.464,5.464,0,1,0,765,176.669a5.464,5.464,0,0,0-5.464-5.464Z" transform="translate(-426.575 -137.326)" fill="#3f3d56"/><rect width="37.203" height="3.315" transform="translate(262.468 190.287) rotate(180)" fill="#3f3d56"/><rect width="37.203" height="3.315" transform="translate(262.468 202.5) rotate(180)" fill="#3f3d56"/><rect width="37.203" height="3.315" transform="translate(262.468 213.44) rotate(180)" fill="#3f3d56"/><path d="M332.079,425.323l18.248-18.593h20.629v-.693H350.038l-.1.1-18.35,18.7Z" transform="translate(-167.213 -204.758)" fill="#3f3d56"/><circle cx="4.071" cy="4.071" r="4.071" transform="translate(209.491 185.577)" fill="#6c63ff"/><circle cx="4.071" cy="4.071" r="4.071" transform="translate(209.491 197.789)" fill="#6c63ff"/><circle cx="4.071" cy="4.071" r="4.071" transform="translate(209.491 208.73)" fill="#6c63ff"/><path d="M520.36,479.722a4.325,4.325,0,1,1,4.325,4.325,4.325,4.325,0,0,1-4.325-4.325Zm.509,0a3.816,3.816,0,1,0,3.816-3.816,3.816,3.816,0,0,0-3.816,3.816Z" transform="translate(-309.088 -291.092)" fill="#3f3d56"/><path d="M520.36,504.358a4.325,4.325,0,1,1,4.325,4.325A4.325,4.325,0,0,1,520.36,504.358Zm.509,0a3.816,3.816,0,1,0,3.816-3.816,3.816,3.816,0,0,0-3.816,3.816Z" transform="translate(-309.088 -303.516)" fill="#3f3d56"/><path d="M520.36,526.427a4.325,4.325,0,1,1,4.325,4.325A4.325,4.325,0,0,1,520.36,526.427Zm.509,0a3.816,3.816,0,1,0,3.816-3.816,3.816,3.816,0,0,0-3.816,3.816Z" transform="translate(-309.088 -314.645)" fill="#3f3d56"/></g></svg>