<svg xmlns="http://www.w3.org/2000/svg" width="566.07" height="420.874" viewBox="0 0 566.07 420.874"><g transform="translate(-640 -4145.846)"><g transform="translate(814.609 4242.287)"><path d="M859.961,758.362c0,2.556-2.338,5.037-6.714,7.393-22.447,12.08-98.563,20.969-189.017,20.969q-5.339,0-10.6-.044c-103.17-.8-185.127-13.171-185.127-28.319C468.5,742.7,556.13,730,664.23,730c29.6,0,57.665.954,82.818,2.655q9.481.645,18.389,1.428,3.7.318,7.3.673c11.3,1.091,21.773,2.35,31.249,3.753q6.9,1.019,13.071,2.132a201.742,201.742,0,0,1,26.648,6.383C854.157,750.5,859.961,754.335,859.961,758.362Z" transform="translate(-468.5 -462.291)" fill="#4d3e5a"/><path d="M706.612,383.024l-14.292-3.979s-5.6-1.117-2.178-12.051,10.2-7.873,10.2-7.873l12.678,3.683,5.005,1.546-7.043,9.88-.59,6.586Z" transform="translate(-551.566 -322.45)" fill="#3f3d56"/><path d="M639.715,271.033l4.484,17.91-22.975,22.267-1.975.495-5.269-1.48-4.484-17.911,4.542-4.776-4.643-1.217L619.3,276.7l5.17,1.085,4.147-4.117-2.8-1.119-.264-1.054,3.391-2.669Z" transform="translate(-457.052 -239.345)" fill="#3f3d56"/><path d="M623.5,304.97l2.968,11.852,13.693-12.945-3.428-12.017Z" transform="translate(-462.367 -248.02)" fill="#6c63ff"/><path d="M639.715,271.033l.629,2.511L617.5,295.769l-1.975.494-5.1-1.381-.282-.007-.641-2.561,4.542-4.776-4.643-1.217L619.3,276.7l5.17,1.085,4.147-4.117-2.8-1.119-.264-1.054,3.391-2.669Z" transform="translate(-457.052 -239.345)" fill="none" stroke="#3f3d56" stroke-miterlimit="10" stroke-width="1"/><ellipse cx="1.901" cy="1.29" rx="1.901" ry="1.29" transform="translate(169.954 30.672) rotate(-14.057)" fill="#6c63ff"/><ellipse cx="1.901" cy="1.29" rx="1.901" ry="1.29" transform="translate(155.44 49.84) rotate(-14.057)" fill="#6c63ff"/><path d="M701.914,414.216l3.117-10.6s-8.1-19.324,1.247-21.194,9.973,18.077,9.973,18.077l-3.74,11.844Z" transform="translate(-556.363 -331.329)" fill="#ffb6b6"/><circle cx="24.761" cy="24.761" r="24.761" transform="translate(178.656 12.76)" fill="#ffb6b6"/><path d="M778.767,386.122s-1.456,18.207-5.1,19.663S813,417.437,813,417.437l-10.924-12.381s-2.185-18.935,2.913-23.3Z" transform="translate(-583.361 -331.122)" fill="#ffb6b6"/><path d="M688.751,571.791s-21.817-20.57-28.05-19.324S642,555.584,642,564.934,662.57,596.1,662.57,596.1s15.584,34.284,30.544,35.531a258.112,258.112,0,0,1,29.3,4.363s-6.857,24.934-3.117,31.791,18.077,14.96,19.324,14.337,18.7-16.83,26.18-39.894,12.467-40.517,5.61-41.764S688.751,571.791,688.751,571.791Z" transform="translate(-533.85 -395.402)" fill="#2f2e41"/><path d="M642.7,569.5s-4.363-.623-3.74,9.973,2.493,48.621,5.61,56.1,3.74,16.207,2.493,19.324-3.74,8.1.623,8.727,22.441-1.87,24.311-2.493,3.74-11.22,2.493-11.22-4.363-.623-3.117-4.987,1.87-4.363,0-5.61-6.857-3.117-5.61-4.363S668.26,604.4,668.26,604.4Z" transform="translate(-532.683 -401.834)" fill="#2f2e41"/><path d="M647.731,715.617s-10.6-3.117-11.844,3.74c0,0-1.87,10.6,6.234,14.337a100.111,100.111,0,0,1,14.96,8.727s13.09,4.987,13.714-1.247S668.3,712.5,668.3,712.5Z" transform="translate(-531.477 -455.7)" fill="#2f2e41"/><path d="M767.867,719.707,787.814,703.5s-3.74,19.947,1.247,23.687l2.278,6.66-6.379,5.218S765.374,735.914,767.867,719.707Z" transform="translate(-581.175 -452.31)" fill="#2f2e41"/><path d="M806.11,685.418s-13.09,3.74-11.22,16.83,4.268,27.312,4.268,27.312.719,35.023,10.069,37.516,11.844-2.493,11.844-2.493,10.629-27.368,7.48-35.531c-3.811-9.881-9.3-20.975-7.48-24.31C822.863,701.459,819.823,683.548,806.11,685.418Z" transform="translate(-591.367 -445.448)" fill="#2f2e41"/><path d="M776.53,408.27s-4.987.623-13.09,1.87-13.714-4.987-18.077-3.74-40.517,9.973-40.517,9.973l5.61,43.011s-6.857,49.868-5.61,58.594-14.96,7.48-5.61,18.077S724.793,556,757.83,552.886s37.4-2.493,37.4-7.48-7.48-47.374-4.987-51.114,7.48-8.1,4.987-12.467-4.987-6.857-1.247-10.6,5.61-7.48,5.61-9.35,8.727-32.414,8.727-32.414-3.74-14.96-8.1-15.584-8.1-3.74-11.22-3.74-4.987.623-6.857,0Z" transform="translate(-554.308 -340.343)" fill="#f0f0f0"/><path d="M734.464,334.1a19.372,19.372,0,0,0,7.425-3.154c1.809,1.749,12.95,11.833,32.1,14.759,0,0,.042-.379.152-1.021l6.561,1.12,12.135-1.181c-.061.206-.1.319-.1.319s1.735-.468,2.337-4.39q.173-1.127.419-2.242c.976-4.452,3.344-20.5-10.091-31.223-9.781-7.807-21.055-5.344-28.183-2.364a23.285,23.285,0,0,0-12.775,13.022,17.992,17.992,0,0,0-1.157,4.55l-.279.793c-2.164.3-6.509-1.515-8.844-.656-3.192,1.175-4.762,5.992-5.082,7.433S730.258,334.657,734.464,334.1Zm41.331,4.528c1.728-4.448,4.99-9.305,10.964-9.063,6.2.251,7.284,5.172,7.065,9.38l-15.417.561Z" transform="translate(-566.633 -301.031)" fill="#2f2e41"/><ellipse cx="1.032" cy="2.727" rx="1.032" ry="2.727" transform="translate(205.057 2.034) rotate(-80.315)" fill="#2f2e41"/></g><g transform="translate(640 4145.846)"><path d="M161.507,535.835H156V582.4s35.548,11.516,70.1,0V535.835Z" transform="translate(-156 -341.659)" fill="#e6e6e6"/><ellipse cx="34.547" cy="5.257" rx="34.547" ry="5.257" transform="translate(0 189.169)" fill="#e6e6e6"/><ellipse cx="34.547" cy="5.257" rx="34.547" ry="5.257" transform="translate(0 189.169)" opacity="0.1"/><path d="M241.031,309.839s21.2.576,24.7,1.85,5.067,10.384,5.067,10.384l-16.462,5.174-12.313-.7-9.267.655,5.174-13.551Z" transform="translate(-194.328 -228.815)" fill="#2f2e41"/><path d="M249.021,295.944s1.395,5.388-1.7,9.2,13.309,17.408,13.309,17.408l8.654-1.488s-1.907-16.554.655-20.746S249.021,295.944,249.021,295.944Z" transform="translate(-201.404 -221.877)" fill="#9f616a"/><path d="M191.019,462.552l-19.1,25.323,13.032,7.608,17.935-29.344Z" transform="translate(-85.845 -230.962)" fill="#9f616a"/><path d="M330.442,655.4s-7.032-8.17-6.719-6.348-5,17.273-.057,18.768,47.365,5.459,47.948.669-12.654-8.142-12.654-8.142-7.865-7.558-9.608-6.79S330.442,655.4,330.442,655.4Z" transform="translate(-238.662 -398.057)" fill="#2f2e41"/><path d="M201.505,508.9l15.252,25.985,11.516-6.669-15.38-21.273Z" transform="translate(-100.616 -253.129)" fill="#9f616a"/><path d="M381.675,533.6,377.148,540s-21.579,29.97-19.287,32.39,11.836,11.565,16.69,9.793,22.1-32.4,22.1-32.4l-4.5-17.985Z" transform="translate(-256.708 -339.644)" fill="#d0cde1"/><path d="M219.052,488.453s4.833,9.017,17.081,12.071,25.045,9.295,25.5,9.217,1.744-.769,2.057,1.053,3.672,5,3.672,5,13.53,45.977,18.7,46.026,15.786-3.651,16.006-5.1-15.822-48.4-15.978-49.307l-1.879-10.932s21.216,3.388,23.195,3.986S326.984,510.7,326.984,510.7s17.942-12.932,1.16-25.992-45.628-22.639-45.628-22.639l-10.348-2.911-9.019-.538-1.328-5.093-21.36,1.232-22.291,9.459Z" transform="translate(-187.043 -300.562)" fill="#d0cde1"/><circle cx="16.638" cy="16.638" r="16.638" transform="translate(43.562 51.514)" fill="#9f616a"/><path d="M235.94,310.5l2-.344s3.614,13.916,14.8,16.215c0,0,5.517-6.609,5.282-7.724s4.369-7.065,6.818-3.734-.6,62,1.459,63.058,6.469,2.171,2.918,6.064-17.658,9.131-20.782,7.323-9.509-17.124-12.27-22.277-7.181-22.682-7.181-22.682-5.644-19.195-2.171-23.544S235.94,310.5,235.94,310.5Z" transform="translate(-190.792 -228.972)" fill="#6c63ff"/><path d="M237.756,382.763a94.907,94.907,0,0,1-1.906,12.151c-.816,3.258-1.766,5.226-2.85,5.142-2.767-.207-4.024,3.851-4.672,8.529-.693,4.963-.693,10.625-1.073,12.626-.5,2.644-3.722,4.661-10.155,4.069a45.388,45.388,0,0,1-11.189-2.744c-8.685-3.158-8.428-28.767-6.975-47.769.889-11.648,2.224-20.819,2.224-20.819a103.414,103.414,0,0,1-3.482-13.263,17.628,17.628,0,0,1-.252-2.979c.129-4.712,8.608-10.735,13.806-18.666s12.423-8.821,12.423-8.821l-2.47,7.456s3.828,5.908,3.856,11.53,9.166,9.68,12.447,12.4C239.55,343.316,239.5,366.147,237.756,382.763Z" transform="translate(-176.685 -229.004)" fill="#2f2e41"/><path d="M291.37,315.539s.6.709,3.345.363c3.293-.415,7.82.725,8.872,3.868,1.929,5.765,7.366,29.216,7.366,29.216s2.263,26.81,3.281,32.732.512,11.167,1.516,14.277-9.907-5.8-13.928-4.64-6.6-13.871-6.1-19.117.932-10.946-.463-16.334,1.078-19.647.986-22.914S287.378,321.49,291.37,315.539Z" transform="translate(-223.073 -231.661)" fill="#2f2e41"/><path d="M311.672,481.965s17.617,9.611,19.3,23.29-23.563-13.245-23.563-13.245Z" transform="translate(-231.603 -314.761)" fill="#9f616a"/><path d="M336.006,461.028s5.4,27.209,13.807,25.764-4.7-27.33-4.7-27.33Z" transform="translate(-245.881 -303.525)" fill="#9f616a"/><path d="M385.968,695.6s-4.306,4.961-5.373,4.206-3.523,9.516-1.31,11.48,10.74,5.188,10.832,8.455,22.96,2.619,23.778-.8-2.868-11.231-5.459-12.661-12.17-14.6-12.17-14.6S388.765,692.77,385.968,695.6Z" transform="translate(-267.044 -419.473)" fill="#2f2e41"/><path d="M254.2,440.886c-4.086-2.884-15.493-3.6-25.62-4.264-4.443-.285-8.641-.565-11.865-1.017-3.107-.43-5.9-3.27-8.384-7.5-3.761-6.411-6.8-16.024-9.144-25.3.889-11.648,2.224-20.819,2.224-20.819a103.41,103.41,0,0,1-3.482-13.263,7.1,7.1,0,0,1,2.247-2.023c10.742-4.611,21,40.766,22.3,47.887.022.117.039.229.056.324.632,3.666,7.456,6.8,13.57,8.043,3.767.766,7.271.816,8.887-.179,4.242-2.6,17.287,7.819,18.276,8.115S260.067,445.039,254.2,440.886Z" transform="translate(-176.936 -257.042)" opacity="0.1"/><path d="M197.185,361.118s-7.807,3.687-4.377,20.917,10.341,46.525,20.91,47.991,31.614,1.132,37.486,5.281,10.057-9.7,9.067-10-14.035-10.718-18.277-8.114-21.437-1.943-22.455-7.864S208.1,356.429,197.185,361.118Z" transform="translate(-173.944 -254.256)" fill="#2f2e41"/><path d="M314.788,344.942l8.581,19.911s.864-.431,1.867,2.679,1.473,5.843,3.231,7.886,9.58,31.18,9.815,32.547-10.8,6.077-13.27,2.281S314.788,344.942,314.788,344.942Z" transform="translate(-235.286 -246.343)" fill="#2f2e41"/><path d="M248.283,262.779c.638-.17.731-1.017.753-1.677.114-3.532,2.242-7.157,5.623-8.186a9.453,9.453,0,0,1,3.985-.219,15.094,15.094,0,0,1,5.4,1.8,8.418,8.418,0,0,0,2.743,1.243c.66.1,3.516.93,4.173,1.047,1.444.257,2.787,1.549,4.173,1.068,1.326-.46,1.619-2.177,1.651-3.58.073-3.2-3.856-6.119-5.993-8.5a11.151,11.151,0,0,0-6.452-3.071,42.953,42.953,0,0,0-8.438-.513c-3.821.068-4.243-1.139-7.688.514s-6.339,4.943-6.5,8.761c-.034.8.048,1.594-.019,2.387-.163,1.935-1.691,3.182-2.173,5.063a10.181,10.181,0,0,0,1.422,8.136c1.279,1.882,1.638,3.277,3.177,5.318.924-.957.384-.875,1.308-1.832a2.277,2.277,0,0,0,.677-2.782l-.981-3.828a3.454,3.454,0,0,1-.085-2.13C246.082,259.2,247.219,263.063,248.283,262.779Z" transform="translate(-197.548 -194.859)" fill="#2f2e41"/><path d="M784.291,264.511c-3.457-26.692-7.349-53.583-11.628-80.317q-2.884-17.973-5.987-35.82l-.063-.363-.367.017q-6.343.234-12.733.3-3.466.044-6.927.046c-7.61.017-15.2-.072-22.653-.156-7.627-.089-15.351-.177-23.113-.152-5.055.017-10.127.08-15.195.223-7.859.223-15.718.637-23.513,1.362-8.049.746-16.194,1.838-24.074,2.9-8.972,1.206-18.247,2.45-27.417,3.187-16.856,1.358-34.041,1.058-50.661.772-8.968-.156-18.239-.316-27.358-.215-.4,0-.944-.03-1.577-.076-2.323-.16-5.506-.384-6.451,1.147-.645,1.037.114,4.208,1.088,7.935.253.961.472,1.8.535,2.2,1,6.172,1.792,12.463,2.365,18.694a278.931,278.931,0,0,1,.856,38.514,276.3,276.3,0,0,1-5.321,42.46l-.093.451.455.055c32.3,3.841,66.071,6.118,100.369,6.767,5.122.1,9.946.152,14.529.156.443,0,.881,0,1.315,0,3.613,0,7.079-.029,10.422-.084q3.219-.057,6.295-.148c3.731-.114,7.319-.266,10.814-.46.282-.013.561-.03.839-.046q1.486-.082,2.956-.181,2.372-.152,4.7-.333c10.781-.835,21.7-2.184,32.338-3.542q1.79-.234,3.567-.46c.8-.1,1.6-.207,2.407-.308,16.038-2.057,32.43-4.077,48.81-4.478.632-.017,1.269-.034,1.9-.042q4.933-.089,9.857.051,4.136.114,8.264.409l.514.034Zm-9.145-.793q-4.749-.127-9.5-.034c-.734.008-1.463.025-2.2.046-17.126.443-34.243,2.643-50.956,4.789l-1.783.228-1.358.177c-10.764,1.379-21.814,2.749-32.717,3.592-1.24.1-2.483.186-3.74.27-1.294.089-2.6.169-3.917.245l-.843.051c-3.512.19-7.125.341-10.878.451q-3.674.114-7.538.169c-3.343.051-6.813.072-10.431.059-4.558-.008-9.356-.059-14.444-.156-34.108-.645-67.694-2.9-99.829-6.708a277.853,277.853,0,0,0,4.385-80.772c-.573-6.252-1.37-12.56-2.37-18.753-.076-.451-.287-1.261-.552-2.285-.552-2.1-1.695-6.463-1.189-7.277.679-1.1,3.685-.885,5.679-.746.649.042,1.206.08,1.64.076,9.107-.1,18.374.059,27.337.215,16.637.287,33.843.586,50.741-.776,9.191-.738,18.479-1.986,27.464-3.192,7.867-1.054,16-2.146,24.04-2.892.616-.059,1.227-.114,1.842-.164.283-.025.565-.051.843-.072,6.75-.565,13.546-.911,20.343-1.109,5.228-.152,10.456-.219,15.667-.236,7.732-.025,15.435.063,23.037.152,7.429.089,14.992.173,22.577.156,2.34,0,4.68-.017,7.02-.051q6.21-.07,12.387-.287,2.991,17.2,5.776,34.559c4.309,26.844,8.23,53.853,11.7,80.662q-4.119-.291-8.245-.388Z" transform="translate(-339.752 -148.011)" fill="#3f3d56"/><path d="M657.3,281.292c-1.453-10.375-.15-20.962,1.109-31.2.673-5.471,1.369-11.129,1.637-16.69.565-11.722-.748-23.622-2.017-35.129-1.146-10.387-2.33-21.127-2.141-31.743l.843.015c-.189,10.561.993,21.274,2.135,31.635,1.273,11.54,2.589,23.473,2.021,35.262-.269,5.592-.967,11.265-1.642,16.752-1.253,10.184-2.548,20.715-1.111,30.98Z" transform="translate(-405.596 -157.258)" fill="#3f3d56"/><path d="M807.851,276.707c-3.267-41.474-4.7-83.6-4.246-125.195l.843.009c-.449,41.574.978,83.671,4.243,125.12Z" transform="translate(-479.322 -149.759)" fill="#3f3d56"/><path d="M558.83,188.428l-.089-.839a230.344,230.344,0,0,1,30.879-1.178l-.025.843a229.4,229.4,0,0,0-30.765,1.174Z" transform="translate(-357.097 -167.137)" fill="#3f3d56"/><path d="M703.463,177.586l-.024-.843a138.011,138.011,0,0,0,15.335-1.005,137.956,137.956,0,0,0,16.793-3.827l.221.814a138.6,138.6,0,0,1-16.9,3.849A138.774,138.774,0,0,1,703.463,177.586Z" transform="translate(-429.348 -159.944)" fill="#3f3d56"/><path d="M898.048,170c-.624,0-1.246-.005-1.863-.01l-48.078-.4.006-.843,48.078.4a41.475,41.475,0,0,0,9.98-.723l.2.82A35.656,35.656,0,0,1,898.048,170Z" transform="translate(-501.583 -158.205)" fill="#3f3d56"/><path d="M568.715,251.314H549.742c2.134-8.756,4.184-16.93,0-22.767h18.973A25.532,25.532,0,0,1,568.715,251.314Z" transform="translate(-352.604 -188.224)" fill="#6c63ff"/><path d="M744.9,335.763H725.93c-1.187-10.554,1.431-18.421,0-22.767H744.9a118.777,118.777,0,0,0,0,22.767Z" transform="translate(-440.418 -230.391)" fill="#6c63ff"/><path d="M700.921,271.524H681.949c.711-8.754,3.005-16.929,0-22.767h18.972A25.524,25.524,0,0,1,700.921,271.524Z" transform="translate(-418.617 -198.315)" fill="#6c63ff"/><path d="M755.906,232.788h18.972c1.187-8.756-1.431-16.93,0-22.767H755.906A25.523,25.523,0,0,0,755.906,232.788Z" transform="translate(-454.208 -178.974)" fill="#ff6584"/><path d="M584.122,328.785h18.972c1.187-8.756-1.431-16.93,0-22.767H584.122A25.523,25.523,0,0,0,584.122,328.785Z" transform="translate(-368.432 -226.907)" fill="#3f3d56"/></g></g></svg>