<svg xmlns="http://www.w3.org/2000/svg" xmlns:xlink="http://www.w3.org/1999/xlink" width="490.666" height="288.128" viewBox="0 0 490.666 288.128"><defs><linearGradient id="a" x1="0.5" y1="1" x2="0.5" gradientUnits="objectBoundingBox"><stop offset="0" stop-color="gray" stop-opacity="0.251"/><stop offset="0.54" stop-color="gray" stop-opacity="0.122"/><stop offset="1" stop-color="gray" stop-opacity="0.102"/></linearGradient></defs><g transform="translate(0.003 0.002)"><path d="M502.3,379.847c-.461.337-.934.661-1.412.981a47.346,47.346,0,0,1-5.506,3.177c-10.006,4.99-22.332,7.425-34.342,9.08-26.933,3.719-54.434,4.44-81.82,5.148-73.985,1.924-148.166,3.839-221.963-.589C128.1,395.9,98.294,392.954,71.868,384q-5.677-1.924-11.14-4.239a93.418,93.418,0,0,1-20.314-11.481c-5.544-4.265-10.006-9.17-12.684-14.74-5.587-11.609-2.632-24.647,3.745-36.022a111.345,111.345,0,0,1,8.956-13.222c4.913-6.406,10.334-12.612,15.29-19.009,17.623-22.784,29.121-51.56,12.855-74.9-4.692-6.7-11.434-12.59-15.243-19.589-4.866-8.957-4.487-18.9-2.939-28.575.2-1.22.427-2.431.635-3.642,2.657-14.318,7.6-29.748,22.92-38.688,15.908-9.289,38.492-8.82,58.243-5.5,30.708,5.169,59.036,15.964,87.641,25.714s58.567,18.655,90.026,19.619c27.774.853,60.175-5.489,78.608-21.948,17.913-15.985,51.564-17.2,75.832-7.545,16.633,6.628,29.066,18.566,34.308,31.987a39.985,39.985,0,0,1,2.282,8.334,36.476,36.476,0,0,1,.426,7.86,34.982,34.982,0,0,1-.426,3.839c-4.052,26.5-33.229,47.4-50.962,71.068-8.666,11.562-14.787,25.449-8.829,37.916,9.089,19,40.7,25.748,59.791,39.891a43.6,43.6,0,0,1,9.383,9.1C519.5,352.82,516.089,369.812,502.3,379.847Z" transform="translate(-24.78 -112.22)" fill="#fff"/><ellipse cx="115.001" cy="3.907" rx="115.001" ry="3.907" transform="translate(114.321 273.616)" fill="#6c63ff" opacity="0.1"/><g transform="translate(318.631 135.898)"><path d="M776.7,603.466s24.737-31.335,22.822-62.482a60.511,60.511,0,0,1,9.609-37.041,101.457,101.457,0,0,1,11.626-14.522" transform="translate(-774.639 -464.444)" fill="none" stroke="#535461" stroke-miterlimit="10" stroke-width="2"/><path d="M876.659,436.195c-1.749,4.359,1.062,20.156,1.062,20.156s12.961-9.464,14.71-13.819a8.5,8.5,0,1,0-15.781-6.338Z" transform="translate(-831.637 -430.858)" fill="#6c63ff"/><path d="M823.926,474.04c.9,4.606,11.848,16.339,11.848,16.339s5.736-14.987,4.837-19.593a8.5,8.5,0,1,0-16.685,3.254Z" transform="translate(-801.631 -449.814)" fill="#6c63ff"/><path d="M783.8,565.855c3.1,3.523,18.472,8.1,18.472,8.1s-2.615-15.832-5.715-19.355a8.5,8.5,0,0,0-12.757,11.23Z" transform="translate(-777.495 -500.173)" fill="#6c63ff"/><path d="M773.131,647.365c2.461,4,16.838,11.132,16.838,11.132s.1-16.049-2.363-20.046a8.5,8.5,0,1,0-14.476,8.914Z" transform="translate(-771.867 -547.594)" fill="#6c63ff"/><path d="M862.891,521.542c-4.346,1.779-20.161-.925-20.161-.925s9.383-13.025,13.716-14.8a8.5,8.5,0,1,1,6.445,15.73Z" transform="translate(-812.507 -473.479)" fill="#6c63ff"/><path d="M849.5,614.034c-4.691.4-18.962-6.914-18.962-6.914s12.842-9.622,17.516-10.023a8.5,8.5,0,1,1,1.446,16.937Z" transform="translate(-805.516 -526.179)" fill="#6c63ff"/><path d="M821.224,703.126c-4.542,1.181-19.854-3.612-19.854-3.612s11.029-11.652,15.572-12.838a8.5,8.5,0,0,1,4.265,16.45Z" transform="translate(-788.787 -577.444)" fill="#6c63ff"/><path d="M876.659,436.195c-1.749,4.359,1.062,20.156,1.062,20.156s12.961-9.464,14.71-13.819a8.5,8.5,0,1,0-15.781-6.338Z" transform="translate(-831.637 -430.858)" opacity="0.25"/><path d="M823.926,474.04c.9,4.606,11.848,16.339,11.848,16.339s5.736-14.987,4.837-19.593a8.5,8.5,0,1,0-16.685,3.254Z" transform="translate(-801.631 -449.814)" opacity="0.25"/><path d="M783.8,565.855c3.1,3.523,18.472,8.1,18.472,8.1s-2.615-15.832-5.715-19.355a8.5,8.5,0,0,0-12.757,11.23Z" transform="translate(-777.495 -500.173)" opacity="0.25"/><path d="M773.131,647.365c2.461,4,16.838,11.132,16.838,11.132s.1-16.049-2.363-20.046a8.5,8.5,0,1,0-14.476,8.914Z" transform="translate(-771.867 -547.594)" opacity="0.25"/><path d="M862.891,521.542c-4.346,1.779-20.161-.925-20.161-.925s9.383-13.025,13.716-14.8a8.5,8.5,0,1,1,6.445,15.73Z" transform="translate(-812.507 -473.479)" opacity="0.25"/><path d="M849.5,614.034c-4.691.4-18.962-6.914-18.962-6.914s12.842-9.622,17.516-10.023a8.5,8.5,0,1,1,1.446,16.937Z" transform="translate(-805.516 -526.179)" opacity="0.25"/><path d="M821.224,703.126c-4.542,1.181-19.854-3.612-19.854-3.612s11.029-11.652,15.572-12.838a8.5,8.5,0,0,1,4.265,16.45Z" transform="translate(-788.787 -577.444)" opacity="0.25"/><path d="M777.2,637.559s35.314-18.617,46.181-47.87a60.589,60.589,0,0,1,23.794-29.97,101.761,101.761,0,0,1,16.518-8.568" transform="translate(-774.926 -499.846)" fill="none" stroke="#535461" stroke-miterlimit="10" stroke-width="2"/><path d="M986.625,504.763c-3.361,3.271-7.2,18.856-7.2,18.856s15.682-3.412,19.047-6.67a8.5,8.5,0,1,0-11.853-12.186Z" transform="translate(-890.904 -471.862)" fill="#6c63ff"/><path d="M929.455,518.024c-1.045,4.576,4.21,19.738,4.21,19.738s11.315-11.375,12.369-15.951a8.5,8.5,0,1,0-16.571-3.788Z" transform="translate(-862.165 -477.058)" fill="#6c63ff"/><path d="M855.4,585.507c1.407,4.478,13.6,14.927,13.6,14.927s4.026-15.533,2.619-20.011a8.5,8.5,0,1,0-16.207,5.118Z" transform="translate(-819.517 -513.121)" fill="#6c63ff"/><path d="M812.681,655.9c.631,4.649,10.88,17,10.88,17s6.594-14.629,5.971-19.282a8.5,8.5,0,0,0-16.847,2.286Z" transform="translate(-795.231 -554.389)" fill="#6c63ff"/><path d="M942.868,581.82c-4.691-.132-18.058-9.016-18.058-9.016s13.848-8.1,18.54-7.976a8.5,8.5,0,1,1-.482,16.993Z" transform="translate(-859.58 -507.689)" fill="#6c63ff"/><path d="M896.091,661.776c-4.436-1.531-14.531-14-14.531-14s15.635-3.6,20.075-2.064a8.5,8.5,0,0,1-5.544,16.066Z" transform="translate(-834.776 -553.858)" fill="#6c63ff"/><path d="M832.553,731.357c-4.632-.759-16.693-11.345-16.693-11.345s14.808-6.189,19.44-5.429a8.5,8.5,0,1,1-2.747,16.776Z" transform="translate(-797.097 -593.538)" fill="#6c63ff"/></g><path d="M659.186,438.377H655.4L627.731,295.529l-3.548,142.848h-4.018l-4.5-142.609L588.706,438.377H584.45l18.327-146.822.6-4.773,35.95-4.022,1.117,8.794Z" transform="translate(-335.184 -162.164)" fill="#464353"/><rect width="22.882" height="14.19" transform="translate(224.755 91.961)" fill="#464353"/><path d="M863.05,305.777l13.836-5.587h3.032a1.668,1.668,0,0,1,1.668,1.668v38.965a1.668,1.668,0,0,1-1.668,1.668h-3.032l-13.836-5.762Z" transform="translate(-505.53 -220.022)" fill="#464353"/><rect width="28.29" height="27.403" transform="translate(329.23 87.529)" fill="#464353"/><rect width="18.212" height="3.31" transform="translate(280.123 36.059)" fill="#514e7f"/><rect width="51.261" height="37.425" transform="translate(259.344 40.346)" fill="#514e7f"/><rect width="51.261" height="4.436" transform="translate(259.344 73.34)" opacity="0.1"/><rect width="1.147" height="27.403" transform="translate(328.791 87.529)" opacity="0.1"/><rect width="7.805" height="14.19" transform="translate(239.832 91.961)" opacity="0.1"/><path d="M665.084,291.554H627.42l.6-4.773,35.95-4.022Z" transform="translate(-359.827 -162.164)" opacity="0.1"/><rect width="88.686" height="54.63" rx="10.7" transform="translate(240.54 74.048)" fill="#514e7f"/><path d="M834.664,201.07h.269v30.951h-.269a2.214,2.214,0,0,1-2.214-2.214V203.284A2.213,2.213,0,0,1,834.664,201.07Z" transform="translate(-477.412 -115.315)" fill="#514e7f"/><path d="M870.71,188h2.87a1.83,1.83,0,0,1,1.83,1.83v38.649a1.83,1.83,0,0,1-1.83,1.83h-2.87Z" transform="translate(-499.354 -107.819)" fill="#514e7f"/><rect width="4.082" height="14.19" transform="translate(224.755 91.961)" opacity="0.1"/><rect width="7.98" height="24.123" rx="3.99" transform="translate(220.144 87.529)" fill="#514e7f"/><circle cx="25.543" cy="25.543" r="25.543" transform="translate(233.801 14.803)" fill="#464353"/><circle cx="19.158" cy="19.158" r="19.158" transform="translate(240.186 21.187)" fill="#6c63ff"/><circle cx="18.625" cy="18.625" r="18.625" transform="translate(288.077 22.254)" fill="#464353"/><circle cx="13.968" cy="13.968" r="13.968" transform="translate(292.735 26.911)" fill="#6c63ff"/><circle cx="2.452" cy="2.452" r="2.452" transform="translate(302.804 79.724)" fill="#6c63ff"/><circle cx="2.452" cy="2.452" r="2.452" transform="translate(310.605 79.724)" fill="#6c63ff" opacity="0.5"/><path d="M469.584,208.781l-.175-.345a15.471,15.471,0,0,1,3.1,1.424c-.427-3.706-14.642-14.113-17.2-14.113s-5.4-4.419-5.4-4.419-7.391-1.139-8.53-2.346-8.816-.5-10.662-.077-4.692-1.139-4.692-1.139-1.565-2.559-3.553-2.559-4.116-2.849-4.116-2.849a8.833,8.833,0,0,0-3.561-2c-1.706-.29-3.839-2.132-4.837-3.561s-5.971-2.133-8.811-1.706-10.522-.58-10.522-.58a7.532,7.532,0,0,0,3.881-4.845c-2.8-.145-10.151-6.321-10.151-6.321s.3,2,.653,4.781l-.473-.61-.064.051a46.126,46.126,0,0,1-.064-5.971c0-.154.026-.307.034-.465a13.281,13.281,0,0,0,4.163-13.089c-.077-.324-.166-.64-.269-.951a5.916,5.916,0,0,0,1.706.426h.3a2.5,2.5,0,0,0,1.872-.827h0a2,2,0,0,0,.209-.324.546.546,0,0,0,.038-.068,2.33,2.33,0,0,0,.128-.324,1.216,1.216,0,0,0,.03-.119,2.621,2.621,0,0,0,.051-.264V145.2a5.062,5.062,0,0,0-.426-1.9,8.442,8.442,0,0,1-1.045-3.378,2.093,2.093,0,0,1,.034-.286,15.327,15.327,0,0,1,.9-2.7V136.9c.043-.132.077-.264.107-.4a.971.971,0,0,0,.034-.119,3.606,3.606,0,0,0,.064-.473v-.034c.111-1.783-1.326-3.339-2.956-4.06-1.459-.648-3.126-.823-4.461-1.706-1.523-1-2.359-2.738-3.484-4.175-1.638-2.09-4.2-3.651-6.824-3.352-1.616.183-3.084,1.032-4.691,1.361-2.444.508-5.028-.23-7.46.337a2.559,2.559,0,0,0-1.518.853,1.736,1.736,0,0,0-.307.772h0a2.946,2.946,0,0,0,0,.776v.021a5.458,5.458,0,0,0,.132.729l.038.149a.629.629,0,0,0,.034.149c.013.051.055.2.081.3.047.166.085.333.128.5v.06c.038.175.077.35.107.529h0a8.978,8.978,0,0,1,.136,1.117h0a5.148,5.148,0,0,1-.653,3.037c-1.066,1.706-3.331,2.461-4.316,4.239a3.677,3.677,0,0,0-.426,1.386h0a3.718,3.718,0,0,0-.021.486v.064a1.622,1.622,0,0,0,.038.427.868.868,0,0,0,0,.1,3.68,3.68,0,0,0,.085.375.383.383,0,0,0,.034.119,3.345,3.345,0,0,0,.171.427h0c.456.951,1.318,1.736,1.5,2.768h0a.159.159,0,0,0,.021.094,6.94,6.94,0,0,1-.388,2.3,2.742,2.742,0,0,0-.051.281h0v.567a1.054,1.054,0,0,0,0,.119v.277a.679.679,0,0,0,.043.158l.03.107a1.587,1.587,0,0,0,.068.149l.047.094a1.56,1.56,0,0,0,.1.149.712.712,0,0,0,.051.068,1.16,1.16,0,0,0,.2.183c.589.427,1.506.316,1.987.853a1.011,1.011,0,0,1,.137.213l.026.051a1.176,1.176,0,0,1,.081.235h0a2.338,2.338,0,0,1,0,.972c-.171.853-.533,1.629-.725,2.465-.038.171-.064.345-.085.52h0a.86.86,0,0,1-.021.235v.333a1.387,1.387,0,0,0,.026.324c.026.107,0,.1.026.149l.026.124a.609.609,0,0,0,.047.166l.038.107c.021.06.051.119.077.179a.739.739,0,0,0,.043.081,1.5,1.5,0,0,0,.154.247,2.681,2.681,0,0,0,2.26.938,7.123,7.123,0,0,0,1.51-.171c.111.26.226.52.35.772a13.252,13.252,0,0,0,2.4,3.378,3.21,3.21,0,0,1-.043.4c-.1.972-.218,2.017-.354,3.071-1.1-.508-1.958-.7-2.295-.337-1.429,1.57,0,6.986,0,6.986s-6.973,0-8.679,1.565-4.832,0-4.832,0-6.4.717-5.971,2-3.412,0-3.412,0-2.7.286-2.559,2.132-4.124,2.7-3.557,3.988-2.559,2.132-2.559,2.132-3.126-.141-1.987,1.706h0s-1.706,3.992-3.126,4.265-3.271,3.561-3.271,3.561-5.476,1-5.229,2.708-8.419,13.947-8.419,13.947-2.845,5.864-.853,10.142a84.21,84.21,0,0,1,3.839,8.692c.426,1.565,5.6,8.457,5.553,9.741a30.488,30.488,0,0,0,3.024,5.3l-.512.529-1.122,1.156s-3.557,8.837.708,9.264c3.6.358,6.193.618,7.506.26a1.8,1.8,0,0,0,.6-.26l.051-.038c1.552,2.29,2.653,3.89,2.653,3.89s.154-.226.426-.614l.426.61s.341-.486.921-1.28c-.188,3.877-.213,7.7-.213,7.7s1.851-.286,1,8.266S339,287.393,339,287.393v12.688h0a8.509,8.509,0,0,0,.06.853c.158,1.821.678,6.116,2.214,8.956,1.992,3.7,0,13.4,0,13.4s-.132,7.907.345,17.768c0,.269.03.546.043.819-8.624,7.208-17.875,16.761-17.875,16.761a4.693,4.693,0,0,1,1.279.576l-.516.661-2.35,2.9h0l-1.817,2.243h0l2.879,8.867,3.143-1.228s1.706,2.956,1.348,4.96a2.132,2.132,0,0,1-.427.994,1.255,1.255,0,0,0-.222.49c-.823,3.212,2.61,17.06,8.057,17.661a1.908,1.908,0,0,0,2.44-1.053c.286-.8.281-2.133-.358-4.295,0,0-2.879-3.472-1.015-7.212,1.092-2.188,2.9-5.118,4.2-7.187l.537-.853c1.173,1.48,1.894,2.431,1.894,2.431l4.188-4.5c.09.192.179.38.273.559a13.38,13.38,0,0,0,1.083,1.8l2.84,11.264,1.147-.256c-.026.273-.043.563-.06.853a14.1,14.1,0,0,0,.934,6.517,3.883,3.883,0,0,0,3.809,2.384c6.611-.162,8.53-3.74,8.53-3.74v-8.957l2.273-.508s-.166-19.679-.751-30.653c0-.243-.026-.478-.038-.708v-.1l14.6-15.7,1.122-.448c9.383-3.706,9.528-13.256,9.528-13.256a45.655,45.655,0,0,1,1.134-9.69c1.135-4.419.145-27.368-1.987-33.066a58.115,58.115,0,0,1-2.845-12.121s2.133-2.986,0-5.472a10.925,10.925,0,0,1-1.493-2.44l2.777-.456,1.6-.264.853-.145c-.426,3.77-.5,6.666.512,7.357,3.131,2.133,13.648-4.99,13.648-4.99-3.839,0-5.971-28.648-5.19-29.36s1.945-15.068.925-17.627,3.578-13.985,3.578-13.985l.708-1.049h0s16.779,7.323,18.625,8.726,7.677-3.412,8.671-1.548,7.25,4.64,7.25,4.64,9.242-.934,10.236,1.348,6.969,7.626,6.969,7.626a32.541,32.541,0,0,1,.226-3.749c.124.294.243.593.371.9,2.832,6.7,7.545,15.183,11.912,10.62C475.768,223.2,472,213.613,469.584,208.781ZM343.131,239.062v.081l-.034-.034Zm-3.31-32.875-1.808,19.069-3.553,3.681-.426.452-3.672-4s-1.851-.853,0-2.423-3.126-5.118-3.126-5.118-.145-2.559,1.706-3.276,4.265-5.417,4.265-5.417l6.683-3.412h0Zm23.782,97.6a2.261,2.261,0,0,1,.427-.311c.8-.452,1.309.043,1.574.913a7.353,7.353,0,0,1-.3,4.384c-.994,2.282,1.425,11.4,1.425,11.4s-3.131,1.42-3.7,4.133a2.818,2.818,0,0,1-.426.93c-.038-.239-.073-.469-.107-.691-.277-1.706-.427-2.806-.427-2.806a18.16,18.16,0,0,1-.286-6.7c.452-2.742,1.365-8.312,1.706-10.424.085-.512.132-.819.137-.853Z" transform="translate(-187.392 -118.142)" fill="url(#a)"/><path d="M483.749,221.094l.921-.614,2.6,5.481-1,1.173h-3.02s.107-2.986.179-3.092S483.749,221.094,483.749,221.094Z" transform="translate(-287.715 -174.308)" fill="#464353"/><path d="M424.726,731.27V743s-1.919,3.57-8.53,3.732a3.881,3.881,0,0,1-3.809-2.376,14.22,14.22,0,0,1-.934-6.5,25.6,25.6,0,0,1,.32-3.011Z" transform="translate(-246.523 -467.246)" fill="#3f3d56"/><path d="M424.763,731.27v3.63l-13.273,2.951a25.59,25.59,0,0,1,.32-3.011Z" transform="translate(-246.56 -467.246)" opacity="0.1"/><path d="M409.137,618.465l-16.633,3.7-2.841-11.234a13.6,13.6,0,0,1-1.083-1.8c-.183-.358-.363-.738-.533-1.135-3.1-7.084-4.474-19.862-5.062-30.734-.03-.55-.06-1.1-.085-1.633-.478-9.835-.345-17.725-.345-17.725s1.992-9.669,0-13.362c-1.535-2.849-2.056-7.131-2.214-8.956-.043-.542-.06-.853-.06-.853l.307-.806,1.254-3.318h13.793l8.018,6.786,1.22,1.032-.137.853c-.345,2.107-1.258,7.677-1.706,10.4a18.069,18.069,0,0,0,.286,6.679s.166,1.083.427,2.8c.064.427.136.879.217,1.369,1.019,6.3,2.93,17.815,3.745,20.566a31.218,31.218,0,0,1,.576,5.212c.034.512.064,1.045.094,1.6C408.971,598.837,409.137,618.465,409.137,618.465Z" transform="translate(-228.661 -352.168)" fill="#514e7f"/><path d="M426.019,758.49v.119s-1.919,3.57-8.53,3.732a3.881,3.881,0,0,1-3.809-2.376A16.52,16.52,0,0,0,426.019,758.49Z" transform="translate(-247.816 -482.857)" opacity="0.1"/><path d="M669.781,342.348c-4.384,4.551-9.076-3.911-11.912-10.594-1.591-3.762-2.589-6.965-2.589-6.965l11.669-4.939s.716,1.139,1.616,2.943C670.984,327.612,674.75,337.174,669.781,342.348Z" transform="translate(-386.374 -231.297)" fill="#a1616a"/><path d="M458.762,201.858a53.243,53.243,0,0,0,.943,12.6s-23.739,2.559-21.606-1.134c1.25-2.167,2.06-7.886,2.512-12.258.328-3.1.473-5.515.473-5.515s22.745-9.1,19.333-1.42A22.566,22.566,0,0,0,458.762,201.858Z" transform="translate(-261.742 -157.43)" fill="#a1616a"/><path d="M462.36,241.834l-3.19,38.1,14.642-2.414-2.559-31.42.853-8.389Z" transform="translate(-263.336 -136.328)" fill="#464353"/><path d="M473.806,277.659l-6.359,1.049-8.287,1.365.584-6.952,2.61-31.147,3.322-1.407,2.354-.994,4.069-1.723-.853,8.389Z" transform="translate(-263.33 -136.408)" opacity="0.1"/><path d="M352.442,701.73c-1.864,3.732,1.015,7.2,1.015,7.2.64,2.162.644,3.484.358,4.265-.593,1.659-2.44,1.049-2.44,1.049-5.809-.64-9.328-16.309-7.835-18.1s-.908-5.92-.908-5.92l-3.143,1.224-2.879-8.846,1.817-2.239,2.35-2.892,1.591-1.962,15.887,16.578s-.678,1.019-1.612,2.482C355.338,696.612,353.534,699.555,352.442,701.73Z" transform="translate(-203.617 -435.262)" fill="#3f3d56"/><path d="M412.022,628.091l-19.807,21.244c-3.472-6.781-4.964-20.387-5.6-31.872a54.342,54.342,0,0,1,9.946-6.99s9.119-6.6,11.042-9.763c1.019,6.3,2.93,17.815,3.745,20.566A43.96,43.96,0,0,1,412.022,628.091Z" transform="translate(-232.297 -392.37)" opacity="0.1"/><path d="M379.285,425.166,356.22,421.7l1.254-3.318h13.793Z" transform="translate(-204.294 -239.942)" opacity="0.1"/><path d="M411.831,624.652l-20.246,21.713c-3.113-7.084-4.491-19.862-5.08-30.734-.03-.55-.06-1.1-.085-1.634a55.264,55.264,0,0,1,10.031-7.063s8.509-6.154,10.825-9.426c.064.426.136.879.217,1.369,1.019,6.3,2.93,17.815,3.745,20.566A34.051,34.051,0,0,1,411.831,624.652Z" transform="translate(-232.183 -390.535)" opacity="0.1"/><path d="M363.858,692.1s-.678,1.019-1.612,2.482c-3.391-4.286-11.43-14.156-15.866-17.1l1.591-1.962Z" transform="translate(-209.22 -435.274)" opacity="0.1"/><path d="M414.287,474.668a45.465,45.465,0,0,0-1.134,9.669s-.145,9.524-9.528,13.221l-1.122.427-38.811,41.639s-14.36-18.766-19.052-19.9c0,0,18.907-19.478,27.863-23.743,0,0,10.808-7.818,11.375-10.517s3.7-4.124,3.7-4.124-2.418-9.1-1.424-11.375a7.31,7.31,0,0,0,.3-4.372c-.264-.853-.776-1.361-1.574-.913a2.26,2.26,0,0,0-.426.311l-24.592-3.7V448.652s-5.971-6.965-5.118-15.495-1-8.244-1-8.244.09-14.407,1.305-15.61,12.893-6.713,12.893-6.713l36.611,6.5,1.51,7s1.279,5.57,3.412,8.044,0,5.455,0,5.455a57.989,57.989,0,0,0,2.845,12.091C414.454,447.381,415.426,470.263,414.287,474.668Z" transform="translate(-208.222 -278.748)" fill="#514e7f"/><path d="M463.977,194.13a22.655,22.655,0,0,0-1.655,7.728,13.221,13.221,0,0,1-18.152-.793c.328-3.1.473-5.515.473-5.515S467.389,186.453,463.977,194.13Z" transform="translate(-265.302 -157.43)" opacity="0.1"/><path d="M461.872,174.208a13.222,13.222,0,1,1-.367-3.1A13.222,13.222,0,0,1,461.872,174.208Z" transform="translate(-260.288 -140.183)" fill="#a1616a"/><path d="M423.945,239.231s-9.5-4.406-10.1-4.977S393.544,284.3,393.544,284.3L388,309.462s29.569,12.65,35.967,10.944,6.965,0,6.965,0,6.542-36.679,8.675-39.946-1.992-36.538-1.992-36.538l-7.391-9.673Z" transform="translate(-233.089 -182.205)" opacity="0.1"/><path d="M423.945,235.231s-9.5-4.406-10.1-4.977S393.544,280.3,393.544,280.3L388,305.462s29.569,12.65,35.967,10.944,6.965,0,6.965,0,6.542-36.679,8.675-39.946-1.992-36.538-1.992-36.538l-7.391-9.673Z" transform="translate(-233.089 -179.911)" opacity="0.1"/><path d="M439.564,278.466a28.223,28.223,0,0,0-1.791,5.7c-.5,2.03-1.049,4.448-1.608,7.05-2.516,11.742-5.272,27.2-5.272,27.2s-.175-.52-1.407-.7a14.625,14.625,0,0,0-5.544.7c-6.4,1.706-35.971-10.948-35.971-10.948l.853-3.839,4.691-21.325s19.764-50.613,20.331-50.041c.345.345,4.039,2.132,6.854,3.459,1.8.853,3.241,1.514,3.241,1.514l5.971-4.717.328-.26,7.357,9.669S441.7,275.2,439.564,278.466Z" transform="translate(-233.072 -181.063)" fill="#6c63ff"/><path d="M418.083,242.2c.853,3.28-1.134,8.671-1.134,8.671s-6.824,16.779-8.816,24.532-13.384,23.381-13.384,23.381-1.672,1.676-4.013,4.009c-.26.26-.533.529-.806.81l4.692-21.325s19.764-50.613,20.331-50.041c.345.345,4.039,2.132,6.854,3.459C420.045,237.3,417.516,240.026,418.083,242.2Z" transform="translate(-234.196 -181.046)" opacity="0.1"/><path d="M384.03,235.459c.853,3.28-1.134,8.671-1.134,8.671s-6.824,16.779-8.816,24.532S360.7,292.043,360.7,292.043s-1.672,1.676-4.013,4.009c-.277.277-.567.563-.853.853-4.572,4.551-11,10.931-13.008,12.8-.294.277-.495.456-.58.516a1.8,1.8,0,0,1-.6.26c-1.314.358-3.9.1-7.506-.26-4.265-.427-.708-9.238-.708-9.238l1.122-1.156,1.024-1.058,11.618-11.955.853-.9,3.553-3.664,1.808-19.022.043-.456s-.529-1.207-1.343-3.049c-2.171-4.986-6.436-14.608-8-17.717-.179-.363-.32-.631-.427-.8,0-.021-.021-.043-.034-.06-1.139-1.847,1.987-1.706,1.987-1.706s3.13-.853,2.559-2.133,3.7-2.132,3.557-3.979,2.559-2.132,2.559-2.132,3.839,1.279,3.412,0,5.971-1.992,5.971-1.992,3.126,1.565,4.832,0,8.7-1.561,8.7-1.561-1.429-5.4,0-6.969,12.142,6.969,12.142,6.969S383.177,232.183,384.03,235.459Z" transform="translate(-200.996 -174.309)" fill="#464353"/><path d="M370.61,415.174s11.8,16.633,20.046,11.234-11.089-19.478-11.089-19.478Z" transform="translate(-223.115 -281.237)" opacity="0.1"/><path d="M370.61,413.174s11.8,16.633,20.046,11.234-11.089-19.478-11.089-19.478Z" transform="translate(-223.115 -280.09)" fill="#a1616a"/><path d="M493.557,323.3c.9-7.852,3.51-19.649,1.382-23.227-1.053-1.774-1.834-5.156-2.405-8.858-.307-1.992-.55-4.077-.746-6.056-.52-5.25-.687-9.746-.687-9.746s-5.118-22.826-4.124-27.518c.623-2.934-.094-10.287-.717-15.38l.328-.26,7.357,9.669s4.12,33.267,1.987,36.538a28.222,28.222,0,0,0-1.791,5.7l4.069-1.706-.853,8.389,2.559,31.42Z" transform="translate(-289.441 -181.064)" opacity="0.1"/><path d="M486.58,220.48s7.353,6.163,10.151,6.3a7.525,7.525,0,0,1-3.881,4.837s7.677,1.015,10.522.576,7.818.277,8.811,1.706,3.152,3.263,4.858,3.544a8.74,8.74,0,0,1,3.561,1.992l-12.518,18.48s-4.551,11.375-3.557,13.934-.145,16.919-.926,17.627,1.352,29.288,5.191,29.288c0,0-10.518,7.11-13.648,4.977s3.984-25.163.853-30.426-3.839-24.66-3.839-24.66-5.118-22.822-4.12-27.514S486.58,220.48,486.58,220.48Z" transform="translate(-289.624 -174.308)" fill="#464353"/><path d="M668.565,322.787c-3.8-1.186-9.622-1.22-10.7,8.956-1.591-3.762-2.589-6.965-2.589-6.965l11.669-4.939S667.665,320.983,668.565,322.787Z" transform="translate(-386.374 -231.291)" opacity="0.1"/><path d="M536.517,262.93l6.973.853s2.133,2.845,4.116,2.845,3.553,2.559,3.553,2.559,2.845,1.561,4.692,1.134,9.524-1.13,10.662.077,8.53,2.341,8.53,2.341,2.845,4.406,5.4,4.406,16.774,10.381,17.2,14.074c0,0-14.075-8.956-14.215,10.735,0,0-5.971-5.331-6.969-7.6S566.227,293,566.227,293s-6.253-2.776-7.25-4.623-6.824,2.943-8.671,1.54-18.625-8.7-18.625-8.7l-5.19-9.754Z" transform="translate(-312.513 -198.653)" fill="#464353"/><circle cx="1.207" cy="1.207" r="1.207" transform="translate(190.643 79.136)" fill="#3f3d56"/><circle cx="1.207" cy="1.207" r="1.207" transform="translate(189.436 104.338)" fill="#3f3d56"/><circle cx="1.207" cy="1.207" r="1.207" transform="translate(190.643 91.074)" fill="#3f3d56"/><circle cx="1.207" cy="1.207" r="1.207" transform="translate(187.159 117.602)" fill="#3f3d56"/><path d="M353.836,719.737c-.593,1.659-2.44,1.049-2.44,1.049-5.809-.64-9.328-16.309-7.835-18.1s-.93-5.941-.93-5.941l-3.143,1.224-2.879-8.846,1.817-2.239c1.808,3.135,4.4,7.643,5.007,8.794a16.092,16.092,0,0,1,1.6,7.677C344.935,706.124,348.151,719.379,353.836,719.737Z" transform="translate(-203.617 -441.789)" opacity="0.1"/><path d="M461.526,171.111c-.29-.1-.58-.213-.853-.328a5.545,5.545,0,0,1-2.6-1.706c-.542-.793-.717-1.911-1.561-2.363-.972-.52-2.133.183-3.186.426a6.683,6.683,0,0,1-3.779-.5c-1.817-.67-4.355-1.9-6.218-.627-1.45.989-.887,3.088-1.258,4.585-.576,2.324-3.045,3.839-3.51,6.189-.209,1.036-.073,2.3-.913,2.947a2.175,2.175,0,0,1-.819.358,13.221,13.221,0,1,1,24.707-8.957Z" transform="translate(-260.31 -140.204)" opacity="0.1"/><path d="M440.689,145.1a6.626,6.626,0,0,0,3.779.5c1.07-.252,2.209-.955,3.182-.426.853.456,1.024,1.57,1.561,2.363a5.383,5.383,0,0,0,2.6,1.706,7.391,7.391,0,0,0,2.316.648,2.623,2.623,0,0,0,2.175-.823c.759-.917.529-2.29.077-3.386a8.357,8.357,0,0,1-1.045-3.374c.055-1.407,1.075-2.632,1.16-4.035.111-1.779-1.326-3.331-2.956-4.052-1.459-.644-3.126-.823-4.461-1.706-1.523-1-2.359-2.73-3.484-4.163-1.638-2.086-4.2-3.642-6.824-3.344-1.616.183-3.084,1.028-4.691,1.356-2.444.508-5.028-.23-7.46.337a2.559,2.559,0,0,0-1.518.832c-.6.8-.29,1.924-.026,2.887.473,1.736.674,3.7-.269,5.229-1.066,1.727-3.331,2.457-4.316,4.231a3.753,3.753,0,0,0-.1,3.412c.469.981,1.378,1.779,1.518,2.858a6.872,6.872,0,0,1-.388,2.29,2.043,2.043,0,0,0,.508,2.133c.627.426,1.506.32,1.988.853a1.706,1.706,0,0,1,.226,1.467c-.171.853-.533,1.625-.725,2.461a3.015,3.015,0,0,0,.328,2.461c.827,1.117,2.5,1.049,3.839.751a2.675,2.675,0,0,0,1.079-.427c.853-.644.7-1.911.913-2.947.465-2.346,2.934-3.868,3.51-6.189.371-1.5-.192-3.6,1.258-4.589C436.33,143.2,438.872,144.433,440.689,145.1Z" transform="translate(-251.457 -119.535)" fill="#464353"/><path d="M463.61,533.93s13.388,8.53,13.814,11.8Z" transform="translate(-276.451 -354.072)" opacity="0.1"/><path d="M462,549.93s15.354,7.391,14.5,9.95Z" transform="translate(-275.528 -363.248)" opacity="0.1"/><path d="M459.61,565.26s8.675,4.551,9.242,7.25Z" transform="translate(-274.157 -372.04)" opacity="0.1"/><path d="M468.28,589.26s5.685,4.977,6.824,3.7S468.28,589.26,468.28,589.26Z" transform="translate(-279.129 -385.804)" opacity="0.1"/><path d="M449.61,596.6s4.431,7.105,2.3,7.532S449.61,596.6,449.61,596.6Z" transform="translate(-268.422 -390.013)" opacity="0.1"/><path d="M396.348,300.6s-7.536,4.546-5.263,5.685S396.348,300.6,396.348,300.6Z" transform="translate(-234.613 -220.257)" opacity="0.1"/><path d="M397.192,261.26s-7.677,14.074-4.124,13.081S397.192,261.26,397.192,261.26Z" transform="translate(-235.457 -197.696)" opacity="0.1"/><path d="M589.979,294.26s-4.692,5.519-3.839,8.53Z" transform="translate(-346.663 -216.621)" opacity="0.1"/><path d="M615.78,300.6s-7.042,6.252-6.009,6.965Z" transform="translate(-360.215 -220.257)" opacity="0.1"/><path d="M633.984,318.61s-.712,4.111.427,4.265Z" transform="translate(-374.035 -230.586)" opacity="0.1"/><path d="M443.033,511.39c-1.813,2.346-1.813,6.5-2.632,8.21-.448.938-1.446,2.559-2.256,3.873-.264-.853-.776-1.361-1.574-.913-.525-3.911-1.45-10.662-1.749-12.023-.427-1.919,4.265-7.037,4.265-7.037s4.585.96,5.758,3.305S444.846,509.049,443.033,511.39Z" transform="translate(-259.926 -336.62)" opacity="0.05"/><path d="M365.158,387.683c-5.118.708-14.642,14.356-14.642,14.356s-1.25-1.817-2.986-4.355c-2.184-3.22-5.118-7.609-7.25-10.935l12.5-12.889,2.273,2.448s4.41,4.406,4.41,5.259a8.017,8.017,0,0,0,1.936,2.448C363.055,385.734,365.158,387.683,365.158,387.683Z" transform="translate(-205.721 -262.272)" opacity="0.1"/><path d="M359.766,269.868c-.179-.363-.32-.631-.426-.8l5.51.367,2.922,18.135C365.592,282.6,361.327,272.977,359.766,269.868Z" transform="translate(-216.652 -202.175)" opacity="0.1"/><path d="M359.188,386.108c-4.572,4.551-11,10.931-13.008,12.795-.294.277-.495.456-.58.516a1.8,1.8,0,0,1-.6.26c-2.009-2.951-4.875-7.2-7.093-10.662l1.024-1.058L350.56,376,352,377.548s4.41,4.406,4.41,5.259C356.407,383.216,357.785,384.7,359.188,386.108Z" transform="translate(-204.362 -263.499)" opacity="0.1"/><path d="M336.613,269.357l-6.4-.427s-1.706,3.979-3.126,4.265-3.271,3.553-3.271,3.553-5.476,1-5.237,2.7-8.419,13.908-8.419,13.908-2.845,5.852-.853,10.117a83.716,83.716,0,0,1,3.839,8.671c.427,1.561,5.476,8.389,5.434,9.669s12.906,20.045,12.906,20.045,9.524-13.648,14.642-14.36c0,0-5.685-5.259-5.685-6.112s-4.376-5.259-4.376-5.259l-5.544-5.971s-1.851-.853,0-2.418-3.126-5.118-3.126-5.118-.145-2.559,1.706-3.271,4.265-5.4,4.265-5.4l6.683-3.412Z" transform="translate(-187.553 -202.094)" fill="#464353"/><path d="M317,335.052s7.677-1.561,7.818-.567S317,335.052,317,335.052Z" transform="translate(-192.37 -239.5)" opacity="0.1"/><path d="M332,354.43s6.508.853,6.223,2.243S332,354.43,332,354.43Z" transform="translate(-200.973 -251.129)" opacity="0.1"/><path d="M344.61,297.76s6.257,8.858,7.11,7.024Z" transform="translate(-208.205 -218.628)" opacity="0.1"/><g transform="translate(168.576 8.789)" opacity="0.1"><path d="M431.845,137.168a9.561,9.561,0,0,0-.384-3.058,9.482,9.482,0,0,1-.281-1.279,5.242,5.242,0,0,0,.281,2.132,11,11,0,0,1,.384,2.205Z" transform="translate(-426.42 -132.83)"/><path d="M502.842,159.076c.166-1.279,1.045-2.444,1.126-3.753a3.318,3.318,0,0,0-.026-.653c-.166,1.322-1.083,2.5-1.135,3.839A3.184,3.184,0,0,0,502.842,159.076Z" transform="translate(-467.507 -145.355)"/><path d="M460.839,172.576a2.623,2.623,0,0,1-2.175.823,7.391,7.391,0,0,1-2.316-.648,5.538,5.538,0,0,1-2.6-1.706c-.542-.793-.716-1.906-1.561-2.363-.972-.52-2.133.183-3.186.426a6.625,6.625,0,0,1-3.775-.5c-1.817-.67-4.359-1.9-6.223-.631-1.45.989-.887,3.092-1.258,4.589-.576,2.32-3.045,3.839-3.51,6.189-.209,1.036-.072,2.3-.913,2.947a2.67,2.67,0,0,1-1.083.426c-1.356.3-3.028.367-3.839-.751a2.281,2.281,0,0,1-.427-1.088,2.7,2.7,0,0,0,.427,1.941c.827,1.117,2.5,1.049,3.839.751a2.67,2.67,0,0,0,1.083-.426c.853-.644.7-1.911.913-2.947.465-2.346,2.934-3.868,3.51-6.189.371-1.5-.192-3.6,1.258-4.589,1.864-1.28,4.406-.038,6.223.631a6.616,6.616,0,0,0,3.775.5c1.075-.252,2.214-.955,3.186-.426.853.456,1.019,1.57,1.561,2.363a5.383,5.383,0,0,0,2.6,1.706,7.391,7.391,0,0,0,2.316.648,2.623,2.623,0,0,0,2.175-.823,2.52,2.52,0,0,0,.461-1.958A2.132,2.132,0,0,1,460.839,172.576Z" transform="translate(-424.57 -152.671)"/><path d="M421.917,167.25c-.141-1.079-1.049-1.877-1.518-2.858a3.625,3.625,0,0,1-.333-1.173,3.714,3.714,0,0,0,.333,2.026c.456.951,1.318,1.736,1.5,2.764a2.662,2.662,0,0,0,.021-.759Z" transform="translate(-420.04 -150.259)"/><path d="M426.207,183.96a1.621,1.621,0,0,0-.243-1.352c-.482-.55-1.4-.427-1.988-.853a1.493,1.493,0,0,1-.559-1.015,1.92,1.92,0,0,0,.559,1.868c.559.405,1.506.32,1.988.853A1.165,1.165,0,0,1,426.207,183.96Z" transform="translate(-421.959 -160.306)"/></g><path d="M171.464,706.179s-17.64-1.066-15.563,11.3a2.993,2.993,0,0,0,1.57,3.177s.03-.917,1.808-.606a8.1,8.1,0,0,0,1.915.09,4.009,4.009,0,0,0,2.346-.964h0s4.96-2.051,6.888-10.155c0,0,1.425-1.77,1.369-2.222l-2.986,1.28a5.314,5.314,0,0,1,.218,3.932s-.1-3.839-.67-3.766c-.115.021-1.548.746-1.548.746s1.753,3.74.427,6.461c0,0,.5-4.61-.977-6.193l-2.094,1.224s2.047,3.864.657,7.02c0,0,.358-4.837-1.1-6.722l-1.9,1.48s1.924,3.809.751,6.427c0,0-.154-5.634-1.16-6.056A11.507,11.507,0,0,0,159.5,714.7s1.314,2.768.5,4.227c0,0-.5-3.753-.913-3.77a12.454,12.454,0,0,0-1.825,4.188,9.065,9.065,0,0,1,1.425-4.427,5,5,0,0,0-2.533,1.314s.256-1.757,2.943-1.911a11.541,11.541,0,0,1,1.736-2,10.909,10.909,0,0,0-4.291.495s1.425-1.655,4.777-.9l1.877-1.531s-3.514-.478-5.007.051c0,0,1.706-1.467,5.515-.4l2.039-1.22a18.745,18.745,0,0,0-4.785-.426s1.885-1.015,5.382.085l1.463-.657s-2.2-.426-2.84-.5-.678-.247-.678-.247a7.639,7.639,0,0,1,4.124.461A18.841,18.841,0,0,0,171.464,706.179Z" transform="translate(-99.883 -452.844)" fill="#6c63ff"/><ellipse cx="12.488" cy="2.111" rx="12.488" ry="2.111" transform="translate(46.943 266.779)" fill="#6c63ff" opacity="0.1"/></g></svg>