<svg xmlns="http://www.w3.org/2000/svg" width="335.579" height="317.967" viewBox="0 0 335.579 317.967"><g transform="translate(551.897 -2308.988)"><g transform="translate(-371.821 2626.954) rotate(-135)" fill="none"><path d="M0,.348,229.759,0V219.914H52.209A51.91,51.91,0,0,1,.457,171.771c-.086-1.173-.133-2.452-.133-3.742Z" stroke="none"/><path d="M 228.7586517333984 1.00152587890625 L 1.001953125 1.346603393554688 L 1.324630737304688 168.0294799804688 C 1.324630737304688 169.264892578125 1.369659423828125 170.5335388183594 1.454833984375 171.6983337402344 C 2.391738891601563 184.5243530273438 8.087417602539063 196.4296264648438 17.49263000488281 205.2210083007813 C 26.93919372558594 214.0510406494141 39.26838684082031 218.9139556884766 52.20909118652344 218.9139556884766 L 228.7586517333984 218.9139556884766 L 228.7586517333984 1.00152587890625 M 229.7586517333984 0 L 229.7586517333984 219.9139556884766 L 52.20909118652344 219.9139556884766 C 24.84382629394531 219.9139556884766 2.426681518554688 198.7284851074219 0.4574737548828125 171.7711791992188 C 0.3716888427734375 170.5979461669922 0.3246307373046875 169.3192138671875 0.3246307373046875 168.0294799804688 L 1.52587890625e-05 0.3481292724609375 L 229.7586517333984 0 Z" stroke="none" fill="#4c2c68"/></g><path d="M0,.348,229.759,0V219.914H52.209A51.91,51.91,0,0,1,.457,171.771c-.086-1.173-.133-2.452-.133-3.742Z" transform="translate(-389.433 2626.954) rotate(-135)" fill="#261634"/></g></svg>