<svg xmlns="http://www.w3.org/2000/svg" width="364.342" height="413.826" viewBox="0 0 364.342 413.826"><g transform="translate(-696.843 -147.5)"><g transform="translate(546.999 126.089)"><path d="M357.685,497.022s1.166,23.324-48.592,52.09c0,0-.059.127,364.242,0,0,0-41.594-29.544-44.315-62.586" transform="translate(-159.25 -234.676)" opacity="0.2"/><ellipse cx="80.322" cy="6.179" rx="80.322" ry="6.179" transform="translate(263.86 273.88)" opacity="0.2"/><ellipse cx="80.322" cy="6.179" rx="80.322" ry="6.179" transform="translate(220.86 396.88)" opacity="0.2"/><ellipse cx="27.322" cy="6.179" rx="27.322" ry="6.179" transform="translate(220.86 422.88)" opacity="0.2"/><path d="M541.291,448.392l10.646-2.964s4.17-.833,1.622-8.977-7.6-5.865-7.6-5.865l-9.444,2.744-3.729,1.151,5.246,7.36.44,4.906Z" transform="translate(-241.916 -213.895)" fill="#3f3d56"/><path d="M352.438,292.193l-3.34,13.343,17.115,16.587,1.471.369,3.925-1.1,3.341-13.342-3.384-3.558,3.459-.906-7.381-7.165-3.851.808-3.089-3.067,2.085-.833.2-.785-2.526-1.988Z" transform="translate(-73.636 -79.215)" fill="#3f3d56"/><path d="M372.556,317.281l-2.211,8.829-10.2-9.643,2.555-8.952Z" transform="translate(-77.718 -85.484)" fill="#6c63ff"/><path d="M354.121,292.193l-.468,1.871,17.019,16.556,1.471.368,3.8-1.029.209,0,.478-1.908-3.384-3.558,3.459-.906-7.381-7.165-3.851.808-3.089-3.067,2.085-.833.2-.785-2.526-1.988Z" transform="translate(-75.319 -79.215)" fill="none" stroke="#3f3d56" stroke-miterlimit="10" stroke-width="1"/><ellipse cx="0.961" cy="1.416" rx="0.961" ry="1.416" transform="translate(285.058 213.397) rotate(-75.943)" fill="#6c63ff"/><ellipse cx="0.961" cy="1.416" rx="0.961" ry="1.416" transform="translate(295.87 227.676) rotate(-75.943)" fill="#6c63ff"/><path d="M551.237,471.43l-2.322-7.894s6.036-14.395-.929-15.788-7.43,13.466-7.43,13.466l2.786,8.823Z" transform="translate(-244.789 -220.312)" fill="#ffb6b6"/><circle cx="18.445" cy="18.445" r="18.445" transform="translate(244.897 198.879)" fill="#ffb6b6"/><path d="M483.642,450.507s1.085,13.563,3.8,14.648-29.3,8.68-29.3,8.68l8.138-9.223s1.628-14.105-2.17-17.36Z" transform="translate(-214.333 -220.162)" fill="#ffb6b6"/><path d="M539.82,478.193l7.43-.929s8.823,4.643,8.823,10.68,5.108,15.788,5.108,15.788,3.715,13-4.643,13.93-15.788-13.93-15.788-13.93Z" transform="translate(-244.517 -231.253)" fill="#6c63ff"/><path d="M509.37,587.385s16.252-15.323,20.9-14.395,13.93,2.322,13.93,9.287-15.323,23.217-15.323,23.217-11.609,25.539-22.753,26.468a192.306,192.306,0,0,0-21.824,3.25s5.108,18.574,2.322,23.682-13.466,11.144-14.395,10.68-13.93-12.537-19.5-29.718-9.287-30.183-4.179-31.111S509.37,587.385,509.37,587.385Z" transform="translate(-209.887 -266.615)" fill="#2f2e41"/><path d="M585.422,585.533s3.25-.464,2.786,7.43-1.857,36.219-4.179,41.791-2.786,12.073-1.857,14.395,2.786,6.036-.464,6.5-16.716-1.393-18.11-1.858-2.786-8.358-1.857-8.358,3.25-.464,2.322-3.715-1.393-3.25,0-4.179,5.108-2.322,4.179-3.25-1.857-22.753-1.857-22.753Z" transform="translate(-252.506 -271.263)" fill="#2f2e41"/><path d="M582.008,693.183s7.894-2.322,8.823,2.786c0,0,1.393,7.894-4.643,10.68a74.6,74.6,0,0,0-11.144,6.5s-9.751,3.715-10.216-.929,1.857-21.36,1.857-21.36Z" transform="translate(-253.735 -310.19)" fill="#2f2e41"/><path d="M498.636,696.3l-14.859-12.073s2.786,14.859-.929,17.645l-1.7,4.961,4.752,3.887S500.494,708.378,498.636,696.3Z" transform="translate(-222.835 -307.74)" fill="#2f2e41"/><path d="M465.687,670.915s9.751,2.786,8.358,12.537-3.179,20.345-3.179,20.345-.536,26.089-7.5,27.947-8.823-1.857-8.823-1.857-7.917-20.387-5.572-26.468c2.839-7.36,6.93-15.625,5.572-18.11C453.207,682.865,455.472,669.522,465.687,670.915Z" transform="translate(-210.782 -302.781)" fill="#2f2e41"/><path d="M453.021,466.8s3.715.464,9.751,1.393,10.216-3.715,13.466-2.786,30.182,7.43,30.182,7.43l-4.179,32.04s5.108,37.148,4.179,43.649,11.144,5.572,4.179,13.466-19.038,14.859-43.649,12.537-27.861-1.857-27.861-5.572,5.572-35.29,3.715-38.076-5.572-6.036-3.715-9.287,3.715-5.108.929-7.894-4.179-5.572-4.179-6.965-6.5-24.146-6.5-24.146,2.786-11.144,6.036-11.609,6.036-2.786,8.358-2.786,3.715.464,5.108,0Z" transform="translate(-203.687 -226.826)" fill="#6c63ff"/><path d="M508.184,409.272c-.239-1.073-1.408-4.661-3.786-5.537-1.74-.64-4.976.713-6.588.488l-.208-.59a13.4,13.4,0,0,0-.862-3.389,17.346,17.346,0,0,0-9.517-9.7c-5.31-2.22-13.708-4.055-20.994,1.761-10.008,7.989-8.245,19.942-7.517,23.259q.182.83.312,1.67c.448,2.921,1.741,3.27,1.741,3.27s-.028-.084-.073-.238l9.04.88,4.887-.834c.082.478.113.76.113.76,14.262-2.18,22.561-9.692,23.908-10.994a14.431,14.431,0,0,0,5.531,2.349C507.305,412.838,508.423,410.345,508.184,409.272Zm-36.747,7.181-11.484-.418c-.163-3.135.647-6.8,5.263-6.987,4.451-.18,6.88,3.438,8.168,6.751Z" transform="translate(-214.321 -198.417)" fill="#2f2e41"/><ellipse cx="2.032" cy="0.769" rx="2.032" ry="0.769" transform="translate(257.855 190.061) rotate(-9.685)" fill="#2f2e41"/></g><g transform="translate(748 147.5)"><ellipse cx="17.891" cy="17.986" rx="17.891" ry="17.986" transform="translate(259.574 42.559)" fill="#f2f2f2"/><ellipse cx="25.514" cy="25.649" rx="25.514" ry="25.649" transform="translate(242.09 97.862)" fill="#f2f2f2"/><ellipse cx="28.512" cy="28.664" rx="28.512" ry="28.664" transform="translate(252.367 170.71)" fill="#f2f2f2"/><rect width="92.552" height="48.173" transform="translate(12.77 54.621)" fill="#6c63ff"/><path d="M628.354,390.6l5.522,19.7s-1.138,17.448,4.172,14.034c5.434-3.493,3.414-18.207,3.414-18.207l-3.183-17.672Z" transform="translate(-434.864 -282.087)" fill="#ffb9b9"/><path d="M627.354,248.422l4.56,4.56v21.729s2.682,4.024,2.146,5.1-1.073,1.073-.536,1.878,1.073,1.341.536,1.878a2.012,2.012,0,0,0,0,2.414c.536.537,1.61,1.341.8,2.146s-1.878.268-.8,3.219,2.951,3.756,2.414,4.829a12.084,12.084,0,0,0-.536,3.756L624.4,301.536l-2.414-30.313Z" transform="translate(-430.913 -195.174)" fill="#d0cde1"/><path d="M519.985,275.459,506.572,276l.537,5.633,11.8-2.146Z" transform="translate(-314.424 -170.974)" fill="#3f3d56"/><path d="M442.058,66.478l-1.61,16.095,16.364,2.414,1.207-9.254,1.207-9.255Z" transform="translate(-273.381 -41.262)" fill="#ffb9b9"/><path d="M442.058,66.478l-1.61,16.095,16.364,2.414,1.207-9.254,1.207-9.255Z" transform="translate(-273.381 -41.262)" opacity="0.1"/><path d="M469.231,376.427l9.121,19.582s1.61,9.121,4.024,9.389,4.829-9.389,4.829-9.389l-3.219-5.1-3.756-14.486Z" transform="translate(-336.098 -274.625)" fill="#ffb9b9"/><path d="M496.879,412.129l-7.511,11.8s-7.243,112.4-6.17,111.593,4.56-1.073,5.9-3.219,9.657,0,9.657,0l4.829-5.1v-4.024c0-.8,9.657-62.235,9.657-62.235v15.559s-2.951,57.138,1.878,56.6,14.754-3.756,14.754-3.756S544.092,422.59,539.8,418.566s-6.17-13.144-6.17-13.144Z" transform="translate(-344.7 -292.622)" fill="#2f2e41"/><circle cx="12.876" cy="12.876" r="12.876" transform="translate(164.787 4.695)" fill="#ffb9b9"/><path d="M477.511,221.914l-1.878-1.073s-8.316,5.633-11,18.241-4.56,15.827-4.56,15.827-2.683.537-.8,2.414,1.878,1.61.268,2.683-2.683-1.073-1.61,1.073,2.414,1.61,1.341,2.951-2.951,1.341-1.878,2.414-1.073,3.487.268,4.56,1.878,1.341,1.878,3.219a9.5,9.5,0,0,0,.536,3.219h13.949s-2.683-5.1-1.878-6.17,1.073-2.146.537-2.683-2.146.537-.537-.8,2.146-.537,1.61-2.146-1.61-.8-.536-1.609,1.878-.537,1.341-1.341-1.609-.8-.536-1.341,1.878,0,1.61-1.341-.537-.8,0-1.341,6.17-18.778,6.17-19.314S477.511,221.914,477.511,221.914Z" transform="translate(-328.551 -178.054)" fill="#d0cde1"/><path d="M357.985,259.193l-16.9,1.073,4.292,4.024,11.8.268Z" transform="translate(-211.708 -160.878)" fill="#3f3d56"/><path d="M510.909,420.274l-3.487,6.438s10.462,1.341,14.217,2.683,13.413,3.219,13.413,3.219l2.414-9.389Z" transform="translate(-359.802 -301.84)" fill="#3f3d56"/><path d="M478.991,316.94l2.951,8.852,11.8-2.414-1.341-8.316Z" transform="translate(-297.304 -195.555)" fill="#3f3d56"/><path d="M545.439,188.978s-.8-.536-2.682.537-8.048,1.61-11-1.61-5.1-5.9-5.9-5.365-1.341,6.706-1.341,6.706l-2.682,2.146-15.827,5.633,1.341,36.214,2.414,8.316s-1.878,6.438.537,10.194-1.341,5.1-1.341,5.1-.8,1.073-.268,3.756-.537,12.608-.537,12.608,22.8,10.194,46.676,1.341l-2.683-10.194-1.341-22.8s1.341-3.756,1.073-5.365,8.048-24.143,8.048-24.143-1.341-11.267-8.316-13.681-8.048-4.829-8.048-4.829S546.781,190.05,545.439,188.978Z" transform="translate(-358.924 -154.238)" fill="#d0cde1"/><path d="M550.908,127.261a5.9,5.9,0,0,1-.823-4.166,12.624,12.624,0,0,0,.36-3.754,37.155,37.155,0,0,1,2.16-5.451c1.08-1.954.566-2.777,3.96-3.394s2.006-5.04,10.954-.257a2.624,2.624,0,0,0,2.726,1.029c1.851-.36,2.52,2.211,2.52,2.211s1.234-.72,1.7.309,3.763-.617,3.763,6.325a28.746,28.746,0,0,1-3.756,13.144s.275-11.679-5.845-12.861-12.7-4.629-14.3-.206A33.716,33.716,0,0,1,550.908,127.261Z" transform="translate(-386.21 -108.041)" fill="#2f2e41"/><ellipse cx="1.207" cy="1.61" rx="1.207" ry="1.61" transform="translate(187.186 18.778)" fill="#ffb9b9"/><path d="M578.1,729.648l1.887,5.66s0,5.66,1.887,8.49,3.773,8.961-3.773,9.433-10.848-2.358-10.848-2.358,1.415-3.773,0-5.188,0-4.245,0-4.245l1.415-11.32Z" transform="translate(-396.55 -493.865)" fill="#2f2e41"/><path d="M491.061,729.648l-1.887,5.66s0,5.66-1.887,8.49-3.773,8.961,3.773,9.433,10.848-2.358,10.848-2.358-1.415-3.773,0-5.188,0-4.245,0-4.245l-1.415-11.32Z" transform="translate(-346.258 -493.865)" fill="#2f2e41"/><rect width="0.759" height="176" transform="translate(273.736 58.035)" fill="#3f3d56"/><path d="M794.36,592.938a28.448,28.448,0,1,1,28.448-28.448A28.448,28.448,0,0,1,794.36,592.938Zm0-56.138a27.69,27.69,0,1,0,27.69,27.69A27.69,27.69,0,0,0,794.36,536.8Z" transform="translate(-520.245 -373.695)" fill="#3f3d56"/><path d="M799.946,401.11a25.035,25.035,0,1,1,25.035-25.035A25.035,25.035,0,0,1,799.946,401.11Zm0-49.31a24.276,24.276,0,1,0,24.276,24.276A24.276,24.276,0,0,0,799.946,351.8Z" transform="translate(-525.831 -258.868)" fill="#3f3d56"/><path d="M809.257,238.731A19.345,19.345,0,1,1,828.6,219.386,19.345,19.345,0,0,1,809.257,238.731Zm0-37.931a18.586,18.586,0,1,0,18.586,18.586A18.586,18.586,0,0,0,809.257,200.8Z" transform="translate(-535.141 -165.144)" fill="#3f3d56"/><rect width="49.69" height="0.759" transform="translate(224.805 53.862)" fill="#3f3d56"/><rect width="49.69" height="0.759" transform="translate(234.667 100.897)" fill="#3f3d56"/><rect width="49.69" height="0.759" transform="translate(263.495 111.138)" fill="#3f3d56"/><path d="M257.223,286.972H163.912V238.041h93.311Zm-92.552-.759h91.793V238.8H164.671Z" transform="translate(-146.59 -188.73)" fill="#3f3d56"/><path d="M92.658,154.772l-46.45-23.986.348-.674,46.1,23.807,46.1-23.807.348.674Z" transform="translate(-28.681 -80.758)" fill="#3f3d56"/></g></g></svg>