<svg xmlns="http://www.w3.org/2000/svg" width="392.32" height="285.784" viewBox="0 0 392.32 285.784"><rect width="335.295" height="238.626" transform="translate(57.025 47.158)" fill="#e6e6e6"/><path d="M27.231,257.244h-2.42V21.869H353.088v2.439H27.231Z" transform="translate(4.245 3.742)" fill="#6c63ff"/><path d="M2.422,235.375H0V0H328.338V2.439H2.422Z" fill="#6c63ff"/><ellipse cx="70.219" cy="70.735" rx="70.219" ry="70.735" transform="translate(154.446 95.735)" fill="#fff"/><path d="M52.99,82.482a19.414,19.414,0,0,0,19.431-19.5L72.485,24a19.5,19.5,0,0,0-38.991,0V62.987A19.469,19.469,0,0,0,52.99,82.482Zm34.442-19.5c0,19.5-16.506,33.142-34.442,33.142S18.547,82.482,18.547,62.987H7.5c0,22.225,17.676,40.486,38.991,43.67v21.315h13V106.657c21.315-3.119,38.991-21.445,38.991-43.67Z" transform="translate(171.51 100.014)" fill="#6c63ff"/></svg>